<svg width="375" height="325" viewBox="0 0 375 325" fill="none" xmlns="http://www.w3.org/2000/svg">
<rect width="375" height="325" fill="white"/>
<g opacity="0.2">
<mask id="mask0" mask-type="alpha" maskUnits="userSpaceOnUse" x="0" y="0" width="375" height="325">
<rect width="375" height="325" fill="#C4C4C4"/>
</mask>
<g mask="url(#mask0)">
<path d="M366.59 52.48C363.49 52.48 360.58 53.27 358.05 54.64C353.53 44.32 342.99 37.09 330.71 37.09C315.38 37.09 302.77 48.36 301.18 62.83C298.87 61.75 296.31 61.13 293.6 61.13C286.25 61.13 279.95 65.55 277.17 71.87C273.35 70.44 269.21 69.64 264.87 69.64C259.57 69.64 254.56 70.81 250.08 72.9H228.88C224.48 67.31 217.66 63.72 210 63.72C202.34 63.72 195.52 67.31 191.12 72.9H184.37C184.39 72.42 184.41 71.93 184.41 71.44C184.41 55.52 171.11 42.61 154.71 42.61C152.42 42.61 150.2 42.87 148.07 43.34C148.1 42.93 148.13 42.51 148.13 42.09C148.13 32.67 140.26 25.04 130.56 25.04C122.93 25.04 116.45 29.77 114.03 36.38C111.49 35.23 108.75 34.43 105.88 34.02C105.67 15.2 89.9 0 70.46 0C52.69 0 37.99 12.7 35.44 29.26C33.06 28.09 30.38 27.42 27.53 27.42C19.51 27.42 12.76 32.64 10.65 39.77C5.91002 37.08 0.82 35.26 -5 35V139H380V58C376.78 54.5 371.8 52.48 366.59 52.48Z" fill="#D3F2EE"/>
<path d="M290.35 95.91H281.3V58.8L267.49 54.22V36.67L259.36 29.6H252.32L244.41 36.67V83.06H239.51V23.65H216.3V99.25H209.35V41.1H186.14V87.7H178.89V58.23L160.04 70.66V102.46H153.92V72.53H148.74L146.67 65.07H144.16C143 63.53 140.99 62.51 138.69 62.51C136.39 62.51 134.38 63.53 133.22 65.07H130.71L128.64 72.53H123.46V100.51H117.7L112.18 106.73V118.16L105.8 114.81H103.78C101.61 114.81 99.86 116.44 99.86 118.44V130.97V152.34H283.54L290.36 141.05V95.91H290.35Z" fill="#82B7BF"/>
<path d="M-1.33 74.26H46.65C71.75 74.26 95.51 85.64 111.24 105.19L118.76 114.54C122.58 119.29 128.35 122.05 134.45 122.05H149.15C158.43 122.05 167.22 126.23 173.08 133.42C174.87 135.61 177.54 136.88 180.37 136.88H218.48L227.27 184.38L-6 181.12L-1.33 74.26Z" fill="#83CCAE"/>
<path d="M371.23 84.97C370.82 84.07 370.34 83.17 369.8 82.27C368.75 80.53 367.3 79.07 365.58 78.01C355.97 72.09 346.25 74 340.13 79.71C334.9 76.56 328.77 74.74 322.21 74.74C314.08 74.74 306.61 77.53 300.69 82.2L296.44 70.06C296.12 69.16 294.85 69.16 294.53 70.06L289.32 84.96H288.85L286.76 79C286.44 78.1 285.17 78.1 284.85 79L282.76 84.96H276.54C268.88 84.96 261.67 88.59 257.11 94.74C253.64 99.42 248.6 102.69 242.91 103.95L232.97 106.15C232.37 106.28 231.77 106.42 231.18 106.57C212.71 111.18 197.62 124.47 190.07 141.94L182.93 158.45L379.69 152.47V84.97H371.23Z" fill="#5DBA9E"/>
<path d="M379.68 189.4V99C376.55 99.86 373.74 101.47 371.43 103.62C366.2 100.47 360.07 98.65 353.51 98.65C341.98 98.65 331.76 104.27 325.43 112.91C325.18 112.43 324.91 111.94 324.61 111.46C323.56 109.72 322.11 108.26 320.39 107.2C310.78 101.28 301.06 103.19 294.94 108.9C289.71 105.75 283.58 103.93 277.02 103.93C260.12 103.93 246.04 115.98 242.89 131.96C236.98 129.36 229.58 129.51 222.23 134.41C220.93 135.28 219.81 136.42 218.98 137.74C215.57 143.16 200.66 138.55 200.66 138.55H142.82C139.99 138.55 137.31 137.28 135.53 135.09C129.67 127.9 120.88 123.72 111.6 123.72H96.9C90.8 123.72 85.03 120.96 81.21 116.21L73.69 106.86C57.95 87.3 41.99 74.2 16.88 74.2H14.63L11.19 64.37C10.84 63.36 9.42001 63.36 9.06001 64.37L6.30001 72.26L-1.15999 50.96C-1.61999 49.66 -3.45999 49.66 -3.91999 50.96L-5.35999 55.08V181.9L238.63 187.73L379.68 189.4Z" fill="#4DAC92"/>
<path d="M305.56 136.08H68.39V139.86H305.56V136.08Z" fill="white"/>
<path d="M283.05 264.079C284.7 220.059 231.29 192.749 204.95 181.229C197.66 178.039 189.04 174.589 173.66 172.469C141.18 167.989 101.88 166.759 97.9304 167.149L85.0504 178.649C156.89 178.649 166.27 225.129 143.52 239.509C102.4 265.499 102.27 267.139 49.6404 278.649C49.6404 279.199 29.1604 315.839 28.0904 328.329H255.3C268.96 309.139 283.05 264.079 283.05 264.079Z" fill="#9EE5DE"/>
<path d="M178.15 158.57C176.18 158.57 174.24 158.69 172.33 158.91C189.63 160.89 204.27 171.58 211.77 186.49H223.41C215.08 169.93 197.95 158.57 178.15 158.57Z" fill="#116A7D"/>
<path d="M74.17 144.1V186.49H121.25H132.89C140.39 171.58 155.03 160.89 172.33 158.91C174.24 158.69 176.18 158.57 178.15 158.57C197.95 158.57 215.08 169.94 223.41 186.5H313.08V144.1H74.17Z" fill="white"/>
<path d="M233.18 183.92H223.43V189.77H233.18V183.92Z" fill="white"/>
<path d="M214.132 188.211C211.392 186.691 208.552 185.251 205.622 183.891C199.102 193.921 189.122 201.481 177.382 204.921C177.702 205.551 177.992 206.201 178.272 206.861C192.742 205.881 205.532 198.811 214.132 188.211Z" fill="#9DD4D1"/>
<path d="M253.83 225.543H181.31C181.3 226.823 181.25 228.083 181.18 229.323H255.81C255.2 228.053 254.53 226.803 253.83 225.543Z" fill="#B9EDE6"/>
<path d="M214.146 188.168C205.546 198.778 192.756 205.838 178.286 206.818C180.066 211.038 181.066 215.908 181.126 221.408H251.086C242.826 208.568 230.186 197.048 214.146 188.168Z" fill="#B9EDE6"/>
<path d="M225.48 188.91L240.21 170.08C245.69 163.66 253.3 159.44 261.65 158.2C261.72 158.19 261.78 158.18 261.85 158.17C271 156.75 278.95 151.09 283.68 143.13C288.29 135.39 303.77 124.36 314.53 121.84C326.83 118.96 380.1 118.53 380.1 118.53V238.61L264.79 221.53L225.48 188.91Z" fill="#5095A0"/>
<path d="M339.58 355.37C352.76 355.37 365.39 350.14 374.71 340.82L379.97 335.56L379.68 145.03C376.1 140.42 370.52 137.43 364.23 137.43C354.45 137.43 346.37 144.61 344.92 153.99C342.97 153.15 340.82 152.68 338.56 152.68C331.15 152.68 324.93 157.7 323.06 164.51C307.9 168.63 297.97 180.85 297.97 180.85C270.24 180.85 257.62 210.76 257.62 210.76L276.73 387.22H287.61L303.99 370.4C313.34 360.79 326.17 355.37 339.58 355.37Z" fill="#116A7D"/>
<path d="M184.48 228.67V225.76C184.48 201.95 167.03 189.88 145.52 189.88H-5.35999V337L50.95 330.83C143.36 312.35 184.48 267.1 184.48 228.67Z" fill="#4DAC92"/>
<path d="M165.73 171.912C223.17 181.062 262.09 218.042 262.09 256.442C262.09 296.342 226.76 326.002 172.15 335.952H261.16C283.28 319.002 289.57 296.102 289.57 270.892C289.55 219.372 236.17 173.152 165.73 171.912Z" fill="#4DAC92"/>
<path d="M172.85 244.37C175.61 237.68 176.84 231.14 176.84 222.4C176.84 199.42 142.07 167.63 142.07 167.63C133.25 158.81 121.29 153.86 108.82 153.86C96.73 153.86 85.12 149.19 76.39 140.86L67.72 115.99C67.41 115.07 66.11 115.07 65.8 115.99L62.48 125.77L53.55 99.4C53.24 98.48 51.94 98.48 51.63 99.4L47.31 112.14C39.75 105.94 30.43 102.24 20.65 101.58H-5.35999V220.28L110.43 256.19L172.85 244.37Z" fill="#5095A0"/>
<path d="M111.61 290.93C132.1 284.79 151.69 273.86 164.08 258.36C167.47 254.13 170.3 249.49 172.41 244.36C172.46 243.52 172.49 242.74 172.49 242.02C172.49 225.63 159.2 212.35 142.82 212.35C136.57 212.35 130.78 214.28 126 217.58C122.25 207.81 112.79 200.87 101.7 200.87C100.44 200.87 99.2 200.96 97.99 201.14C94.54 185 80.21 172.9 63.05 172.9C59.03 172.9 55.18 173.57 51.57 174.79C48.3 169.33 42.84 165.34 36.4 164.03C36.54 163.31 36.62 162.57 36.62 161.81C36.62 155.31 31.35 150.04 24.85 150.04C22.59 150.04 20.49 150.69 18.7 151.79C15.11 141.29 5.88999 133.4 -5.35001 131.71V302.76H16.39C16.38 302.77 68.2 303.95 111.61 290.93Z" fill="#116A7D"/>
<path d="M73.21 260.15C89.9332 260.15 103.49 246.593 103.49 229.87C103.49 213.147 89.9332 199.59 73.21 199.59C56.4868 199.59 42.93 213.147 42.93 229.87C42.93 246.593 56.4868 260.15 73.21 260.15Z" fill="white"/>
<path d="M72.47 242.55C71.92 242.55 71.37 242.35 70.94 241.95L58.24 230.09C57.34 229.24 57.29 227.83 58.13 226.92C58.97 226.01 60.39 225.97 61.3 226.81L74 238.67C74.9 239.52 74.95 240.93 74.11 241.84C73.66 242.31 73.07 242.55 72.47 242.55Z" fill="#4DAC92"/>
<path d="M73.72 257.57C73.28 257.57 72.84 257.44 72.46 257.18C71.44 256.48 71.17 255.09 71.87 254.06L84.7 235.28C85.4 234.26 86.79 233.99 87.82 234.69C88.84 235.39 89.11 236.78 88.41 237.81L75.58 256.59C75.14 257.22 74.43 257.57 73.72 257.57Z" fill="#4DAC92"/>
<path d="M73.21 310.21C71.97 310.21 70.97 309.21 70.97 307.97V225.72C70.97 224.48 71.97 223.48 73.21 223.48C74.45 223.48 75.45 224.48 75.45 225.72V307.97C75.46 309.21 74.45 310.21 73.21 310.21Z" fill="#4DAC92"/>
<path d="M114.26 280.3C126.902 280.3 137.15 270.052 137.15 257.41C137.15 244.768 126.902 234.52 114.26 234.52C101.618 234.52 91.37 244.768 91.37 257.41C91.37 270.052 101.618 280.3 114.26 280.3Z" fill="white"/>
<path d="M113.5 265.76C113.1 265.76 112.7 265.63 112.37 265.36L102.97 257.72C102.2 257.09 102.08 255.96 102.71 255.19C103.33 254.42 104.47 254.31 105.23 254.93L114.63 262.57C115.4 263.2 115.52 264.33 114.89 265.1C114.54 265.54 114.02 265.76 113.5 265.76Z" fill="#4DAC92"/>
<path d="M114.55 274.51C114.16 274.51 113.78 274.39 113.45 274.13C112.67 273.52 112.53 272.39 113.14 271.61L123.84 257.87C124.45 257.09 125.57 256.95 126.36 257.56C127.14 258.17 127.28 259.3 126.67 260.08L115.97 273.82C115.62 274.27 115.09 274.51 114.55 274.51Z" fill="#4DAC92"/>
<path d="M114.26 295.12C113.27 295.12 112.47 294.32 112.47 293.33V254.28C112.47 253.29 113.27 252.49 114.26 252.49C115.25 252.49 116.05 253.29 116.05 254.28V293.33C116.05 294.31 115.25 295.12 114.26 295.12Z" fill="#4DAC92"/>
<path d="M287.73 231.15C300.372 231.15 310.62 220.902 310.62 208.26C310.62 195.618 300.372 185.37 287.73 185.37C275.088 185.37 264.84 195.618 264.84 208.26C264.84 220.902 275.088 231.15 287.73 231.15Z" fill="white"/>
<path d="M286.97 217.74C286.57 217.74 286.17 217.61 285.84 217.34L276.44 209.7C275.67 209.08 275.55 207.95 276.18 207.18C276.81 206.41 277.94 206.29 278.7 206.92L288.1 214.56C288.87 215.18 288.99 216.31 288.36 217.08C288 217.51 287.49 217.74 286.97 217.74Z" fill="#4DAC92"/>
<path d="M288.09 226.81C287.71 226.81 287.33 226.69 287.01 226.45C286.22 225.85 286.06 224.73 286.66 223.94L297.29 209.87C297.89 209.08 299.01 208.92 299.8 209.52C300.59 210.12 300.75 211.24 300.15 212.03L289.52 226.1C289.17 226.56 288.63 226.81 288.09 226.81Z" fill="#4DAC92"/>
<path d="M287.73 258.3C286.74 258.3 285.94 257.5 285.94 256.51V206.25C285.94 205.26 286.74 204.46 287.73 204.46C288.72 204.46 289.52 205.26 289.52 206.25V256.51C289.52 257.5 288.72 258.3 287.73 258.3Z" fill="#4DAC92"/>
<path d="M301.43 152.4L291.11 121.98C290.8 121.06 289.5 121.06 289.19 121.98L278.87 152.4L290.15 165.53L301.43 152.4Z" fill="#5095A0"/>
<path d="M117.189 322.017V328.537L127.809 342.167C128.419 342.947 128.279 344.077 127.499 344.687C127.169 344.937 126.779 345.067 126.399 345.067C125.869 345.067 125.339 344.827 124.979 344.377L117.199 334.387V347.977C117.199 348.967 116.399 349.767 115.409 349.767C114.419 349.767 113.619 348.967 113.619 347.977V341.437L106.379 347.317C106.049 347.587 105.649 347.717 105.249 347.717C104.729 347.717 104.209 347.487 103.859 347.057C103.239 346.287 103.349 345.157 104.119 344.527L113.519 336.887C113.549 336.867 113.589 336.847 113.619 336.827V322.027C101.819 322.947 92.5289 332.807 92.5289 344.837C92.5289 346.037 92.6189 347.207 92.7989 348.357C88.2489 344.867 82.6789 342.637 76.6189 342.187V345.527C76.6589 345.577 76.6989 345.617 76.7289 345.657L89.5589 364.437C90.2589 365.457 89.9989 366.857 88.9689 367.557C88.5789 367.817 88.1389 367.947 87.7089 367.947C86.9889 367.947 86.2889 367.607 85.8589 366.967L76.6189 353.447V376.537C76.6189 377.777 75.6189 378.777 74.3789 378.777C73.1389 378.777 72.1389 377.777 72.1389 376.537V366.407L62.4689 375.447C62.0389 375.847 61.4889 376.047 60.9389 376.047C60.3389 376.047 59.7389 375.807 59.2989 375.337C58.4489 374.427 58.4989 373.017 59.4089 372.167L72.1089 360.307C72.1189 360.297 72.1389 360.287 72.1489 360.277V342.187C56.4689 343.337 44.1089 356.407 44.1089 372.377C44.1089 389.097 57.6689 402.657 74.3889 402.657C91.1089 402.657 104.669 389.097 104.669 372.377C104.669 369.627 104.299 366.967 103.609 364.437C107.059 366.527 111.109 367.727 115.429 367.727C128.069 367.727 138.319 357.477 138.319 344.837C138.279 332.797 128.989 322.937 117.189 322.017Z" fill="#B9EDE6"/>
<path d="M127.799 342.167L117.179 328.537V322.017V309.647C115.979 310.187 114.789 310.737 113.589 311.267V322.017V336.817C113.559 336.837 113.519 336.857 113.489 336.877L104.089 344.517C103.319 345.147 103.199 346.277 103.829 347.047C104.189 347.487 104.699 347.707 105.219 347.707C105.619 347.707 106.019 347.577 106.349 347.307L113.589 341.427V347.967C113.589 348.957 114.389 349.757 115.379 349.757C116.369 349.757 117.169 348.957 117.169 347.967V334.377L124.949 344.367C125.299 344.827 125.829 345.057 126.369 345.057C126.759 345.057 127.139 344.937 127.469 344.677C128.269 344.077 128.409 342.957 127.799 342.167Z" fill="#95D6CC"/>
<path opacity="0.24" d="M198.84 293.78L197.89 294.66C196.94 295.53 196.4 296.76 196.4 298.04V309.05C196.4 309.05 234.06 295.31 232.23 263.45L198.84 293.78Z" fill="url(#paint0_linear)"/>
<path d="M200.17 283.44L195.62 284.87L195.85 292.02C195.94 294.45 198.47 295.99 200.67 294.96C210.59 290.29 234.13 279.09 233.09 254.41L219.83 266.46L200.17 283.44Z" fill="#116A7D"/>
<path d="M196.16 285.36C195.77 285.42 195.46 285.01 195.64 284.65C197.38 281.29 204.39 268.6 216.21 258.13C219.41 255.3 228.26 248.23 231.24 245.86C231.71 245.48 232.41 245.73 232.54 246.33C233.84 252.44 237 279.08 196.16 285.36Z" fill="white"/>
<path d="M191.69 259.32L188.51 257.18C188.19 256.97 188.11 256.53 188.32 256.22L190.24 253.36C190.45 253.04 190.89 252.96 191.2 253.17L193.63 254.8C195.37 255.97 196.68 257.68 197.36 259.67L197.58 260.12L196.96 260.95L195.66 260.84C194.24 260.65 192.88 260.12 191.69 259.32Z" fill="#116A7D"/>
<path d="M232.097 283.196L197.104 259.665L196.485 260.586L231.478 284.117L232.097 283.196Z" fill="#116A7D"/>
<path d="M212.278 264.317C212.299 262.572 211.041 261.141 209.467 261.122C207.893 261.103 206.6 262.502 206.579 264.247C206.557 265.992 207.816 267.422 209.389 267.441C210.963 267.461 212.257 266.062 212.278 264.317Z" fill="#116A7D"/>
<path d="M217.58 275.08C216.97 273.82 215.55 270.83 214.73 269.1C214.35 268.31 213.56 267.8 212.69 267.79L212.14 267.78C211.56 267.77 211.1 267.3 211.11 266.72L211.12 265.73L207.91 265.69L207.9 266.68C207.89 267.26 207.42 267.72 206.84 267.71H206.63C205.67 267.7 204.75 268.09 204.09 268.78L202.58 270.37C202.11 270.86 202.06 271.64 202.51 272.16C202.99 272.72 203.82 272.78 204.37 272.31L204.79 271.95C204.94 271.83 205.16 271.93 205.16 272.12L205.11 275.97C205.08 278.42 207.06 280.44 209.52 280.44H209.65C211.95 280.45 213.83 278.6 213.86 276.29L213.88 274.41C213.88 274.31 213.95 274.21 214.05 274.19C214.15 274.17 214.25 274.21 214.3 274.3C214.47 274.6 214.96 275.48 215.35 276.19C215.65 276.73 216.29 277 216.88 276.79C217.57 276.56 217.9 275.75 217.58 275.08Z" fill="#116A7D"/>
<path d="M216.39 273.25C216.73 272.71 217.5 272.66 217.9 273.16L218.27 273.61C218.51 273.9 218.55 274.31 218.38 274.64L217.51 276.3L216.72 275.06" fill="#116A7D"/>
<path d="M224.032 251.189C224.053 249.444 222.795 248.014 221.221 247.995C219.647 247.975 218.354 249.374 218.332 251.119C218.311 252.864 219.569 254.295 221.143 254.314C222.717 254.333 224.01 252.935 224.032 251.189Z" fill="#116A7D"/>
<path d="M229.33 261.95C228.72 260.69 227.3 257.7 226.48 255.97C226.1 255.18 225.31 254.67 224.44 254.66L223.89 254.65C223.31 254.64 222.85 254.17 222.86 253.59L222.87 252.6L219.66 252.56L219.65 253.55C219.64 254.13 219.17 254.59 218.59 254.58H218.51C217.46 254.57 216.46 254.99 215.74 255.75L214.32 257.24C213.85 257.73 213.8 258.51 214.25 259.03C214.73 259.59 215.56 259.65 216.11 259.18L216.53 258.82C216.68 258.7 216.9 258.8 216.9 258.99L216.85 262.65C216.82 265.1 218.8 267.12 221.26 267.12H221.39C223.69 267.13 225.57 265.28 225.6 262.97L225.62 261.29C225.62 261.19 225.69 261.09 225.79 261.07C225.89 261.05 225.99 261.09 226.04 261.18C226.21 261.48 226.7 262.36 227.09 263.07C227.39 263.61 228.03 263.88 228.62 263.67C229.33 263.42 229.65 262.62 229.33 261.95Z" fill="#116A7D"/>
<path d="M206.35 246.84L203.17 244.7C202.85 244.49 202.77 244.05 202.98 243.74L204.9 240.88C205.11 240.56 205.55 240.48 205.86 240.69L208.29 242.32C210.03 243.49 211.34 245.2 212.02 247.19L212.24 247.64L211.62 248.47L210.32 248.36C208.89 248.16 207.54 247.64 206.35 246.84Z" fill="#116A7D"/>
<path d="M246.752 270.706L211.759 247.175L211.14 248.096L246.133 271.627L246.752 270.706Z" fill="#116A7D"/>
<path d="M229.19 263.3L231.32 260.99C231.7 260.58 231.67 259.95 231.26 259.57C230.85 259.19 230.22 259.22 229.84 259.63L227.71 261.94L229.19 263.3Z" fill="#116A7D"/>
<path d="M251.244 269.899L240.565 269.768L240.524 273.107L251.203 273.239L251.244 269.899Z" fill="#9EE5DE"/>
<path d="M239.194 283.019L228.516 282.887L228.474 286.227L239.153 286.358L239.194 283.019Z" fill="#9EE5DE"/>
</g>
</g>
<defs>
<linearGradient id="paint0_linear" x1="213.353" y1="284.819" x2="218.035" y2="291.842" gradientUnits="userSpaceOnUse">
<stop stop-color="#116A7D"/>
<stop offset="1" stop-color="#9EE5DE"/>
</linearGradient>
</defs>
</svg>
