<svg width="375" height="812" viewBox="0 0 375 812" fill="none" xmlns="http://www.w3.org/2000/svg">
<g clip-path="url(#clip0)">
<rect width="375" height="812" fill="white"/>
<g clip-path="url(#clip1)">
<path fill-rule="evenodd" clip-rule="evenodd" d="M339.589 17.16H354.411C355.659 17.16 356.111 17.2899 356.568 17.534C357.024 17.778 357.382 18.1361 357.626 18.5924C357.87 19.0487 358 19.5013 358 20.7494V25.0705C358 26.3187 357.87 26.7713 357.626 27.2276C357.382 27.6839 357.024 28.042 356.568 28.286C356.111 28.53 355.659 28.66 354.411 28.66H339.589C338.341 28.66 337.889 28.53 337.432 28.286C336.976 28.042 336.618 27.6839 336.374 27.2276C336.13 26.7713 336 26.3187 336 25.0705V20.7494C336 19.5013 336.13 19.0487 336.374 18.5924C336.618 18.1361 336.976 17.778 337.432 17.534C337.889 17.2899 338.341 17.16 339.589 17.16ZM339.589 18.16C338.602 18.16 338.258 18.2265 337.904 18.4158C337.622 18.5666 337.407 18.782 337.256 19.064C337.067 19.4179 337 19.7624 337 20.7494V25.0705C337 26.0575 337.067 26.4021 337.256 26.756C337.407 27.038 337.622 27.2533 337.904 27.4042C338.258 27.5934 338.602 27.66 339.589 27.66H354.411C355.398 27.66 355.742 27.5934 356.096 27.4042C356.378 27.2533 356.593 27.038 356.744 26.756C356.933 26.4021 357 26.0575 357 25.0705V20.7494C357 19.7624 356.933 19.4179 356.744 19.064C356.593 18.782 356.378 18.5666 356.096 18.4158C355.742 18.2265 355.398 18.16 354.411 18.16H339.589ZM360.5 22.85C360.5 24.0865 359 24.85 359 24.85V20.85C359 20.85 360.5 21.6134 360.5 22.85Z" fill="white" fill-opacity="0.36"/>
<rect x="338" y="19.0767" width="18" height="7.66667" rx="1.6" fill="white"/>
<path fill-rule="evenodd" clip-rule="evenodd" d="M307.623 18.5659C307.6 18.6818 307.6 18.8212 307.6 19.1V26.8C307.6 27.0788 307.6 27.2182 307.623 27.3341C307.718 27.8101 308.09 28.1822 308.566 28.2769C308.682 28.3 308.821 28.3 309.1 28.3C309.379 28.3 309.518 28.3 309.634 28.2769C310.11 28.1822 310.482 27.8101 310.577 27.3341C310.6 27.2182 310.6 27.0788 310.6 26.8V19.1C310.6 18.8212 310.6 18.6818 310.577 18.5659C310.482 18.0898 310.11 17.7177 309.634 17.623C309.518 17.6 309.379 17.6 309.1 17.6C308.821 17.6 308.682 17.6 308.566 17.623C308.09 17.7177 307.718 18.0898 307.623 18.5659ZM302.9 21.5C302.9 21.2212 302.9 21.0818 302.923 20.9659C303.018 20.4898 303.39 20.1177 303.866 20.023C303.982 20 304.121 20 304.4 20C304.679 20 304.818 20 304.934 20.023C305.41 20.1177 305.782 20.4898 305.877 20.9659C305.9 21.0818 305.9 21.2212 305.9 21.5V26.8C305.9 27.0788 305.9 27.2182 305.877 27.3341C305.782 27.8101 305.41 28.1822 304.934 28.2769C304.818 28.3 304.679 28.3 304.4 28.3C304.121 28.3 303.982 28.3 303.866 28.2769C303.39 28.1822 303.018 27.8101 302.923 27.3341C302.9 27.2182 302.9 27.0788 302.9 26.8V21.5ZM298.323 23.2659C298.3 23.3818 298.3 23.5212 298.3 23.8V26.8C298.3 27.0788 298.3 27.2182 298.323 27.3341C298.418 27.8101 298.79 28.1822 299.266 28.2769C299.382 28.3 299.521 28.3 299.8 28.3C300.079 28.3 300.218 28.3 300.334 28.2769C300.81 28.1822 301.182 27.8101 301.277 27.3341C301.3 27.2182 301.3 27.0788 301.3 26.8V23.8C301.3 23.5212 301.3 23.3818 301.277 23.2659C301.182 22.7898 300.81 22.4177 300.334 22.323C300.218 22.3 300.079 22.3 299.8 22.3C299.521 22.3 299.382 22.3 299.266 22.323C298.79 22.4177 298.418 22.7898 298.323 23.2659ZM293.523 25.2659C293.5 25.3818 293.5 25.5212 293.5 25.8V26.8C293.5 27.0788 293.5 27.2182 293.523 27.3341C293.618 27.8101 293.99 28.1822 294.466 28.2769C294.582 28.3 294.721 28.3 295 28.3C295.279 28.3 295.418 28.3 295.534 28.2769C296.01 28.1822 296.382 27.8101 296.477 27.3341C296.5 27.2182 296.5 27.0788 296.5 26.8V25.8C296.5 25.5212 296.5 25.3818 296.477 25.2659C296.382 24.7898 296.01 24.4177 295.534 24.323C295.418 24.3 295.279 24.3 295 24.3C294.721 24.3 294.582 24.3 294.466 24.323C293.99 24.4177 293.618 24.7898 293.523 25.2659Z" fill="white"/>
<path fill-rule="evenodd" clip-rule="evenodd" d="M323.3 19.6963C325.535 19.6964 327.684 20.555 329.303 22.0945C329.425 22.2134 329.62 22.2119 329.74 22.0912L330.906 20.9148C330.967 20.8535 331.001 20.7706 331 20.6843C330.999 20.598 330.965 20.5155 330.903 20.4549C326.653 16.3816 319.947 16.3816 315.697 20.4549C315.636 20.5154 315.601 20.5979 315.6 20.6842C315.599 20.7705 315.633 20.8535 315.694 20.9148L316.86 22.0912C316.98 22.2121 317.175 22.2136 317.297 22.0945C318.917 20.5549 321.066 19.6963 323.3 19.6963ZM323.3 23.5237C324.528 23.5236 325.712 23.9799 326.622 24.804C326.745 24.9209 326.939 24.9184 327.059 24.7983L328.223 23.6219C328.285 23.5602 328.319 23.4764 328.318 23.3895C328.317 23.3025 328.281 23.2195 328.219 23.159C325.447 20.5813 321.156 20.5813 318.385 23.159C318.322 23.2195 318.286 23.3025 318.286 23.3895C318.285 23.4765 318.319 23.5602 318.38 23.6219L319.544 24.7983C319.664 24.9184 319.858 24.9209 319.981 24.804C320.891 23.9805 322.074 23.5242 323.3 23.5237ZM325.538 26.3313C325.6 26.2702 325.635 26.1861 325.633 26.0989C325.631 26.0116 325.593 25.929 325.529 25.8705C324.242 24.7826 322.359 24.7826 321.072 25.8705C321.008 25.929 320.97 26.0116 320.968 26.0988C320.966 26.186 321 26.2702 321.063 26.3313L323.077 28.3638C323.136 28.4236 323.216 28.4572 323.3 28.4572C323.384 28.4572 323.465 28.4236 323.524 28.3638L325.538 26.3313Z" fill="white"/>
</g>
<path d="M34.2974 28.2563C36.9854 28.2563 38.582 26.1543 38.582 22.5874C38.582 19.0864 36.8828 17.1675 34.356 17.1675C32.0562 17.1675 30.4302 18.7129 30.4302 20.8735C30.4302 22.9023 31.895 24.3818 33.9092 24.3818C35.147 24.3818 36.1504 23.8105 36.6484 22.8071H36.7729C36.751 25.29 35.8647 26.7109 34.3193 26.7109C33.4111 26.7109 32.686 26.2129 32.459 25.4072H30.5767C30.8843 27.1284 32.3638 28.2563 34.2974 28.2563ZM34.3633 22.9243C33.1328 22.9243 32.2832 22.0601 32.2832 20.8149C32.2832 19.6211 33.1768 18.7056 34.3706 18.7056C35.5645 18.7056 36.458 19.6357 36.458 20.8516C36.458 22.0527 35.5864 22.9243 34.3633 22.9243ZM41.7349 21.1592C42.4307 21.1592 42.9068 20.6758 42.9068 20.0239C42.9068 19.3721 42.4307 18.8887 41.7349 18.8887C41.0464 18.8887 40.563 19.3721 40.563 20.0239C40.563 20.6758 41.0464 21.1592 41.7349 21.1592ZM41.7349 26.5352C42.4307 26.5352 42.9068 26.0444 42.9068 25.3999C42.9068 24.748 42.4307 24.2646 41.7349 24.2646C41.0464 24.2646 40.563 24.748 40.563 25.3999C40.563 26.0444 41.0464 26.5352 41.7349 26.5352ZM50.044 28H51.8531V25.9712H53.2813V24.4111H51.8531V17.4312H49.1871C47.7515 19.6138 46.2501 22.0454 44.8804 24.4258V25.9712H50.044V28ZM46.6309 24.3452C47.6637 22.5508 48.8868 20.5952 49.9708 18.9399H50.0733V24.4551H46.6309V24.3452ZM57.4449 28H59.3346V17.4312H57.4523L54.691 19.3721V21.1519L57.3204 19.2915H57.4449V28Z" fill="white"/>
<mask id="mask0" mask-type="alpha" maskUnits="userSpaceOnUse" x="0" y="391" width="375" height="325">
<rect y="391" width="375" height="325" fill="white"/>
</mask>
<g mask="url(#mask0)">
<path d="M362.59 442.48C359.49 442.48 356.58 443.27 354.05 444.64C349.53 434.32 338.99 427.09 326.71 427.09C311.38 427.09 298.77 438.36 297.18 452.83C294.87 451.75 292.31 451.13 289.6 451.13C282.25 451.13 275.95 455.55 273.17 461.87C269.35 460.44 265.21 459.64 260.87 459.64C255.57 459.64 250.56 460.81 246.08 462.9H224.88C220.48 457.31 213.66 453.72 206 453.72C198.34 453.72 191.52 457.31 187.12 462.9H180.37C180.39 462.42 180.41 461.93 180.41 461.44C180.41 445.52 167.11 432.61 150.71 432.61C148.42 432.61 146.2 432.87 144.07 433.34C144.1 432.93 144.13 432.51 144.13 432.09C144.13 422.67 136.26 415.04 126.56 415.04C118.93 415.04 112.45 419.77 110.03 426.38C107.49 425.23 104.75 424.43 101.88 424.02C101.67 405.2 85.9 390 66.46 390C48.69 390 33.99 402.7 31.44 419.26C29.06 418.09 26.38 417.42 23.53 417.42C15.51 417.42 8.76002 422.64 6.65001 429.77C1.91002 427.08 -3.18 425.26 -9 425V529H376V448C372.78 444.5 367.8 442.48 362.59 442.48Z" fill="#D3F2EE"/>
<path d="M275.481 485.91H266.431V448.8L252.621 444.22V426.67L244.491 419.6H237.451L229.541 426.67V473.06H224.641V413.65H201.431V489.25H194.481V431.1H171.271V477.7H164.021V448.23L145.171 460.66V492.46H139.051V462.53H133.871L131.801 455.07H129.291C128.131 453.53 126.121 452.51 123.821 452.51C121.521 452.51 119.511 453.53 118.351 455.07H115.841L113.771 462.53H108.591V490.51H102.831L97.3115 496.73V508.16L90.9315 504.81H88.9115C86.7415 504.81 84.9915 506.44 84.9915 508.44V520.97V542.34H268.671L275.491 531.05V485.91H275.481Z" fill="#82B7BF"/>
<path d="M-16.1985 464.26H31.7815C56.8815 464.26 80.6415 475.64 96.3715 495.19L103.891 504.54C107.711 509.29 113.481 512.05 119.581 512.05H134.281C143.561 512.05 152.351 516.23 158.211 523.42C160.001 525.61 162.671 526.88 165.501 526.88H203.611L212.401 574.38L-20.8685 571.12L-16.1985 464.26Z" fill="#83CCAE"/>
<path d="M366.3 474.97C365.89 474.07 365.41 473.17 364.87 472.27C363.82 470.53 362.37 469.07 360.65 468.01C351.04 462.09 341.32 464 335.2 469.71C329.97 466.56 323.84 464.74 317.28 464.74C309.15 464.74 301.68 467.53 295.76 472.2L291.51 460.06C291.19 459.16 289.92 459.16 289.6 460.06L284.39 474.96H283.92L281.83 469C281.51 468.1 280.24 468.1 279.92 469L277.83 474.96H271.61C263.95 474.96 256.74 478.59 252.18 484.74C248.71 489.42 243.67 492.69 237.98 493.95L228.04 496.15C227.44 496.28 226.84 496.42 226.25 496.57C207.78 501.18 192.55 514.53 185 532L185 543H375V475L366.3 474.97Z" fill="#5DBA9E"/>
<path d="M375 579.045V488.915C371.789 489.772 368.906 491.377 366.537 493.521C361.171 490.38 354.883 488.566 348.153 488.566C336.325 488.566 325.84 494.169 319.347 502.783C319.09 502.305 318.813 501.816 318.505 501.337C317.428 499.603 315.941 498.147 314.176 497.09C304.318 491.188 294.346 493.092 288.068 498.785C282.703 495.644 276.414 493.83 269.684 493.83C252.347 493.83 237.903 505.844 234.672 521.776C228.609 519.184 221.017 519.334 213.477 524.219C212.144 525.087 210.995 526.223 210.143 527.539C206.645 532.943 191.349 528.347 191.349 528.347H132.013C129.11 528.347 126.361 527.081 124.534 524.897C118.523 517.728 109.506 513.561 99.9855 513.561H84.9052C78.6474 513.561 72.7282 510.809 68.8093 506.073L61.0948 496.751C44.9477 477.249 28.5748 464.188 2.81529 464.188H0.50709L-3.02189 454.388C-3.38095 453.381 -4.83768 453.381 -5.20699 454.388L-8.03839 462.254L-15.6914 441.018C-16.1633 439.721 -18.0509 439.721 -18.5228 441.018L-20 445.125V571.568L230.301 577.38L375 579.045Z" fill="#4DAC92"/>
<path d="M290.691 526.08H53.5215V529.86H290.691V526.08Z" fill="#D3F2EE"/>
<path d="M268.182 654.079C269.832 610.059 216.422 582.749 190.082 571.229C182.792 568.039 174.172 564.589 158.792 562.469C126.312 557.989 87.0119 556.759 83.0619 557.149L70.1819 568.649C142.022 568.649 151.402 615.129 128.652 629.509C87.5319 655.499 87.4019 657.139 34.7719 668.649C34.7719 669.199 14.2919 705.839 13.2219 718.329H240.432C254.092 699.139 268.182 654.079 268.182 654.079Z" fill="white"/>
<path d="M163.282 548.57C161.312 548.57 159.372 548.69 157.462 548.91C174.762 550.89 189.402 561.58 196.902 576.49H208.542C200.212 559.93 183.082 548.57 163.282 548.57Z" fill="#116A7D"/>
<path d="M59.3015 534.1V576.49H106.382H118.022C125.522 561.58 140.162 550.89 157.462 548.91C159.372 548.69 161.312 548.57 163.282 548.57C183.082 548.57 200.212 559.94 208.542 576.5H298.212V534.1H59.3015Z" fill="#D3F2EE"/>
<path d="M195.679 578.611C192.554 577.104 189.315 575.676 185.973 574.327C178.537 584.274 164.438 591.849 151.049 595.261C151.414 595.885 151.745 596.53 152.064 597.185C168.567 596.213 185.871 589.123 195.679 578.611Z" fill="#C2EBE9"/>
<path d="M238.798 615.543H160.302C160.291 616.823 160.237 618.083 160.161 619.323H240.941C240.281 618.053 239.556 616.803 238.798 615.543Z" fill="#F2FDFB"/>
<path d="M195.844 578.168C186.536 588.778 167.511 596.02 151.849 597C155.554 600.5 160.038 605.908 160.103 611.408H235.828C226.888 598.568 213.206 587.048 195.844 578.168Z" fill="#F2FDFB"/>
<path d="M210.611 578.91L225.341 560.08C230.821 553.66 238.431 549.44 246.781 548.2C246.851 548.19 246.911 548.18 246.981 548.17C256.131 546.75 264.081 541.09 268.811 533.13C273.421 525.39 288.901 514.36 299.661 511.84C311.961 508.96 375 508 375 508V645.5L266.065 641.997L210.611 578.91Z" fill="#5095A0"/>
<path d="M147.132 561C204.572 570.15 247.222 608.042 247.222 646.442C247.222 686.342 211.892 716.002 157.282 725.952H246.292C268.412 709.002 274.702 686.102 274.702 660.892C274.682 609.372 217.572 562.24 147.132 561Z" fill="white"/>
<path d="M151.435 610.197C152.569 618 152.677 627.68 149.978 634.37L148.429 647.481L-24.2904 610.28V491.58H1.14432C10.708 492.24 19.8219 495.94 27.2147 502.14L31.4391 489.4C31.7423 488.48 33.0135 488.48 33.3167 489.4L42.0491 515.77L45.2957 505.99C45.5989 505.07 46.8701 505.07 47.1732 505.99L55.6515 530.86C64.1884 539.19 75.5416 543.86 87.3642 543.86C129.433 550.72 150.301 602.394 151.435 610.197Z" fill="#5095A0"/>
<path d="M327.288 557.512C341.502 557.512 353.024 546.289 353.024 532.445C353.024 518.6 341.502 507.377 327.288 507.377C313.074 507.377 301.551 518.6 301.551 532.445C301.551 546.289 313.074 557.512 327.288 557.512Z" fill="#5DBA9E"/>
<path d="M329.198 566.884V554.684C329.232 554.643 329.265 554.6 329.296 554.555L340.205 539.007L337.052 536.909L329.198 548.102V528.991H325.379V537.388L317.162 529.908L314.557 532.617L325.349 542.441C325.359 542.45 325.369 542.459 325.379 542.468V569.008C320.91 571.701 316.755 574.963 313.025 578.748L301.621 590.318C296.786 595.224 290.204 597.984 283.337 597.984C275.963 597.984 268.943 601.164 264.056 606.719L243.508 630.074L255 716H441.802V584.031C441.802 558.358 419.968 536.664 396.903 547.937L385.227 553.644C376.656 557.833 367.251 560.009 357.722 560.009C347.714 560.009 337.954 562.407 329.198 566.884Z" fill="white"/>
<path d="M57.335 548.089C70.3293 548.089 80.8633 537.829 80.8633 525.172C80.8633 512.516 70.3293 502.255 57.335 502.255C44.3407 502.255 33.8068 512.516 33.8068 525.172C33.8068 537.829 44.3407 548.089 57.335 548.089Z" fill="#5DBA9E"/>
<path d="M85.4866 564.511C76.2823 564.511 68.8207 557.243 68.8207 548.278C68.8207 539.313 76.2823 532.045 85.4866 532.045C94.6909 532.045 102.152 539.313 102.152 548.278C102.152 557.243 94.6909 564.511 85.4866 564.511Z" fill="#116A7D"/>
<path d="M59.0814 545.504V570.367C64.8643 571.963 70.9095 572.79 77.032 572.79H79.4498C81.0058 572.79 82.5589 572.838 84.1066 572.934V562.178C84.094 562.163 84.0817 562.147 84.0697 562.132C84.0582 562.117 84.047 562.101 84.0361 562.085L76.1547 550.853L78.4328 549.337L84.1066 557.423V543.617H86.8658V549.683L92.8019 544.279L94.6838 546.236L86.8874 553.334L86.8658 553.353V573.155C94.3081 573.889 101.588 575.724 108.414 578.603L111.601 579.946C129.191 587.363 143.488 600.042 152.131 615.888L157 624.816V716H0V549.045C13.7941 549.045 28.0485 553.124 38.9425 560.858C44.0185 564.462 49.6389 567.298 55.5898 569.299V534.336C55.5806 534.328 55.5715 534.32 55.5624 534.312L45.6963 525.33L48.0778 522.853L55.5898 529.692V522.016H59.0814V539.487L66.2614 529.254L69.1442 531.172L59.1707 545.387C59.1423 545.427 59.1125 545.466 59.0814 545.504Z" fill="white"/>
</g>
<path opacity="0.24" d="M171.368 688.78L170.352 689.66C169.337 690.53 168.76 691.76 168.76 693.04V704.05C168.76 704.05 209.01 690.31 207.054 658.45L171.368 688.78Z" fill="url(#paint0_linear)"/>
<path d="M172.789 678.44L168 680.045L168.172 687.02C168.268 689.45 170.972 690.99 173.324 689.96C183.926 685.29 209.085 674.09 207.973 649.41L193.801 661.46L172.789 678.44Z" fill="#116A7D"/>
<path d="M168 680.045C169.86 676.685 177.299 663.6 189.932 653.13C193.352 650.3 202.811 643.23 205.996 640.86C206.498 640.48 207.246 640.73 207.385 641.33C208.774 647.44 211.648 673.765 168 680.045Z" fill="#E8F9F7"/>
<path d="M163.726 654.32L160.328 652.18C159.986 651.97 159.9 651.53 160.125 651.22L162.177 648.36C162.401 648.04 162.871 647.96 163.203 648.17L165.8 649.8C167.659 650.97 169.059 652.68 169.786 654.67L170.021 655.12L169.359 655.95L167.969 655.84C166.452 655.65 164.998 655.12 163.726 654.32Z" fill="#116A7D"/>
<path d="M206.912 678.196L169.513 654.666L168.851 655.587L206.25 679.117L206.912 678.196Z" fill="#116A7D"/>
<path d="M185.73 659.317C185.753 657.572 184.408 656.142 182.726 656.122C181.043 656.103 179.661 657.502 179.638 659.247C179.615 660.992 180.96 662.422 182.642 662.442C184.325 662.461 185.707 661.062 185.73 659.317Z" fill="#116A7D"/>
<path d="M191.397 670.08C190.745 668.82 189.227 665.83 188.351 664.1C187.945 663.31 187.1 662.8 186.17 662.79L185.583 662.78C184.963 662.77 184.471 662.3 184.482 661.72L184.492 660.73L181.062 660.69L181.051 661.68C181.04 662.26 180.538 662.72 179.918 662.71H179.694C178.668 662.7 177.684 663.09 176.979 663.78L175.365 665.37C174.863 665.86 174.809 666.64 175.29 667.16C175.803 667.72 176.69 667.78 177.278 667.31L177.727 666.95C177.887 666.83 178.123 666.93 178.123 667.12L178.069 670.97C178.037 673.42 180.153 675.44 182.782 675.44H182.921C185.38 675.45 187.389 673.6 187.421 671.29L187.442 669.41C187.442 669.31 187.517 669.21 187.624 669.19C187.731 669.17 187.838 669.21 187.891 669.3C188.073 669.6 188.596 670.48 189.013 671.19C189.334 671.73 190.018 672 190.649 671.79C191.386 671.56 191.739 670.75 191.397 670.08Z" fill="#116A7D"/>
<path d="M190.125 668.25C190.488 667.71 191.311 667.66 191.739 668.16L192.134 668.61C192.391 668.9 192.433 669.31 192.252 669.64L191.322 671.3L190.477 670.06" fill="#116A7D"/>
<path d="M198.292 646.19C198.315 644.445 196.97 643.014 195.288 642.995C193.606 642.976 192.223 644.375 192.201 646.12C192.178 647.865 193.523 649.295 195.205 649.314C196.887 649.334 198.269 647.935 198.292 646.19Z" fill="#116A7D"/>
<path d="M203.954 656.95C203.302 655.69 201.785 652.7 200.908 650.97C200.502 650.18 199.658 649.67 198.728 649.66L198.14 649.65C197.52 649.64 197.029 649.17 197.039 648.59L197.05 647.6L193.619 647.56L193.609 648.55C193.598 649.13 193.096 649.59 192.476 649.58H192.39C191.268 649.57 190.199 649.99 189.43 650.75L187.912 652.24C187.41 652.73 187.356 653.51 187.837 654.03C188.35 654.59 189.237 654.65 189.825 654.18L190.274 653.82C190.434 653.7 190.67 653.8 190.67 653.99L190.616 657.65C190.584 660.1 192.7 662.12 195.329 662.12H195.468C197.927 662.13 199.936 660.28 199.968 657.97L199.989 656.29C199.989 656.19 200.064 656.09 200.171 656.07C200.278 656.05 200.385 656.09 200.438 656.18C200.62 656.48 201.144 657.36 201.56 658.07C201.881 658.61 202.565 658.88 203.196 658.67C203.954 658.42 204.296 657.62 203.954 656.95Z" fill="#116A7D"/>
<path d="M179.395 641.84L175.996 639.7C175.654 639.49 175.568 639.05 175.793 638.74L177.845 635.88C178.069 635.56 178.54 635.48 178.871 635.69L181.468 637.32C183.328 638.49 184.728 640.2 185.454 642.19L185.69 642.64L185.027 643.47L183.638 643.36C182.109 643.16 180.666 642.64 179.395 641.84Z" fill="#116A7D"/>
<path d="M222.574 665.706L185.175 642.175L184.513 643.096L221.912 666.627L222.574 665.706Z" fill="#116A7D"/>
<path d="M203.805 658.3L206.081 655.99C206.487 655.58 206.455 654.95 206.017 654.57C205.579 654.19 204.906 654.22 204.499 654.63L202.223 656.94L203.805 658.3Z" fill="#116A7D"/>
<path d="M227.376 664.899L215.962 664.768L215.919 668.108L227.332 668.239L227.376 664.899Z" fill="white"/>
<path d="M214.497 678.019L203.084 677.888L203.04 681.227L214.453 681.359L214.497 678.019Z" fill="white"/>
<path d="M98.4776 289.36C96.3016 289.36 94.3923 288.891 92.7496 287.952C91.1283 287.013 89.8803 285.669 89.0056 283.92C88.1309 282.171 87.6936 280.123 87.6936 277.776C87.6936 275.429 88.1309 273.392 89.0056 271.664C89.8803 269.915 91.1283 268.571 92.7496 267.632C94.3923 266.693 96.3016 266.224 98.4776 266.224C99.8856 266.224 101.208 266.437 102.446 266.864C103.683 267.269 104.782 267.867 105.742 268.656C106.019 268.869 106.211 269.093 106.318 269.328C106.424 269.563 106.478 269.851 106.478 270.192C106.478 270.661 106.35 271.056 106.094 271.376C105.838 271.696 105.528 271.856 105.166 271.856C104.739 271.856 104.302 271.707 103.854 271.408C102.936 270.725 102.083 270.256 101.294 270C100.504 269.723 99.6296 269.584 98.6696 269.584C96.4509 269.584 94.7656 270.277 93.6136 271.664C92.4829 273.051 91.9176 275.088 91.9176 277.776C91.9176 280.485 92.4829 282.533 93.6136 283.92C94.7656 285.307 96.4509 286 98.6696 286C99.5869 286 100.43 285.861 101.198 285.584C101.987 285.307 102.872 284.837 103.854 284.176C104.067 284.048 104.28 283.941 104.494 283.856C104.707 283.771 104.931 283.728 105.166 283.728C105.528 283.728 105.838 283.888 106.094 284.208C106.35 284.528 106.478 284.923 106.478 285.392C106.478 285.712 106.424 286 106.318 286.256C106.211 286.491 106.019 286.715 105.742 286.928C104.782 287.717 103.683 288.325 102.446 288.752C101.208 289.157 99.8856 289.36 98.4776 289.36Z" fill="#002D42"/>
<path d="M119.727 289.36C117.53 289.36 115.62 288.891 113.999 287.952C112.399 287.013 111.162 285.669 110.287 283.92C109.412 282.171 108.975 280.123 108.975 277.776C108.975 275.429 109.402 273.392 110.255 271.664C111.13 269.915 112.378 268.571 113.999 267.632C115.62 266.693 117.53 266.224 119.727 266.224C121.924 266.224 123.823 266.693 125.423 267.632C127.044 268.571 128.282 269.915 129.135 271.664C130.01 273.392 130.447 275.429 130.447 277.776C130.447 280.123 130.01 282.171 129.135 283.92C128.26 285.669 127.012 287.013 125.391 287.952C123.791 288.891 121.903 289.36 119.727 289.36ZM119.727 286.064C121.796 286.064 123.407 285.349 124.559 283.92C125.732 282.491 126.319 280.443 126.319 277.776C126.319 275.109 125.732 273.072 124.559 271.664C123.407 270.235 121.796 269.52 119.727 269.52C117.636 269.52 116.004 270.235 114.831 271.664C113.679 273.072 113.103 275.109 113.103 277.776C113.103 280.443 113.679 282.491 114.831 283.92C116.004 285.349 117.636 286.064 119.727 286.064Z" fill="#002D42"/>
<path d="M151.032 267.408C151.374 266.683 151.939 266.32 152.728 266.32C153.262 266.32 153.742 266.491 154.168 266.832C154.595 267.173 154.808 267.6 154.808 268.112C154.808 268.347 154.744 268.613 154.616 268.912L145.752 287.984C145.56 288.389 145.262 288.709 144.856 288.944C144.472 289.157 144.056 289.264 143.608 289.264C143.16 289.264 142.734 289.157 142.328 288.944C141.944 288.709 141.656 288.389 141.464 287.984L132.632 268.912C132.504 268.613 132.44 268.357 132.44 268.144C132.44 267.611 132.654 267.173 133.08 266.832C133.528 266.491 134.03 266.32 134.584 266.32C134.947 266.32 135.278 266.416 135.576 266.608C135.896 266.779 136.142 267.045 136.312 267.408L143.672 283.76L151.032 267.408Z" fill="#002D42"/>
<path d="M160.108 289.264C159.489 289.264 158.988 289.072 158.604 288.688C158.241 288.304 158.06 287.803 158.06 287.184V268.4C158.06 267.781 158.241 267.291 158.604 266.928C158.988 266.544 159.489 266.352 160.108 266.352C160.748 266.352 161.249 266.544 161.612 266.928C161.996 267.291 162.188 267.781 162.188 268.4V287.184C162.188 287.803 161.996 288.304 161.612 288.688C161.249 289.072 160.748 289.264 160.108 289.264Z" fill="#002D42"/>
<path d="M170.044 289.072C169.425 289.072 168.935 288.901 168.572 288.56C168.231 288.219 168.06 287.739 168.06 287.12V268.464C168.06 267.845 168.231 267.365 168.572 267.024C168.935 266.683 169.425 266.512 170.044 266.512H176.38C180.071 266.512 182.929 267.504 184.956 269.488C187.004 271.451 188.028 274.213 188.028 277.776C188.028 281.36 187.004 284.144 184.956 286.128C182.929 288.091 180.071 289.072 176.38 289.072H170.044ZM176.124 285.712C181.308 285.712 183.9 283.067 183.9 277.776C183.9 272.507 181.308 269.872 176.124 269.872H172.188V285.712H176.124Z" fill="#002D42"/>
<path d="M208.681 289.36C207.038 289.36 205.481 289.147 204.009 288.72C202.558 288.272 201.374 287.675 200.457 286.928C199.966 286.565 199.721 286.053 199.721 285.392C199.721 284.944 199.849 284.56 200.105 284.24C200.382 283.899 200.702 283.728 201.065 283.728C201.449 283.728 201.886 283.877 202.377 284.176C203.294 284.837 204.254 285.317 205.257 285.616C206.259 285.915 207.369 286.064 208.585 286.064C210.142 286.064 211.337 285.797 212.169 285.264C213.001 284.709 213.417 283.909 213.417 282.864C213.417 282.053 213.022 281.435 212.233 281.008C211.465 280.56 210.174 280.133 208.361 279.728C206.483 279.323 204.958 278.853 203.785 278.32C202.611 277.787 201.726 277.104 201.129 276.272C200.531 275.44 200.233 274.384 200.233 273.104C200.233 271.781 200.606 270.597 201.353 269.552C202.099 268.507 203.134 267.696 204.457 267.12C205.801 266.523 207.305 266.224 208.969 266.224C212.019 266.224 214.505 267.035 216.425 268.656C216.702 268.891 216.894 269.125 217.001 269.36C217.129 269.573 217.193 269.851 217.193 270.192C217.193 270.64 217.054 271.035 216.777 271.376C216.521 271.696 216.211 271.856 215.849 271.856C215.635 271.856 215.433 271.824 215.241 271.76C215.07 271.696 214.835 271.579 214.537 271.408C213.662 270.768 212.809 270.299 211.977 270C211.166 269.68 210.163 269.52 208.969 269.52C207.518 269.52 206.366 269.819 205.513 270.416C204.681 270.992 204.265 271.803 204.265 272.848C204.265 273.723 204.638 274.395 205.385 274.864C206.131 275.333 207.401 275.771 209.193 276.176C211.091 276.603 212.627 277.083 213.801 277.616C214.995 278.128 215.902 278.789 216.521 279.6C217.161 280.411 217.481 281.424 217.481 282.64C217.481 283.963 217.107 285.136 216.361 286.16C215.635 287.163 214.601 287.952 213.257 288.528C211.934 289.083 210.409 289.36 208.681 289.36Z" fill="#002D42"/>
<path d="M230.079 273.04C233.748 273.04 235.583 275.184 235.583 279.472V287.344C235.583 287.941 235.402 288.411 235.039 288.752C234.698 289.093 234.218 289.264 233.599 289.264C232.98 289.264 232.49 289.093 232.127 288.752C231.764 288.411 231.583 287.941 231.583 287.344V279.472C231.583 278.341 231.348 277.52 230.879 277.008C230.431 276.475 229.716 276.208 228.735 276.208C227.583 276.208 226.655 276.571 225.951 277.296C225.268 278.021 224.927 278.992 224.927 280.208V287.344C224.927 287.941 224.746 288.411 224.383 288.752C224.02 289.093 223.53 289.264 222.911 289.264C222.292 289.264 221.802 289.093 221.439 288.752C221.098 288.411 220.927 287.941 220.927 287.344V268.208C220.927 267.653 221.108 267.205 221.471 266.864C221.855 266.523 222.346 266.352 222.943 266.352C223.54 266.352 224.02 266.512 224.383 266.832C224.746 267.152 224.927 267.589 224.927 268.144V275.6C225.46 274.768 226.164 274.139 227.039 273.712C227.935 273.264 228.948 273.04 230.079 273.04Z" fill="#002D42"/>
<path d="M241.63 289.264C241.054 289.264 240.574 289.104 240.19 288.784C239.827 288.443 239.646 287.963 239.646 287.344V274.992C239.646 274.373 239.827 273.904 240.19 273.584C240.574 273.264 241.054 273.104 241.63 273.104C242.206 273.104 242.686 273.264 243.07 273.584C243.454 273.904 243.646 274.373 243.646 274.992V287.344C243.646 287.963 243.454 288.443 243.07 288.784C242.686 289.104 242.206 289.264 241.63 289.264ZM241.63 270.256C240.904 270.256 240.328 270.064 239.902 269.68C239.475 269.275 239.262 268.752 239.262 268.112C239.262 267.472 239.475 266.96 239.902 266.576C240.328 266.192 240.904 266 241.63 266C242.334 266 242.899 266.192 243.326 266.576C243.774 266.96 243.998 267.472 243.998 268.112C243.998 268.752 243.784 269.275 243.358 269.68C242.931 270.064 242.355 270.256 241.63 270.256Z" fill="#002D42"/>
<path d="M260.155 284.784C260.517 284.784 260.805 284.923 261.019 285.2C261.253 285.477 261.371 285.851 261.371 286.32C261.371 286.981 260.976 287.536 260.187 287.984C259.461 288.389 258.64 288.72 257.723 288.976C256.805 289.211 255.931 289.328 255.099 289.328C252.581 289.328 250.587 288.603 249.115 287.152C247.643 285.701 246.907 283.717 246.907 281.2C246.907 279.6 247.227 278.181 247.867 276.944C248.507 275.707 249.403 274.747 250.555 274.064C251.728 273.381 253.051 273.04 254.523 273.04C255.931 273.04 257.157 273.349 258.203 273.968C259.248 274.587 260.059 275.461 260.635 276.592C261.211 277.723 261.499 279.056 261.499 280.592C261.499 281.509 261.093 281.968 260.283 281.968H250.843C250.971 283.44 251.387 284.528 252.091 285.232C252.795 285.915 253.819 286.256 255.163 286.256C255.845 286.256 256.443 286.171 256.955 286C257.488 285.829 258.085 285.595 258.747 285.296C259.387 284.955 259.856 284.784 260.155 284.784ZM254.619 275.856C253.531 275.856 252.656 276.197 251.995 276.88C251.355 277.563 250.971 278.544 250.843 279.824H258.075C258.032 278.523 257.712 277.541 257.115 276.88C256.517 276.197 255.685 275.856 254.619 275.856Z" fill="#002D42"/>
<path d="M266.755 289.264C266.179 289.264 265.699 289.104 265.315 288.784C264.952 288.443 264.771 287.963 264.771 287.344V268.24C264.771 267.621 264.952 267.152 265.315 266.832C265.699 266.512 266.179 266.352 266.755 266.352C267.331 266.352 267.811 266.512 268.195 266.832C268.579 267.152 268.771 267.621 268.771 268.24V287.344C268.771 287.963 268.579 288.443 268.195 288.784C267.811 289.104 267.331 289.264 266.755 289.264Z" fill="#002D42"/>
<path d="M285.952 266.352C286.549 266.352 287.04 266.523 287.424 266.864C287.808 267.205 288 267.653 288 268.208V287.344C288 287.92 287.818 288.379 287.456 288.72C287.093 289.061 286.613 289.232 286.016 289.232C285.418 289.232 284.938 289.061 284.576 288.72C284.213 288.379 284.032 287.92 284.032 287.344V286.544C283.562 287.419 282.88 288.101 281.984 288.592C281.109 289.083 280.106 289.328 278.976 289.328C277.632 289.328 276.426 288.987 275.36 288.304C274.314 287.621 273.493 286.661 272.896 285.424C272.32 284.165 272.032 282.725 272.032 281.104C272.032 279.483 272.32 278.064 272.896 276.848C273.493 275.632 274.314 274.693 275.36 274.032C276.405 273.371 277.61 273.04 278.976 273.04C280.106 273.04 281.109 273.275 281.984 273.744C282.858 274.213 283.53 274.875 284 275.728V268.144C284 267.611 284.17 267.184 284.512 266.864C284.874 266.523 285.354 266.352 285.952 266.352ZM280.032 286.224C281.312 286.224 282.293 285.787 282.976 284.912C283.68 284.037 284.032 282.789 284.032 281.168C284.032 279.547 283.68 278.309 282.976 277.456C282.293 276.581 281.322 276.144 280.064 276.144C278.784 276.144 277.792 276.571 277.088 277.424C276.384 278.277 276.032 279.504 276.032 281.104C276.032 282.725 276.384 283.984 277.088 284.88C277.792 285.776 278.773 286.224 280.032 286.224Z" fill="#002D42"/>
<path d="M187 151L147 161V191C147 221 187 241 187 241C187 241 227 221 227 191V161L187 151Z" fill="#15A3A6"/>
<path fill-rule="evenodd" clip-rule="evenodd" d="M172 191C172 182.716 178.716 176 187 176C192.461 176 197.241 178.919 199.864 183.281L208.441 178.136C204.068 170.865 196.102 166 187 166C173.193 166 162 177.193 162 191C162 204.807 173.193 216 187 216C196.102 216 204.068 211.135 208.441 203.864L199.864 198.719C197.241 203.081 192.461 206 187 206C178.716 206 172 199.284 172 191Z" fill="white"/>
</g>
<defs>
<linearGradient id="paint0_linear" x1="186.878" y1="679.819" x2="191.434" y2="687.123" gradientUnits="userSpaceOnUse">
<stop stop-color="#116A7D"/>
<stop offset="1" stop-color="white"/>
</linearGradient>
<clipPath id="clip0">
<rect width="375" height="812" fill="white"/>
</clipPath>
<clipPath id="clip1">
<rect x="293.5" y="16.6" width="68" height="13" fill="white"/>
</clipPath>
</defs>
</svg>
