<?xml version="1.0" encoding="UTF-8" standalone="no"?>
<svg
   xmlns:dc="http://purl.org/dc/elements/1.1/"
   xmlns:cc="http://creativecommons.org/ns#"
   xmlns:rdf="http://www.w3.org/1999/02/22-rdf-syntax-ns#"
   xmlns:svg="http://www.w3.org/2000/svg"
   xmlns="http://www.w3.org/2000/svg"
   xmlns:xlink="http://www.w3.org/1999/xlink"
   xmlns:sodipodi="http://sodipodi.sourceforge.net/DTD/sodipodi-0.dtd"
   xmlns:inkscape="http://www.inkscape.org/namespaces/inkscape"
   inkscape:version="1.0rc1 (09960d6, 2020-04-09)"
   sodipodi:docname="Flag_of_Nova_Scotia.svg"
   id="svg52"
   version="1.1"
   viewBox="-4800 -2400 9600 4800"
   height="600"
   width="1200">
  <metadata
     id="metadata56">
    <rdf:RDF>
      <cc:Work
         rdf:about="">
        <dc:format>image/svg+xml</dc:format>
        <dc:type
           rdf:resource="http://purl.org/dc/dcmitype/StillImage" />
      </cc:Work>
    </rdf:RDF>
  </metadata>
  <sodipodi:namedview
     inkscape:document-rotation="0"
     inkscape:current-layer="g8812"
     inkscape:window-maximized="0"
     inkscape:window-y="0"
     inkscape:window-x="0"
     inkscape:cy="-364.07526"
     inkscape:cx="-454.69741"
     inkscape:zoom="0.17206713"
     showgrid="false"
     id="namedview54"
     inkscape:window-height="768"
     inkscape:window-width="1366"
     inkscape:pageshadow="2"
     inkscape:pageopacity="0"
     guidetolerance="10"
     gridtolerance="10"
     objecttolerance="10"
     borderopacity="1"
     bordercolor="#666666"
     pagecolor="#ffffff" />
  <title
     id="title2">Flag of Nova Scotia</title>
  <defs
     id="defs10">
    <path
       d="m-4800-2400h9600v4800h-9600z"
       id="f" />
    <path
       style="fill:none"
       inkscape:connector-curvature="0"
       d="M -677,-897 V 182 c 0,145 61,261 159,363 98,103 234,184 343,228 0,0 111.134747,45.91504 175,46 63.425316,0.0844 174,-45 174,-45 C 282.6824,725.90492 420,648 518,545 616,443 677,327 677,182 V -897 Z"
       id="s" />
    <path
       d="m30-96c19-38 74-47 91-17 19 34-16 55-30 60 14-34-45-67-59 4-9 45 9 112 40 155-23-6-48-21-56-40 3 34-9 49-16 62-7-13-19-28-16-62-8 19-33 34-56 40 31-43 49-110 40-155-14-71-73-38-59-4-14-5-49-26-30-60 17-30 72-21 91 17-11-38 8-93 30-114 22 21 41 76 30 114z"
       id="d" />
    <clipPath
       id="c">
      <use
         id="use7"
         xlink:href="#f" />
    </clipPath>
  </defs>
  <style
     type="text/css"
     id="style41795">
	.st0{fill:#FFE25C;stroke:#937901;stroke-width:2;}
	.st1{fill:#E94545;stroke:#800000;}
	.st2{fill:#E94545;stroke:#800000;stroke-width:1;}
	.st3{fill:#CD0707;stroke:#800000;}
	.st4{fill:#E94545;}
	.st5{fill:#EE6C6C;}
	.st6{fill:#CD0707;}
	.st7{fill:none;stroke:#800000;}
	.st8{fill:#377BC8;stroke:#2C5AA0;}
	.st9{fill:#FFFFFF;}
	.st10{fill:#2B2200;}
	.st11{fill:#9C0000;}
	.st12{fill:#377BC8;stroke:#2C5AA0;stroke-width:1;}
</style>
  <style
     type="text/css"
     id="style41865">
	.st0{fill:#FFE25C;stroke:#937901;stroke-width:2;}
	.st1{fill:#E94545;stroke:#800000;}
	.st2{fill:#E94545;stroke:#800000;stroke-width:1;}
	.st3{fill:#CD0707;stroke:#800000;}
	.st4{fill:#E94545;}
	.st5{fill:#EE6C6C;}
	.st6{fill:#CD0707;}
	.st7{fill:none;stroke:#800000;}
	.st8{fill:#377BC8;stroke:#2C5AA0;}
	.st9{fill:#FFFFFF;}
	.st10{fill:#2B2200;}
	.st11{fill:#9C0000;}
	.st12{fill:#377BC8;stroke:#2C5AA0;stroke-width:1;}
</style>
  <g
     style="stroke-width:1.834212;stroke-miterlimit:4;stroke-dasharray:none"
     id="layer1"
     transform="matrix(4.361546,0,0,4.361546,-2730.3278,-1191.5648)">
	<g
   style="stroke-width:1.62805917;stroke-miterlimit:4;stroke-dasharray:none"
   id="g11618-9-0-2"
   transform="matrix(1.1266249,0,0,1.1266249,186.79382,233.42356)">
	</g>

	<g
   style="stroke-width:1.834212;stroke-miterlimit:4;stroke-dasharray:none"
   id="g13998">
	</g>

	<g
   style="stroke-width:1.834212;stroke-miterlimit:4;stroke-dasharray:none"
   id="g16963-90-4"
   transform="rotate(-36.865862,1937.4903,-1138.5906)">
	</g>

	<g
   style="stroke-width:1.834212;stroke-miterlimit:4;stroke-dasharray:none"
   id="g8812">
		
		
		
		
		
		
		
		
		
		
		
		
		
		
		
		
		
		
		
		
		
			
		
		
		
		<g
   id="g41992">
  <use
     transform="matrix(0.2292765,0,0,0.2292765,626,273.19781)"
     xlink:href="#f"
     fill="#fff"
     id="use12" />
  <path
     transform="matrix(0.2292765,0,0,0.2292765,626,273.19781)"
     clip-path="url(#c)"
     fill="none"
     stroke="#0047b6"
     stroke-width="960"
     d="m-4800-2400 9600 4800m-9600 0 9600-4800"
     id="path14" />
  <g
     id="g41960"
     transform="translate(0,-0.04345625)">
    <path
       style="stroke:#7a6000;stroke-width:3.66842;stroke-miterlimit:4;stroke-dasharray:none;stroke-opacity:1"
       inkscape:connector-curvature="0"
       id="path8124"
       class="st0"
       d="m 797.42555,395.69404 c 29.56308,-40.25827 32.79181,-91.61527 33.8008,-157.60252 V 32.865202 H 626 420.77366 V 238.09152 c 1.009,65.88632 4.23775,117.34425 33.80085,157.60252 35.61692,48.43102 94.84397,83.44255 171.42549,117.74788 76.68242,-34.30533 135.90949,-69.21599 171.42555,-117.74788 z" />
    <path
       style="stroke-width:1.83421;stroke-miterlimit:4;stroke-dasharray:none"
       inkscape:connector-curvature="0"
       id="path39862-0-2-4-44"
       class="st1"
       d="m 625.6,41.4 c -1.1,1.9 -4.5,4.7 -4.1,9.7 -2.3,-3 -4.5,-3.4 -8.1,-4.3 0,0 2.6,5.1 4,8.3 0.8,1.8 1.9,5.1 1.9,5.1 h 12.5 c 0.6,-1.7 1.2,-3.4 1.9,-5.1 1.3,-3.2 4,-8.3 4,-8.3 -3.6,0.9 -5.8,1.3 -8.1,4.3 0.5,-4.9 -2.8,-7.8 -4,-9.7 z m -159.5,1.5 c -2.5,0 -5.1,0.8 -7.1,2.6 -2.9,2.5 -5.2,8.5 -4.1,17.1 4.3,-8.7 7.9,-11.3 11.1,-11.5 2,-0.1 4.7,0.4 6.5,1.9 3.7,3 4.2,5 8.2,6.3 2.4,0.7 5,0.2 8,-3 -9.9,1.9 -10.2,-7.1 -16,-11.3 -1.6,-1.4 -4,-2.1 -6.6,-2.1 z m 319,0 c -2.5,0 -5,0.7 -6.7,1.9 -5.8,4.3 -6.1,13.3 -16,11.3 3,3.2 5.6,3.8 8,3 4,-1.2 4.5,-3.3 8.2,-6.3 1.8,-1.5 4.5,-2 6.5,-1.9 3.2,0.2 6.8,2.7 11.1,11.5 1.1,-8.6 -1.3,-14.5 -4.1,-17.1 -1.9,-1.5 -4.5,-2.3 -7,-2.4 z M 448.5,64.2 c -6.1,0.1 -10.5,2.1 -12.5,4.4 -3.5,3.9 -3.1,10.4 -0.6,13.7 4.3,5.8 13.3,6.1 11.3,16 3.2,-3 3.8,-5.6 3,-8 -1.2,-4 -3.3,-4.5 -6.3,-8.2 -1.5,-1.8 -2,-4.5 -1.8,-6.5 0.2,-3.2 2.7,-6.8 11.5,-11.1 -1.6,-0.3 -3.2,-0.3 -4.6,-0.3 z m 354.2,0 c -1.4,0 -2.9,0.1 -4.5,0.3 8.7,4.3 11.3,7.9 11.5,11.1 0.1,2 -0.4,4.7 -1.9,6.5 -3,3.7 -5,4.2 -6.3,8.2 -0.7,2.4 -0.2,5 3,8 -1.9,-9.9 7.1,-10.2 11.3,-16 2.5,-3.4 2.8,-9.8 -0.6,-13.7 -2,-2.3 -6.3,-4.3 -12.5,-4.4 z m -320.6,26.9 0.2,9 c 0.8,1.6 1.5,3.1 2.2,4.7 1.3,3.1 2.9,8.4 2.9,8.4 1.8,-3.1 3.1,-4.8 2.6,-8.4 3.1,3.7 7.3,3.3 9.4,3.8 -0.5,-2.1 -0.2,-6.3 -3.8,-9.4 3.6,0.5 5.3,-0.8 8.4,-2.6 0,0 -5.3,-1.7 -8.4,-2.9 -1.7,-0.7 -4.7,-2.2 -4.7,-2.2 0,0 -8.8,-0.4 -8.8,-0.4 z m 287,0 -8.7,0.5 c 0,0 -3,1.5 -4.7,2.2 -3.1,1.2 -8.4,2.9 -8.4,2.9 3.1,1.8 4.8,3.1 8.4,2.6 -3.7,3.1 -3.3,7.3 -3.8,9.4 2.1,-0.5 6.3,-0.2 9.4,-3.8 -0.5,3.6 0.8,5.3 2.6,8.4 0,0 1.7,-5.3 2.9,-8.4 0.7,-1.6 1.4,-3.2 2.2,-4.7 z m -174.4,1.3 c -1.7,0.1 -3.6,0.8 -5.8,2.6 10.5,-0.6 9.5,8.7 14.9,13.9 3.1,3 9.7,4.3 14.3,1.2 3.3,-2.2 6.6,-8.1 6.6,-17 -5.7,8.4 -9.7,10.6 -13,10.3 -2.1,-0.2 -4.8,-1 -6.5,-2.8 -3.4,-3.6 -3.7,-5.8 -7.6,-7.6 -1,-0.4 -1.9,-0.7 -2.9,-0.6 z m 61.9,0 c -1,0 -2,0.2 -2.9,0.6 -4,1.8 -4.2,4 -7.6,7.6 -1.7,1.8 -4.4,2.6 -6.5,2.8 -3.3,0.3 -7.4,-1.9 -13,-10.3 0.1,9 3.3,14.8 6.6,17 4.5,3 11.1,1.8 14.3,-1.2 5.4,-5.2 4.4,-14.5 14.9,-13.9 -2.2,-1.8 -4.1,-2.6 -5.8,-2.6 z M 486,191.6 c -2.9,3.5 -3.1,6.3 -2,8.7 1.8,4 4,4.2 7.6,7.6 1.8,1.7 2.6,4.4 2.8,6.5 0.3,3.3 -1.9,7.4 -10.3,13 9,-0.1 14.8,-3.3 17,-6.6 3,-4.5 1.8,-11.1 -1.2,-14.3 -5.2,-5.4 -14.5,-4.4 -13.9,-14.9 z m 279.2,0 c 0.6,10.5 -8.7,9.5 -13.9,14.9 -3,3.1 -4.3,9.7 -1.2,14.3 2.2,3.3 8.1,6.6 17,6.6 -8.4,-5.7 -10.6,-9.7 -10.3,-13 0.2,-2.1 1,-4.8 2.8,-6.5 3.6,-3.4 5.8,-3.7 7.6,-7.6 1.1,-2.4 0.9,-5.2 -2,-8.7 z m -327.3,24.6 c 0.9,3.6 1.3,5.8 4.3,8.1 -5,-0.4 -7.8,2.9 -9.7,4.1 1.9,1.1 4.7,4.5 9.7,4.1 -3,2.3 -3.4,4.5 -4.3,8.1 0,0 5.1,-2.6 8.3,-4 1.8,-0.8 5.1,-1.9 5.1,-1.9 v -12.5 c -1.7,-0.6 -3.4,-1.2 -5.1,-1.9 -3.2,-1.4 -8.3,-4.1 -8.3,-4.1 z m 375.5,0 c 0,0 -5.1,2.7 -8.3,4 -1.7,0.7 -3.4,1.3 -5.1,1.9 v 12.5 c 0,0 3.3,1.1 5.1,1.9 3.2,1.4 8.3,4 8.3,4 -0.9,-3.6 -1.3,-5.8 -4.3,-8.1 5,0.4 7.8,-2.9 9.7,-4.1 -1.9,-1.1 -4.7,-4.5 -9.7,-4.1 3,-2.2 3.3,-4.4 4.3,-8 z m -329.3,13.1 c 8.4,5.7 10.6,9.7 10.3,13 -0.2,2.1 -1,4.8 -2.8,6.5 -3.6,3.4 -5.8,3.7 -7.6,7.6 -1.1,2.4 -0.9,5.2 2,8.7 -0.6,-10.5 8.7,-9.5 13.9,-14.9 3,-3.1 4.3,-9.7 1.2,-14.3 -2.2,-3.2 -8,-6.5 -17,-6.6 z m 283,0 c -9,0.1 -14.8,3.3 -17,6.6 -3,4.5 -1.8,11.1 1.2,14.3 5.2,5.4 14.5,4.4 13.9,14.9 2.9,-3.5 3.1,-6.3 2,-8.7 -1.8,-4 -4,-4.2 -7.6,-7.6 -1.8,-1.7 -2.6,-4.4 -2.8,-6.5 -0.3,-3.3 1.9,-7.3 10.3,-13 z M 518.9,349.5 c 0,0 -2,5.4 -3.4,8.6 -0.8,1.6 -4.3,6.7 -5.2,8.3 l 8.4,9.2 c 0,0 5.9,-4.8 7.8,-5.5 3.3,-1.1 8.9,-2.6 8.9,-2.6 -3.1,-2 -4.9,-3.4 -8.6,-3.1 4,-3 3.8,-7.4 4.4,-9.6 -2.2,0.4 -6.6,-0.1 -9.9,3.5 0.5,-3.7 -0.7,-5.5 -2.4,-8.8 z m 213.5,0 c -1.8,3.3 -3,5.1 -2.3,8.9 -3.4,-3.7 -7.7,-3.1 -9.9,-3.5 0.6,2.1 0.5,6.5 4.4,9.6 -3.8,-0.3 -5.5,1.1 -8.6,3.1 0,0 5.6,1.5 8.9,2.6 1.8,0.6 7.8,5.5 7.8,5.5 l 8.4,-9.2 c -0.9,-1.6 -4.5,-6.6 -5.2,-8.3 -1.6,-3.3 -3.5,-8.7 -3.5,-8.7 z m -265.7,14.3 c 7.5,7.4 0,12.9 -0.2,20.4 -0.1,4.4 3.4,10.1 8.7,11.4 3.9,0.9 10.4,-0.6 17.1,-6.6 -10,1.5 -14.4,0 -16.4,-2.7 -1.3,-1.7 -2.5,-4.3 -2.3,-6.7 0.4,-4.9 1.8,-6.6 0.5,-10.7 -0.8,-2.6 -2.9,-4.5 -7.4,-5.1 z m 317.8,0 c -4.5,0.7 -6.5,2.5 -7.3,5.1 -1.3,4.2 0.1,5.8 0.5,10.7 0.2,2.4 -1,5 -2.3,6.7 -2,2.6 -6.4,4.2 -16.4,2.7 6.7,6 13.2,7.5 17.1,6.6 5.3,-1.3 8.8,-7 8.7,-11.4 -0.3,-7.6 -7.8,-13.1 -0.3,-20.4 z m -291,26.5 c -6.6,6.1 -8.7,12.5 -8.1,16.4 0.8,5.4 6.2,9.4 10.5,9.7 7.5,0.5 13.7,-6.5 20.3,1.7 -0.3,-4.5 -1.9,-6.7 -4.4,-7.8 -4,-1.7 -5.8,-0.4 -10.7,-0.5 -2.4,0 -4.9,-1.5 -6.4,-2.9 -2.4,-2.3 -3.6,-6.7 -1.2,-16.6 z m 264.2,0 c 2.4,9.9 1.3,14.3 -1.2,16.6 -1.5,1.4 -4,2.9 -6.4,2.9 -5,0.1 -6.7,-1.2 -10.7,0.5 -2.4,1 -4.1,3.2 -4.4,7.8 6.6,-8.2 12.8,-1.2 20.3,-1.7 4.4,-0.3 9.7,-4.3 10.5,-9.7 0.6,-3.9 -1.5,-10.3 -8.1,-16.4 z m -147.8,22.9 c -0.9,0 -1.8,0.2 -2.5,0.4 -7.2,2.3 -10.4,11.1 -19.6,5.8 1.9,4.1 4.3,5.6 6.9,5.7 4.4,0.1 5.5,-1.7 10.2,-3.4 2.3,-0.8 5.2,-0.6 7.1,0.4 5.4,2.9 12.2,12.6 13.1,18.3 0.2,-0.4 0.4,-0.9 0.5,-1.3 0.2,0.4 0.3,0.9 0.5,1.3 0.9,-5.7 7.7,-15.4 13.1,-18.3 1.8,-1 4.8,-1.2 7.1,-0.4 4.6,1.7 5.8,3.5 10.2,3.4 2.6,-0.1 5,-1.5 6.9,-5.7 -9.1,5.2 -12.4,-3.6 -19.6,-5.8 -4.2,-1.3 -10.6,0.5 -13.3,5.2 -1.1,2 -3.7,6.1 -4.9,10.7 -1.2,-4.6 -3.8,-8.7 -4.9,-10.7 -2.2,-3.8 -6.9,-5.7 -10.8,-5.6 z m 9.5,60.1 c 0,0 -1.1,3.3 -1.9,5.1 -1.4,3.2 -4,8.3 -4,8.3 3.6,-0.9 5.8,-1.3 8.1,-4.3 -0.4,5 2.9,7.8 4.1,9.7 1.1,-1.9 4.5,-4.7 4.1,-9.7 2.3,3 4.5,3.4 8.1,4.3 0,0 -2.7,-5.1 -4,-8.3 -0.7,-1.7 -1.3,-3.4 -1.9,-5.1 z" />
    <path
       style="stroke-width:1.83421;stroke-miterlimit:4;stroke-dasharray:none"
       inkscape:connector-curvature="0"
       id="path34853-2-9-8-45"
       class="st2"
       d="m 435.9,44.4 c -0.3,0 -0.7,0 -1,0 -0.4,10.6 10,18.4 19.5,20.1 l 0.3,-0.3 0.3,-0.3 c -1.7,-9.3 -9,-19.3 -19.1,-19.5 z m 379.5,0 c -10.1,0.3 -17.5,10.3 -19.1,19.5 l 0.3,0.3 0.3,0.3 c 9.5,-1.7 19.8,-9.4 19.5,-20.1 -0.4,0 -0.7,0 -1,0 z M 625.2,92.8 c -5.8,8.2 -7.7,21.6 0.5,29.1 8.1,-7.5 6.2,-20.9 0.5,-29.1 h -0.5 z M 498.7,222.9 c -5.3,0.2 -10.7,2.1 -14.8,5 v 0.5 0.5 c 8.2,5.8 21.6,7.7 29.1,-0.5 -3.8,-4.1 -9,-5.6 -14.3,-5.5 z m 253.8,0 c -5.3,-0.2 -10.5,1.4 -14.3,5.4 7.5,8.1 20.9,6.2 29.1,0.5 v -0.5 -0.5 c -4.1,-2.8 -9.4,-4.7 -14.8,-4.9 z M 492.8,389.1 c -10,1.3 -21.1,8.9 -21.2,20 11,0.9 19.6,-9.5 21.8,-19.3 l -0.3,-0.3 z m 265.7,0 -0.3,0.3 -0.3,0.3 c 2.2,9.8 10.8,20.2 21.8,19.3 -0.1,-11 -11.3,-18.6 -21.2,-19.9 z m -132.9,22.5 c -8.1,7.5 -6.2,20.9 -0.5,29.1 h 0.5 0.5 c 5.7,-8.2 7.6,-21.6 -0.5,-29.1 z" />
    <path
       style="stroke-width:1.83421;stroke-miterlimit:4;stroke-dasharray:none"
       inkscape:connector-curvature="0"
       id="path16120"
       class="st1"
       d="m 450.4,59.6 -0.1,4.9 c -0.6,56.7 -0.6,113.3 0.2,170 1,64.6 4.9,108.4 28.1,140 28.4,38.7 77.9,70.1 144.8,101.4 l 2.1,1 2.1,-1 c 66.9,-31.2 116.4,-62.7 144.8,-101.4 23.2,-31.6 27.1,-75.3 28.1,-140 0.8,-56.7 0.8,-113.4 0.2,-170 l -0.1,-4.9 h -4.9 -340.3 z m 9.9,10 h 330.6 c 0.5,54.9 0.5,109.9 -0.3,164.8 -1,64.3 -5.3,105.8 -26.1,134.2 -26.3,35.9 -73.7,66.6 -138.9,97.2 C 560.4,435.2 513.1,404.5 486.7,368.6 465.8,340.2 461.5,298.7 460.6,234.4 459.8,179.5 459.8,124.5 460.3,69.6 Z m 12.1,12.2 v 5 c -0.3,49.1 -0.3,98.3 0.4,147.5 1,64.1 5.4,102.1 23.8,127.1 23.5,32.1 66.3,60.8 126.9,90 l 2.2,1.1 2.2,-1.1 c 60.5,-29.1 103.3,-57.9 126.9,-90 18.4,-25 22.8,-63 23.8,-127.1 0.7,-49.2 0.8,-98.3 0.4,-147.5 v -5 h -5 -296.6 z m 10,10 h 286.4 c 0.3,47.4 0.3,94.9 -0.4,142.3 -1,63.7 -5.9,99.7 -21.8,121.3 -21.5,29.3 -62.3,57.4 -121,85.8 -58.7,-28.4 -99.5,-56.5 -121,-85.8 -15.9,-21.7 -20.9,-57.7 -21.8,-121.3 -0.7,-47.4 -0.7,-94.9 -0.4,-142.3 z" />
    <path
       style="stroke-width:1.83421;stroke-miterlimit:4;stroke-dasharray:none"
       inkscape:connector-curvature="0"
       id="path42187-6-75"
       class="st3"
       d="m 549.5,311.7 5.1,12 c 0,0 8.2,-1 12.2,-2.2 5.5,-1.7 14.1,-6.8 14.1,-6.8 3.9,-2.1 -4.8,-8.3 -7.8,-11.6 -2.3,-2.6 -3.9,-5.9 -3.9,-5.9 -2.3,-3.8 5.8,-9.5 11.6,-13.4 7.5,-5 16.2,-9.7 24,-11.1 13.4,-2.4 45.1,-6.3 45.1,-6.3 l 3.2,11.8 -7.3,17.3 -11,7.7 c 2.1,2.4 -15.9,1 -29.8,0.6 -4.4,-0.1 0.8,13.1 0.8,13.1 0,0 3.4,2.6 4.8,4.7 1.3,2.1 2,4.4 1,6.6 -1.1,2.2 -4.2,3.2 -6.9,3.7 -2.6,0.5 -6.3,-1.1 -6.3,-1.1 1.1,1.9 2.2,3.9 1.9,6 -0.4,3.7 -8,8.2 -8,8.2 0,0 1.5,-3.7 1,-5.4 -0.6,-2.1 -2.9,-4.6 -2.9,-4.6 0,0 -0.3,3 -0.9,4.5 -1.6,4.1 -10.4,8.1 -10.4,8.1 0,0 1.9,-4.2 1.9,-6.4 0,-2.2 -2.4,-4.3 -2.4,-4.3 0,0 -0.8,3.5 -2.5,5.6 -2,2.6 -8.2,5.4 -8.2,5.4 0,0 1.3,-3.4 1.4,-5.3 0.1,-1.7 -0.8,-5.2 -0.8,-5.2 0,0 -3.5,5.7 -5.7,7.6 -2.6,2.4 -8.2,4.1 -8.2,4.1 0,0 3.3,-5.9 2.2,-8.7 -1.1,-2.7 -8.3,-4.3 -8.3,-4.3 0,0 -7.8,3.7 -12.7,4.5 -2.5,0.4 -5.7,0.7 -7.4,-1.1 -2.3,-2.5 -2.6,-4.7 -1.4,-7.9 0.6,-1.6 4.7,-4 4.7,-4 0,0 -3.1,-1.8 -3.9,-2.9 -1.6,-2.1 -1.5,-4.6 -0.4,-7 1.2,-2.5 3.6,-3.3 6.3,-3.3 2,0 5.4,2.5 5.4,2.5 0,0 0.9,-6.6 3.5,-7.8 2.8,-1.1 6.9,2.6 6.9,2.6 z" />
    <path
       style="stroke-width:1.83421;stroke-miterlimit:4;stroke-dasharray:none"
       inkscape:connector-curvature="0"
       id="path42189-8-8"
       class="st4"
       d="m 633.6,297.3 -3,-7.7 c -1,-2.6 4.2,-4.5 4,-7.2 -0.3,-2.9 -1.9,-5.9 -4.5,-7.2 -3.4,-1.7 -18.3,1.5 -22.1,2.1 -5.8,0.9 -11.2,3.4 -16.4,6.2 -5.6,3 -15.4,11.1 -15.4,11.1 0,0 0.7,3.5 1.6,5 3.2,5.2 9.8,7.4 9.6,13.5 -0.1,3.7 -2.6,5.2 -5,7 -5.2,3.8 -10.4,5.2 -16.7,6.5 -4.7,1 -12.8,0.6 -12.8,0.6 0,0 -2.9,-8.9 -5.9,-12.3 -0.7,-0.8 -1.6,-2.1 -2.5,-1.7 -2.4,1.1 -1.1,7.9 -1.1,7.9 0,0 -5.3,-2.6 -8.1,-2.7 -2,-0.1 -3.5,-0.4 -4.3,1.3 -0.5,1 -0.7,2.4 0,3.2 1.8,1.8 8.2,4.9 8.2,4.9 0,0 -6.8,2.5 -8.1,5.3 -0.7,1.4 -1.5,2.8 -0.3,3.9 1.1,0.9 3.2,0.7 4.6,0.5 4.9,-1 14,-5 14,-5 l 11.2,3.8 0.7,4.9 8.1,-9.6 3.6,8.8 3.8,-8.3 7.7,6.3 3.9,-8.7 7.2,6 -1.4,-9.3 c 0,0 6,1.4 9,1.4 1.1,0 2.7,0.4 3.3,-0.5 0.8,-1 0,-2.6 -0.6,-3.8 -0.9,-1.9 -4.3,-4.6 -4.3,-4.6 0,0 -4,-8 -3.4,-12.2 0.4,-2.5 0.9,-5.7 3.4,-6.2 6.6,-1.2 32.9,2.4 32,-3.2 z" />
    <path
       style="stroke-width:1.83421;stroke-miterlimit:4;stroke-dasharray:none"
       inkscape:connector-curvature="0"
       id="path42191-5-42"
       class="st5"
       d="m 610.9,279.7 c 0,0 -9.6,1.9 -13.9,3.9 -6.6,3.1 -17.2,12.8 -17.2,12.8 l 8.8,12 -3.6,-11.8 c 0,0 8,-4.4 11.6,-6.8 5.3,-3.7 14.3,-10.1 14.3,-10.1 z" />
    <path
       style="stroke-width:1.83421;stroke-miterlimit:4;stroke-dasharray:none"
       inkscape:connector-curvature="0"
       id="path13429-8-0-9-5-5-6"
       class="st3"
       d="m 610,224 c 0,0 -6.1,-1.4 -8.2,-3.5 -2.3,-2.3 -4.1,-8.8 -4.1,-8.8 0,0 -6.9,-0.3 -9.9,-1.7 -3.1,-1.5 -6.9,-6.5 -6.9,-6.5 3.2,0.2 5.6,0.2 9,-1.8 0,0 -5.9,-1.6 -9,-3.8 -2.7,-1.9 -6.7,-7 -6.7,-7 2.9,-0.1 5.8,0.6 8.5,-1.8 0,0 -5.8,-1.2 -8.2,-2.8 -2.4,-1.6 -5.8,-6.6 -5.8,-6.6 3.2,0.4 6.4,0.4 9,-1.9 0,0 -5.9,-1.1 -8.2,-2.7 -3.2,-2.2 -7.5,-8.3 -7.5,-8.3 3.4,0.5 6.7,0.9 9.6,-0.6 l -1.1,-4.5 c -1.3,-5.5 -6.3,-4.7 -9.2,-6.8 -2.8,-2 -3.9,-6.1 -3.6,-8.2 0.4,-3.7 3.1,-8.8 10.4,-6 -2.6,-7 2.1,-10.6 6.4,-11.5 4.1,-0.9 7.4,0.3 8.7,7.7 0,0 4.1,-2.3 6,-2.3 2.7,-0.1 5.5,1.5 6,4.4 0.2,1.2 -0.1,3.5 -1,4.7 -1.4,1.9 -3.9,2.9 -5.3,6 -1.5,3.4 0.4,10.4 0.4,10.4 0,0 12.1,15.6 17.5,23.9 2.9,4.4 7.8,13.7 7.8,13.7 l 0.4,-0.1 14.3,3.1 -3.6,26.6 z" />
    <path
       style="stroke-width:1.83421;stroke-miterlimit:4;stroke-dasharray:none"
       inkscape:connector-curvature="0"
       id="path5784-15-1-2-82"
       class="st4"
       d="m 600.2,208.3 c 0,0 2.9,7.1 4.9,8.8 2,1.6 6.3,1.4 6.3,1.4 l -0.8,-3.5 -1.8,-0.4 c -3.6,-7.2 -6.2,-15.3 -3.4,-23.3 0,0 -4.1,-7.6 -6.8,-11.5 -3.5,-5 -13.1,-16.7 -13.1,-16.7 0,0 -1.3,-7.4 -0.8,-12.2 0.2,-2.1 1,-4.2 2.3,-5.9 1.3,-1.7 4,-1.8 4.9,-3.8 0.3,-0.6 0.2,-1.5 -0.1,-2.1 -0.4,-0.7 -1.1,-1.3 -1.8,-1.4 -2.8,-0.4 -8.1,3.1 -8.1,3.1 0,0 -1.8,-6 -4,-7.8 -0.9,-0.7 -2.3,-1 -3.4,-0.7 -1.1,0.2 -2.2,0.9 -2.7,2 -1.6,3.3 0,11.3 0,11.3 0,0 -6.2,-3.2 -9,-2 -1.1,0.5 -1.9,1.9 -2,3.1 -0.1,1.4 0.5,2.9 1.4,3.9 2.4,2.8 9.4,4.9 9.4,4.9 l 6.1,14.1 -9.3,0.8 c 3,2.7 5.5,4 14.6,6 -2.7,3.8 -5.7,4.7 -8.4,6.1 l 14.9,5.8 c -2.1,3.9 -6.2,3.4 -8.4,4.8 3.4,3.7 9.3,6 15.4,8.2 -1.5,3.2 -5.6,3.2 -9,4.2 2.1,1.5 6.2,1.7 12.7,2.8 z" />
    <path
       style="stroke-width:1.83421;stroke-miterlimit:4;stroke-dasharray:none"
       inkscape:connector-curvature="0"
       id="path4316-0-8-5-4-4-3"
       class="st5"
       d="m 603.4,197 c -3.9,-16.7 -14.1,-27.6 -25.1,-38.5 7,17 16.3,28.5 25.1,38.5 z" />
    <path
       style="stroke-width:1.83421;stroke-miterlimit:4;stroke-dasharray:none"
       inkscape:connector-curvature="0"
       id="path5636-6-8-0-10"
       class="st1"
       d="m 656,290.7 c 0,0 -7.3,4.3 -12,2.3 -2,-0.9 -3.9,-2.7 -4.4,-4.9 -0.5,-2.1 0.4,-4.4 1.6,-6.2 0.8,-1.1 6.6,-4.6 6.6,-4.6 0,0 -1.6,-5.3 -3.4,-8.3 -2.8,-4.5 -16.2,-9.1 -16.2,-9.1 5.5,-1.7 11.8,-1.9 18.2,-0.4 l 10.9,13.3 z" />
    <path
       style="stroke-width:1.83421;stroke-miterlimit:4;stroke-dasharray:none"
       inkscape:connector-curvature="0"
       id="path41368-3-0"
       class="st6"
       d="m 656.9,378.1 c 0,0 2.4,-0.6 3.3,0 2.4,1.5 6.3,5.1 6.3,5.1 0,0 1,-4.5 -0.1,-8.1 -0.6,-2.1 -4.2,-5 -4.2,-5 0,0 4.6,-1.2 6.7,0.3 2.1,1.5 4.7,6.7 4.7,6.7 0,0 1,-5.7 0.3,-9.3 -0.5,-2.7 -5.1,-6.6 -5.1,-6.6 0,0 3.8,-0.8 5.4,0 2.8,1.3 6,7.2 6,7.2 0,0 2.4,-7.7 0.6,-12 -0.8,-2 -5.1,-3.9 -5.1,-3.9 0,0 5.9,-1.6 8.1,0 2.7,1.9 3.9,6.6 3.9,6.6 0,0 2.8,-5.7 1.8,-9.9 -0.6,-2.6 -4.8,-6.3 -4.8,-6.3 0,0 3.2,-2.7 4.2,-4.5 0.8,-1.5 1.9,-3.5 1.2,-5.1 -0.7,-1.7 -2.9,-2.4 -4.7,-2.7 -2.2,-0.3 -6.4,1.4 -6.4,1.4 l -2.6,-2.3 c -4.6,-4 -7.1,-10.6 -7.8,-17.1 -0.7,-6.8 4.8,-19.5 4.8,-19.5 0,0 2.5,8.3 6.5,12.9 2.8,3.2 6.7,5.7 10.9,6.6 5.3,1.1 8,1.4 12.8,-1 4.4,-2.2 9.1,-5.8 10.2,-10.5 4.3,-18.7 -1.3,-49 -1,-46.7 0,0 3,-3.9 3.9,-6.6 1.1,-3.2 2,-11.2 2,-11.2 0.7,-2.7 3,-5.1 5.6,-6.3 1.6,-0.7 3.6,-0.6 5.3,0 2.7,1.1 6.2,5.9 6.2,5.9 0,0 -0.3,-7 -2.3,-9.5 -2.1,-2.6 -5.6,-4.4 -8.9,-4.6 -5.1,-0.3 -10.1,1.6 -10.1,1.6 0,0 5.5,-6 8.1,-11.9 2.1,-4.7 2.4,-13.5 2.4,-13.5 0,-6.4 -3.1,-13.6 -7.4,-18.7 -5.5,-6.4 -15.1,-10.8 -15.1,-10.8 0,0 3.5,5.7 5.8,11.3 1.6,3.9 2.1,8.9 2.1,8.9 0,0 -3.2,-3.3 -6.1,-5.6 -3.9,-3.2 -11.6,-3.4 -11.6,-3.4 0,0 6.7,5.3 8.9,11.4 1,2.8 0.9,5.9 0.5,8.8 -0.6,4.6 -3.1,11.3 -4.1,15.8 -1.5,6.3 -3.4,10.1 -3,16.6 0.4,6.5 4.9,19 4.9,19 0,0 -7.5,1 -10.3,2.8 -3.9,2.6 -4.6,10.8 -4.6,10.8 0,0 4.3,-4.4 7,-5 2,-0.5 5.9,2 5.9,2 0,0 -7.7,3.1 -9.8,6.4 -2.1,3.2 -2,9.7 -2,9.7 0,0 2.8,-4 5.4,-5.3 2.2,-1.1 7.4,0 7.4,0 0,0 -7.1,4.3 -8.8,7.9 -1.6,3.2 -1,10.8 -1,10.8 0,0 3.2,-5.3 5.8,-6.7 1.9,-1 4.3,-1.4 6.4,-0.9 1.9,0.4 3.4,1 4.5,2.7 2,3 1.6,7 0,10.8 -1.2,2.8 -2.1,5.2 -4.9,6.4 -3.5,1.4 -7.9,1.7 -11.3,0 -4.2,-2.1 -4.6,-4 -6.4,-8.4 -3.5,-8.3 -3.1,-19.7 -6.4,-28 -2.7,-6.9 -9.2,-11.5 -11.3,-18.7 -2.2,-7.4 0.1,-15.5 -1,-23.1 -0.7,-4.7 -3.3,-12 -3.9,-16.7 -0.5,-3.7 0,-8.4 0,-8.4 l -33.1,-1.7 -17.8,15.8 c 0,0 -6.8,1.9 -10.3,2.1 -8.5,0.5 -18.3,-2.1 -26.7,-2.4 -9.1,-0.4 -26.1,-1 -26.1,-1 l -3.3,-7.3 c -1.2,-2.8 -1.3,-6.1 -4.1,-7.4 -2.1,-1 -5.3,-1.5 -7.1,0 -1.7,1.5 -1,6.8 -1,6.8 0,0 -5.5,-1.2 -7.8,0 -2.5,1.3 -4,2.9 -4.1,5.7 0,3.3 1.8,6.9 4.7,8.5 1.3,0.7 4.4,0.7 4.4,0.7 0,0 -2.7,1.3 -3.4,3.4 -0.9,2.6 0,6.2 2,8.1 2.4,2.3 5,2.1 8.1,1 2.6,-0.9 5.7,-4.7 5.7,-4.7 0,0 4.9,-0.6 6.8,0.7 1.5,1 2.2,3 2.7,4.7 0.3,1.3 0.5,2.8 0,4.1 -1.4,3.4 -7.1,8.6 -7.1,8.6 0,0 5.5,0.4 8,-0.5 5.3,-1.8 12.5,-8.6 12.5,-8.6 0,0 -0.4,3.2 -1.8,5 -1.7,2.3 -6.2,6 -6.2,6 0,0 8.4,-0.9 12.3,-2.8 3.5,-1.7 8.5,-7.9 8.5,-7.9 0,0 -0.1,3 -0.9,4.6 -0.9,1.8 -2.8,6 -2.8,6 0,0 7.6,-1.7 10.9,-3.6 2.6,-1.5 5.7,-6.3 5.7,-6.3 0,0 0.1,3.3 -0.4,5 -0.5,1.6 -2.7,4.8 -2.7,4.8 0,0 7.2,-1.3 10.3,-3 3.2,-1.7 7.6,-7.6 7.6,-7.6 0,0 4.3,-1.1 7,0.5 5.4,3.1 7.8,10.3 14.2,13.7 10.3,5.4 24,8.6 28.4,20.5 1.5,4.1 1.6,6.9 -0.5,10.8 -2.6,4.7 -13.4,10.4 -16.1,15.6 0,0 -4.3,5.9 -5.4,11.7 -0.7,3.7 -0.1,7.8 1.5,11.2 2,4.4 6.1,7.6 9.8,10.8 4.4,3.7 14.7,9.3 14.7,9.3 l 1.7,3.5 c 0,0 -6.5,4.4 -8.9,7.6 -3,3.8 -7.8,12.3 -7.8,12.3 0,0 -3,-3.1 -6.3,-4.4 -2.6,-0.9 -6.2,-1.9 -8.2,0 -1.9,1.8 -2,4 -1.1,6.4 0.9,2.2 3.9,3.9 3.9,3.9 0,0 -2.6,2.4 -3.2,3.9 -0.8,1.9 -0.8,4.4 0.4,6.1 1.5,2.2 4.1,1.9 6.8,2.1 1.9,0.1 5.7,-0.7 5.7,-0.7 0,0 -0.9,2.2 -0.7,3.6 0.2,2.1 0.7,4.6 2.5,5.7 2.4,1.5 6.2,1.3 8.6,-0.4 4.2,-2.8 5.8,-13.1 5.8,-13.1 z" />
    <path
       style="stroke-width:1.83421;stroke-miterlimit:4;stroke-dasharray:none"
       inkscape:connector-curvature="0"
       id="path41979-4-8"
       class="st4"
       d="m 703,169.3 4.7,10.1 2.6,9.4 -7.5,-6.5 -10.4,-2.1 6.8,7.3 2.9,8.1 v 6.5 l -3.4,12.5 -3.4,13.5 v 9.1 l 4.7,12.8 -0.6,-0.7 5.2,7.7 c 0,0 6,-8.4 7.4,-13.3 1.1,-3.9 0.8,-8.1 2.6,-11.8 1.2,-2.4 3.7,-4.2 6.3,-5.2 3,-1.1 4.5,-1.7 7.4,-0.4 3,1.3 6.6,7.4 6.6,7.4 l -0.9,-6.7 -6.5,-4.4 h -11.7 l 5.7,-8.1 3.9,-14.1 -2.1,-12 -9.6,-13 z m -166.6,33.1 c -0.6,0 -1.2,0.1 -1.5,0.5 -1.6,1.6 0,7.1 0,7.1 0,0 -6,-2.2 -9,-0.7 -1.2,0.6 -2.4,1.8 -2.4,3.2 0,1.4 1.3,2.6 2.4,3.4 3,2.2 10.7,3.4 10.7,3.4 0,0 -6.5,2.3 -7.8,5.1 -0.5,1.2 -0.9,3 0,3.9 1.2,1.3 3.6,0.8 5.3,0.2 2.5,-0.8 6.3,-4.9 6.3,-4.9 0,0 7.9,0.1 10.7,2.4 1.9,1.6 2.6,4.4 3.2,6.8 0.4,1.7 0.1,3.4 0,5.1 0,0.9 -0.2,2.7 -0.2,2.7 L 568,229.4 c 1.8,4.4 0.1,8.8 -1.9,13.1 l 13.4,-11.7 c 3,3.9 1.4,7.8 0,11.7 l 12.2,-10.7 c 2.9,3.8 2.1,7 1.2,10.2 0,0 3.3,-1.6 4.9,-2.7 2.9,-2 8,-7.1 8,-7.1 0,0 5,1.3 7.3,2.4 2.7,1.3 7.5,5.1 7.5,5.1 0,0 1.8,-5.3 1,-7.8 -1,-3.2 -5.3,-4.5 -6.8,-7.5 -0.6,-1.2 -0.7,-3.9 -0.7,-3.9 0,0 -3.2,2.3 -5.1,2.4 -2.8,0.3 -5.4,-2.1 -8.3,-2.2 -2.5,-0.1 -7.3,1.2 -7.3,1.2 0,0 -15.8,-2.9 -22.1,-3.6 -9.7,-1.1 -27.2,0 -27.2,0 l -4.6,-12.6 c 0,0 0,-2.1 -1.2,-2.9 -0.7,-0.2 -1.3,-0.4 -1.9,-0.4 z m 114.9,26.8 c 0,0 -1,2.9 -2.6,4.4 -5.6,5.2 -21.5,9.1 -21.5,9.1 0,0 1.3,3.2 2.6,4.4 5.7,5.1 14.7,5 20.8,9.5 3.4,2.5 6.7,5.6 8.4,9.5 2.2,5.1 3.1,11.2 1.5,16.4 -1.9,5.9 -8.3,9.3 -12.1,14.2 -3.2,4.3 -7.2,8.4 -8.8,13.5 -1,3.3 -1.1,5.7 0.4,8.8 4.1,8.4 16,11.3 21.9,18.6 2,2.4 4,8.4 4,8.4 l -13.1,10.6 -7.7,13.5 c 0,0 -5.9,-5.1 -9.5,-6.2 -1.5,-0.5 -3.6,-1.1 -4.7,0 -0.5,0.5 -0.2,1.5 0,2.2 0.8,2.4 4.7,5.8 4.7,5.8 0,0 -4.2,4.5 -2.9,6.6 0.9,1.6 3.7,0.5 5.5,0.4 2.7,-0.2 8,-1.5 8,-1.5 v 5.8 c 0,1.5 -1.2,3.5 0,4.4 1.2,0.9 3.2,-0.4 4.4,-1.5 3.1,-2.9 5.1,-11.7 5.1,-11.7 l 6.2,-0.4 -6.6,-6.9 h 13.1 l -6.9,-9.5 12.8,-0.4 -6.6,-5.8 15.7,-3.7 -4.4,-4.7 c 0,0 6.5,-4.4 5.1,-6.9 -1,-1.8 -6.2,0.4 -6.2,0.4 l -4.4,-2.2 c 0,0 -8.8,-9.8 -10.2,-16.1 -1.1,-4.9 -1,-10.1 0,-15 1.2,-6.3 7.5,-13.1 9.1,-19.4 1.1,-4.3 1.3,-8.8 0.4,-13.1 -0.9,-4.1 -4.7,-7 -6.9,-10.6 -2.2,-3.5 -3.9,-6.7 -5.1,-10.6 -1.7,-5.5 -1.1,-17.2 -1.1,-17.2 z" />
    <path
       style="stroke-width:1.83421;stroke-miterlimit:4;stroke-dasharray:none"
       inkscape:connector-curvature="0"
       id="path4316-0-8-5-4-3-4-0"
       class="st5"
       d="m 697.8,180.2 -4.4,0.3 3.9,4.2 4.9,7.8 0.5,7.5 -3.4,12.5 -4.4,13 v 5.2 c 2.7,8.1 5.4,10.2 8.1,11.4 0,0 -2.1,-5.1 -2.3,-7.8 -0.5,-4.3 0,-8.8 1,-13 0.9,-3.7 3.2,-6.9 4.4,-10.4 1,-2.9 2.5,-5.8 2.6,-8.8 0.2,-5.1 -0.9,-10.4 -3.4,-14.8 -1.6,-3.1 -7.5,-7.1 -7.5,-7.1 z m -138.4,39.2 c -2.8,0 -5.7,0.2 -8.6,0.4 17.7,4.8 32.5,6.1 45.8,5.2 -12.7,-4 -24.8,-5.7 -37.2,-5.6 z m 87.4,19.3 c 0,0 -3.4,2.6 -5.3,3.4 -3,1.3 -9.4,2.3 -9.4,2.3 0,0 2.4,2.2 3.8,3 4.4,2.4 10.3,1.9 14.3,4.9 l 9,6.8 z m 10.6,54.7 c 0,0 -10,7.1 -12.8,13.9 -1.6,3.9 -1.6,7.8 0,11.7 4,9.6 19.2,14.7 19.2,14.7 0,0 -10.9,-6.5 -13.6,-15.1 -1,-3.2 -0.6,-6.8 0,-10.2 1.1,-6 7.2,-15 7.2,-15 z" />
    <path
       style="stroke-width:1.83421;stroke-miterlimit:4;stroke-dasharray:none"
       inkscape:connector-curvature="0"
       id="path41368-8-1-6"
       class="st7"
       d="m 656.9,378.1 c 0,0 2.4,-0.6 3.3,0 2.4,1.5 6.3,5.1 6.3,5.1 0,0 1,-4.5 -0.1,-8.1 -0.6,-2.1 -4.2,-5 -4.2,-5 0,0 4.6,-1.2 6.7,0.3 2.1,1.5 4.7,6.7 4.7,6.7 0,0 1,-5.7 0.3,-9.3 -0.5,-2.7 -5.1,-6.6 -5.1,-6.6 0,0 3.8,-0.8 5.4,0 2.8,1.3 6,7.2 6,7.2 0,0 2.4,-7.7 0.6,-12 -0.8,-2 -5.1,-3.9 -5.1,-3.9 0,0 5.9,-1.6 8.1,0 2.7,1.9 3.9,6.6 3.9,6.6 0,0 2.8,-5.7 1.8,-9.9 -0.6,-2.6 -4.8,-6.3 -4.8,-6.3 0,0 3.2,-2.7 4.2,-4.5 0.8,-1.5 1.9,-3.5 1.2,-5.1 -0.7,-1.7 -2.9,-2.4 -4.7,-2.7 -2.2,-0.3 -6.4,1.4 -6.4,1.4 l -2.6,-2.3 c -4.6,-4 -7.1,-10.6 -7.8,-17.1 -0.7,-6.8 4.8,-19.5 4.8,-19.5 0,0 2.5,8.3 6.5,12.9 2.8,3.2 6.7,5.7 10.9,6.6 5.3,1.1 8,1.4 12.8,-1 4.4,-2.2 9.1,-5.8 10.2,-10.5 4.3,-18.7 -1.3,-49 -1,-46.7 0,0 3,-3.9 3.9,-6.6 1.1,-3.2 2,-11.2 2,-11.2 0.7,-2.7 3,-5.1 5.6,-6.3 1.6,-0.7 3.6,-0.6 5.3,0 2.7,1.1 6.2,5.9 6.2,5.9 0,0 -0.3,-7 -2.3,-9.5 -2.1,-2.6 -5.6,-4.4 -8.9,-4.6 -5.1,-0.3 -10.1,1.6 -10.1,1.6 0,0 5.5,-6 8.1,-11.9 2.1,-4.7 2.4,-13.5 2.4,-13.5 0,-6.4 -3.1,-13.6 -7.4,-18.7 -5.5,-6.4 -15.1,-10.8 -15.1,-10.8 0,0 3.5,5.7 5.8,11.3 1.6,3.9 2.1,8.9 2.1,8.9 0,0 -3.2,-3.3 -6.1,-5.6 -3.9,-3.2 -11.6,-3.4 -11.6,-3.4 0,0 6.7,5.3 8.9,11.4 1,2.8 0.9,5.9 0.5,8.8 -0.6,4.6 -3.1,11.3 -4.1,15.8 -1.5,6.3 -3.4,10.1 -3,16.6 0.4,6.5 4.9,19 4.9,19 0,0 -7.5,1 -10.3,2.8 -3.9,2.6 -4.6,10.8 -4.6,10.8 0,0 4.3,-4.4 7,-5 2,-0.5 5.9,2 5.9,2 0,0 -7.7,3.1 -9.8,6.4 -2.1,3.2 -2,9.7 -2,9.7 0,0 2.8,-4 5.4,-5.3 2.2,-1.1 7.4,0 7.4,0 0,0 -7.1,4.3 -8.8,7.9 -1.6,3.2 -1,10.8 -1,10.8 0,0 3.2,-5.3 5.8,-6.7 1.9,-1 4.3,-1.4 6.4,-0.9 1.9,0.4 3.4,1 4.5,2.7 2,3 1.6,7 0,10.8 -1.2,2.8 -2.1,5.2 -4.9,6.4 -3.5,1.4 -7.9,1.7 -11.3,0 -4.2,-2.1 -4.6,-4 -6.4,-8.4 -3.5,-8.3 -3.1,-19.7 -6.4,-28 -2.7,-6.9 -9.2,-11.5 -11.3,-18.7 -2.2,-7.4 0.1,-15.5 -1,-23.1 -0.7,-4.7 -3.3,-12 -3.9,-16.7 -0.5,-3.7 0,-8.4 0,-8.4 l -33.1,-1.7 -17.8,15.8 c 0,0 -6.8,1.9 -10.3,2.1 -8.5,0.5 -18.3,-2.1 -26.7,-2.4 -9.1,-0.4 -26.1,-1 -26.1,-1 l -3.3,-7.3 c -1.2,-2.8 -1.3,-6.1 -4.1,-7.4 -2.1,-1 -5.3,-1.5 -7.1,0 -1.7,1.5 -1,6.8 -1,6.8 0,0 -5.5,-1.2 -7.8,0 -2.5,1.3 -4,2.9 -4.1,5.7 0,3.3 1.8,6.9 4.7,8.5 1.3,0.7 4.4,0.7 4.4,0.7 0,0 -2.7,1.3 -3.4,3.4 -0.9,2.6 0,6.2 2,8.1 2.4,2.3 5,2.1 8.1,1 2.6,-0.9 5.7,-4.7 5.7,-4.7 0,0 4.9,-0.6 6.8,0.7 1.5,1 2.2,3 2.7,4.7 0.3,1.3 0.5,2.8 0,4.1 -1.4,3.4 -7.1,8.6 -7.1,8.6 0,0 5.5,0.4 8,-0.5 5.3,-1.8 12.5,-8.6 12.5,-8.6 0,0 -0.4,3.2 -1.8,5 -1.7,2.3 -6.2,6 -6.2,6 0,0 8.4,-0.9 12.3,-2.8 3.5,-1.7 8.5,-7.9 8.5,-7.9 0,0 -0.1,3 -0.9,4.6 -0.9,1.8 -2.8,6 -2.8,6 0,0 7.6,-1.7 10.9,-3.6 2.6,-1.5 5.7,-6.3 5.7,-6.3 0,0 0.1,3.3 -0.4,5 -0.5,1.6 -2.7,4.8 -2.7,4.8 0,0 7.2,-1.3 10.3,-3 3.2,-1.7 7.6,-7.6 7.6,-7.6 0,0 4.3,-1.1 7,0.5 5.4,3.1 7.8,10.3 14.2,13.7 10.3,5.4 24,8.6 28.4,20.5 1.5,4.1 1.6,6.9 -0.5,10.8 -2.6,4.7 -13.4,10.4 -16.1,15.6 0,0 -4.3,5.9 -5.4,11.7 -0.7,3.7 -0.1,7.8 1.5,11.2 2,4.4 6.1,7.6 9.8,10.8 4.4,3.7 14.7,9.3 14.7,9.3 l 1.7,3.5 c 0,0 -6.5,4.4 -8.9,7.6 -3,3.8 -7.8,12.3 -7.8,12.3 0,0 -3,-3.1 -6.3,-4.4 -2.6,-0.9 -6.2,-1.9 -8.2,0 -1.9,1.8 -2,4 -1.1,6.4 0.9,2.2 3.9,3.9 3.9,3.9 0,0 -2.6,2.4 -3.2,3.9 -0.8,1.9 -0.8,4.4 0.4,6.1 1.5,2.2 4.1,1.9 6.8,2.1 1.9,0.1 5.7,-0.7 5.7,-0.7 0,0 -0.9,2.2 -0.7,3.6 0.2,2.1 0.7,4.6 2.5,5.7 2.4,1.5 6.2,1.3 8.6,-0.4 4.2,-2.8 5.8,-13.1 5.8,-13.1 z" />
    <path
       style="stroke-width:1.83421;stroke-miterlimit:4;stroke-dasharray:none"
       inkscape:connector-curvature="0"
       id="path41257-7-1"
       class="st8"
       d="m 653,164.8 c 0,0 -12,-2.6 -16.8,-3.7 -5.7,-1.3 -13.9,1.3 -19.4,-0.4 -3.3,-1 -4.1,-1.8 -5.7,-4.8 -1,-1.9 -1.5,-5.1 -1.5,-5.1 0,0 -2.7,3.4 -2.3,6.4 0.4,2.6 2.2,5.1 4.5,6.4 6.4,3.4 17.5,1.1 24.6,2.8 4.9,1.1 10.9,8.1 10.9,8.1 z" />
    <path
       style="stroke-width:1.83421;stroke-miterlimit:4;stroke-dasharray:none"
       inkscape:connector-curvature="0"
       id="path5213-8-7-1-6-8-7"
       class="st9"
       d="m 621,154.5 c 0.9,5.6 2.1,6.2 3.3,8 l 0.1,-7.9 z m 3.2,8.6 c -1.2,1.8 -2.4,2.4 -3.3,8 l 3.3,-0.1 z" />
    <path
       style="stroke-width:1.83421;stroke-miterlimit:4;stroke-dasharray:none"
       inkscape:connector-curvature="0"
       id="path40887-4-34"
       class="st4"
       d="m 601.6,216.6 5.8,-2.5 c 1.6,-0.7 1,-3.5 1.7,-5.1 0.7,-1.8 3.9,-4.3 3.9,-4.3 l -7.6,-0.2 c 0,0 5.5,-2.6 5.9,-6.4 0.1,-0.9 -0.3,-3.9 -0.2,-4.9 0,-3.3 2.9,-6 5.6,-7.8 1.7,-1.1 6.4,-1.6 7.3,-3.4 l 1.7,-3.2 c 0,0 -2.4,1.6 -4.6,1.9 -2.2,0.3 -5.6,-0.7 -5.6,-0.7 l 4.9,-4.6 c 0.8,-0.7 -0.5,-3.9 -0.2,-4.9 0.5,-1.9 4.4,-2.7 4.4,-2.7 0,0 8.2,1.5 11.8,-0.6 3.4,-2 5.1,-5.9 4,-9.4 l -0.8,-2.3 c -1,-2.9 -11.7,1 -14.7,1.4 -2.7,0.4 -5.3,-0.9 -6.7,-3.2 -2.6,-4.3 -0.4,-8.6 0,-12.9 l 16.3,-0.7 c 6.1,-7.9 23.1,-5.3 36,-3.5 3.3,0.5 1,-2.2 7.1,-3.9 0,0 1.8,1.6 1.3,4.7 -0.2,1.3 -3.4,4 -3.3,5 0.1,0.7 2,-1.2 4.1,-1 2.7,0.2 5.6,2.5 5.6,3.1 -0.3,1.9 -0.7,5.4 -2.5,7.1 -1.4,1.3 -4,1.1 -5.1,2.1 -1.4,1.1 -5.7,1.4 -5.7,1.4 0,0 5.5,3.4 7,6 2.8,5 -0.5,10.6 2.2,15.6 1,1.8 3.2,2.9 3.2,2.9 0,0 -2.5,2.1 -4.8,1.6 -2.1,-0.5 -4.4,-1.3 -4.4,-1.3 0,0 4.2,4.9 4.4,9.2 0.3,4.9 -5.3,8.7 -5.7,13.7 -0.3,3.5 2.2,10.2 2.2,10.2 0,0 -3.2,-1 -4.8,-2.2 -1.3,-1 -3.8,-4.1 -3.8,-4.1 l 1.3,7 c 0.6,3.4 -6.1,5.5 -6.7,9.5 -0.4,2.6 1.9,5.4 1.9,5.4 0,0 -6.1,-1.4 -8.6,-3.2 -1.9,-1.4 -4.4,-5.7 -4.4,-5.7 0,0 -2.2,5.9 -4.1,7.9 -2.1,2.3 -6.6,3.5 -10.3,5.2 -6.2,2.9 -11.7,5.6 -11.7,5.6 0,0 1.1,-4.1 0.6,-6.3 -0.7,-3.5 -5.6,-7.3 -7.3,-10.5 -1.7,-3.2 0,-7.6 0,-7.6 0,0 -4,3.9 -7,4.4 -3.4,0.4 -9.6,-1.8 -9.6,-1.8 z" />
    <path
       style="stroke-width:1.83421;stroke-miterlimit:4;stroke-dasharray:none"
       inkscape:connector-curvature="0"
       id="path40887-7-4-3-99"
       class="st6"
       d="m 656.2,154.4 c 0,0 -0.6,9.9 -3.5,13.5 -2.1,2.7 -5.8,3.9 -9.2,4.7 -3.7,0.9 -7.6,-0.4 -11.4,0 -2.5,0.3 -4.9,2.1 -7.3,1.7 -1.7,-0.3 -4.4,-2.5 -4.4,-2.5 v 3.7 l -4.4,4.2 5.1,1.6 4.1,-1.6 -1.3,2.4 c -1,1.8 -5.6,2.3 -7.3,3.4 -2.7,1.8 -5.6,4.6 -5.6,7.8 0,1 0.3,3.9 0.2,4.9 -0.4,3.7 -5.9,6.4 -5.9,6.4 l 7.6,0.2 c 0,0 -3.2,2.5 -3.9,4.3 -0.6,1.6 0,4.4 -1.7,5.1 l -5.8,2.5 c 0,0 6.3,2.2 9.5,1.5 2.9,-0.6 7,-4.4 7,-4.4 0,0 -1.7,4.4 0,7.6 1.7,3.2 6.6,7 7.3,10.5 0.5,2.3 -0.6,6.3 -0.6,6.3 0,0 5.5,-2.7 11.7,-5.6 3.6,-1.7 8.1,-2.8 10.3,-5.2 1.9,-2.1 4.1,-7.9 4.1,-7.9 0,0 2.5,4.3 4.4,5.7 2.5,1.8 8.6,3.2 8.6,3.2 0,0 -2.3,-2.8 -1.9,-5.4 0.6,-4 7.3,-6.2 6.7,-9.5 l -1.3,-7 c 0,0 2.5,3.1 3.8,4.1 1.6,1.2 4.8,2.2 4.8,2.2 0,0 -2.5,-6.7 -2.2,-10.2 0.4,-4.9 6,-8.7 5.7,-13.7 -0.3,-4.3 -4.4,-9.2 -4.4,-9.2 0,0 2.4,0.8 4.4,1.3 2.3,0.6 4.8,-1.6 4.8,-1.6 0,0 -2.2,-1.1 -3.2,-2.9 -2.7,-5 0.6,-10.6 -2.2,-15.6 -1.5,-2.7 -7,-6 -7,-6 0,0 2.7,5.8 3.5,8.9 1,3.9 1.7,12 1.7,12 l -12.9,-9.4 c 0,0 9,16.4 8.3,21.7 -0.3,2.3 -1.4,3.3 -2.3,5.4 -1,2.4 -0.9,7.7 -0.9,7.7 l -12,-20.9 c 0,0 6.6,26 4.9,32 -0.9,3.1 -4.3,8.3 -4.3,8.3 0,0 -1.8,-1.6 -2.6,-2.6 -2.6,-3.3 -6.6,-20.9 -6.6,-20.9 0,0 -2.4,21.4 -6.6,25.7 -3.1,3.2 -12.3,6.9 -12.3,6.9 0,0 0.1,-2.5 -0.3,-3.7 -1.1,-3.4 -4.8,-5.7 -5.7,-9.1 -1,-3.9 9.7,-22.6 9.7,-22.6 0,0 -11.3,11.6 -13,12.5 -2.3,1.3 -6.2,5.2 -6.2,5.2 0,0 0.1,-2.4 0.6,-3.4 1.7,-3.6 7.1,-11.1 7.1,-11.1 l -6.9,2.3 c 0.9,-2.8 0.9,-3.8 0.9,-6.9 0,-2.3 7.2,-3.6 8.9,-5.1 1.3,-1.2 1.6,-3.3 1.7,-5.1 0.1,-1.3 -0.4,-2.7 -0.7,-3.4 l 0.7,-0.3 4.7,-2.4 h 5.2 l 8.2,0.7 6.5,-2.1 5.5,-4.9 1.6,-7.5 -0.6,-6.9 z" />
    <path
       style="stroke-width:1.83421;stroke-miterlimit:4;stroke-dasharray:none"
       inkscape:connector-curvature="0"
       id="path4045-9-52-54-4-2"
       class="st9"
       d="m 637.6,143.2 c 0.1,2.4 2.8,4.9 6.4,4.8 3.5,-0.1 5.7,-2.1 5.6,-4.5 -0.1,-2.4 -2.3,-3.6 -5.9,-3.5 -3.5,0.1 -6.1,0.8 -6.1,3.2 z" />
    <circle
       style="stroke-width:1.83426;stroke-miterlimit:4;stroke-dasharray:none"
       r="2.4000001"
       id="path4827-0-2-2-3-8"
       transform="matrix(0.9996,-0.02734107,0.02734107,0.9996,-3.6835,17.6446)"
       class="st10"
       cx="643.40002"
       cy="143.5" />
    <path
       style="stroke-width:1.83421;stroke-miterlimit:4;stroke-dasharray:none"
       inkscape:connector-curvature="0"
       id="path4045-8-5-7-1-1-3"
       class="st11"
       d="m 643.7,139.4 c -1.8,0 -3.4,0.3 -4.6,0.8 -1.2,0.5 -2.1,1.6 -2.1,3 0.1,2.8 3.1,5.5 6.9,5.4 1.9,-0.1 3.4,-0.6 4.5,-1.5 1.1,-0.9 1.7,-2.2 1.7,-3.5 0,-1.3 -0.7,-2.5 -1.9,-3.2 -1.2,-0.7 -2.6,-1.1 -4.5,-1 z m -15.6,0.7 -10.4,0.6 -0.8,5.8 c 0,0 4.8,-0.4 6.7,-1.2 2.9,-1.1 4.5,-5.2 4.5,-5.2 z m 15.7,0.4 c 1.7,0 3.1,0.2 3.9,0.7 0.8,0.5 1.3,1.2 1.3,2.2 0,1 -0.4,2 -1.3,2.7 -0.9,0.7 -2.1,1.2 -3.8,1.2 -3.3,0.1 -5.7,-2.3 -5.7,-4.3 0,-1 0.4,-1.5 1.4,-1.9 1,-0.4 2.4,-0.5 4.2,-0.6 z m 33.9,4.1 c -4.1,0.1 -7.1,1.6 -9.8,6.4 9,4 12.1,-1.3 14.3,-6 -1.6,-0.3 -3.1,-0.4 -4.5,-0.4 z m -23.2,7.8 c 0,0 1.3,1.1 2,2.7 0.7,1.6 1.4,3.5 1.5,4.6 0.4,3.1 -0.4,7.6 -1.7,10.1 -1.7,3.3 -4.8,5 -8.5,6.3 -2.4,0.8 -5.1,0.7 -7.9,0.5 -2.8,-0.2 -5.9,-0.9 -8.9,-0.3 -1.4,0.3 -3,1 -4.2,1.7 -1.2,0.7 -2.3,1.7 -2.3,1.7 l 0.2,1.4 c 0,0 2.1,-1.5 3.3,-2.1 1.2,-0.6 2.7,-1.2 3.5,-1.4 2.5,-0.5 5.4,0.2 8.2,0.4 2.9,0.2 5.9,0.5 8.8,-0.5 4,-1.4 7.1,-2.9 9.2,-6.9 1.7,-3.2 2.1,-7.2 1.7,-10.5 -0.2,-1.6 -1.3,-5.6 -2.9,-6.4 z" />
    <path
       style="stroke-width:1.83421;stroke-miterlimit:4;stroke-dasharray:none"
       inkscape:connector-curvature="0"
       id="path41167-6-39"
       class="st5"
       d="m 676.4,133.2 c -0.5,0 0,0.1 0.4,0.6 l 1.3,-0.5 c -0.9,0 -1.4,-0.1 -1.7,-0.1 z m 0.5,0.6 -7.4,3.1 -9.2,-1.6 -12,-1.1 -4.9,1.1 -5.2,1.7 -4.4,3.5 c 3.1,-0.1 7.1,-2.9 12.9,-2.8 8.9,0.1 20.4,3.7 24.5,2.7 3.7,-0.9 6.1,-4.5 6.1,-5.7 -0.1,-0.4 -0.3,-0.7 -0.4,-0.9 z m -18.2,40.4 c 0,0 4.5,3.4 5.7,7.2 0.6,1.8 -0.4,4.8 0,6.6 0.4,1.9 4.6,5.6 4.6,5.6 0,0 -2.5,-4.9 -2.5,-7 0.1,-1.7 1,-4.4 0.3,-6 -1.5,-4.3 -8.1,-6.4 -8.1,-6.4 z m -18.6,7.9 c 0,0 -7,0.3 -9.6,3.9 -1,1.4 -0.9,4.2 -1.2,5.9 -0.5,2 -4.2,6.2 -4.2,6.2 0,0 5,-2.5 5.9,-4.2 0.9,-1.7 0.7,-4.8 1.7,-6.4 2.2,-3.2 7.4,-5.4 7.4,-5.4 z m 5.2,4.5 c 0,0 -13,14 -13.1,22 0,2.6 2.7,4.6 3,7.2 0.3,2.9 -1.5,8.6 -1.5,8.6 0,0 5.7,-5.8 5.9,-9.1 0.2,-2.9 -2.2,-5.5 -2.2,-8.4 -0.2,-7.3 7.9,-20.3 7.9,-20.3 z m 5.3,4.9 c 0,0 3.9,4 4.6,8 0.3,1.9 -1.1,4.7 -1,6.6 0.1,1.9 3.7,6.2 3.7,6.2 0,0 -1.7,-5.3 -1.3,-7.3 0.3,-1.7 1.6,-4.2 1.3,-5.9 -1.1,-4.4 -7.3,-7.6 -7.3,-7.6 z" />
    <path
       style="stroke-width:1.83421;stroke-miterlimit:4;stroke-dasharray:none"
       inkscape:connector-curvature="0"
       id="path40887-7-1-84"
       class="st7"
       d="m 671.7,155 c 0,0 5.5,3.4 7,6 2.8,5 -0.5,10.6 2.2,15.6 1,1.8 3.2,2.9 3.2,2.9 0,0 -2.5,2.1 -4.8,1.6 -2.1,-0.5 -4.4,-1.3 -4.4,-1.3 0,0 4.2,4.9 4.4,9.2 0.3,4.9 -5.3,8.7 -5.7,13.7 -0.3,3.5 2.2,10.2 2.2,10.2 0,0 -3.2,-1 -4.8,-2.2 -1.3,-1 -3.8,-4.1 -3.8,-4.1 l 1.3,7 c 0.6,3.4 -6.1,5.5 -6.7,9.5 -0.4,2.6 1.9,5.4 1.9,5.4 0,0 -6.1,-1.4 -8.6,-3.2 -1.9,-1.4 -4.4,-5.7 -4.4,-5.7 0,0 -2.2,5.9 -4.1,7.9 -2.1,2.3 -6.6,3.5 -10.3,5.2 -6.2,2.9 -11.7,5.6 -11.7,5.6 0,0 1.1,-4.1 0.6,-6.3 -0.7,-3.5 -5.6,-7.3 -7.3,-10.5 -1.7,-3.2 0,-7.6 0,-7.6 0,0 -4,3.9 -7,4.4 -3.2,0.7 -9.5,-1.5 -9.5,-1.5 v 0 l 5.8,-2.5 c 1.6,-0.7 1,-3.5 1.7,-5.1 0.7,-1.8 3.9,-4.3 3.9,-4.3 l -7.6,-0.2 c 0,0 5.5,-2.6 5.9,-6.4 0.1,-0.9 -0.3,-3.9 -0.2,-4.9 0,-3.3 2.9,-6 5.6,-7.8 1.7,-1.1 6.4,-1.6 7.3,-3.4 l 2,-2.9 c 0,0 -2.5,1.6 -4.7,1.9 -2.2,0.3 -5.6,-0.7 -5.6,-0.7 l 4.9,-4.6 c 0.8,-0.7 -0.5,-3.9 -0.2,-4.9 0.5,-1.9 4.4,-2.7 4.4,-2.7 0,0 8.7,1.3 12.2,-0.9 3.4,-2 4.7,-5.3 3.6,-8.8 l -0.8,-2.3 c -1,-2.9 -11.4,-0.3 -14.4,0.1 -2.7,0.4 -5.8,-0.9 -7.2,-3.2 -2.6,-4.3 -0.4,-7.8 0,-12.1 10.4,-1.5 9.3,-0.4 16.5,-0.7 14.2,-13.8 29.3,-0.1 37.8,-4.8 l 5.3,-2.6 c 1.6,3.9 -0.2,6.1 -2,9.4 7.8,-0.8 8.1,1 9.5,2 0,0 -1.1,4.6 -3.2,7.2 -2.5,2.8 -10.2,3.4 -10.2,3.4 z" />
    <path
       style="stroke-width:1.83421;stroke-miterlimit:4;stroke-dasharray:none"
       inkscape:connector-curvature="0"
       id="path4318-6-3-4-6-98-1-7-3-5-9-5"
       class="st12"
       d="m 565.4,126.5 c 3.5,3 4.2,4.6 4.5,9 1.6,1.1 2.9,1.2 3.9,0.6 2,-1.3 2.6,-3.4 1.6,-5.8 -2,-0.8 -2.9,-4 -10,-3.8 z m 20.9,2 c 2,4.3 2,6.1 0.6,10.2 1,1.8 2.2,2.4 3.3,2.3 2.3,-0.2 3.6,-1.9 3.6,-4.6 -1.3,-1.4 -0.9,-4.8 -7.5,-7.9 z m -28.7,13.3 c -1.5,-0.1 -3.5,0.3 -6.3,1.8 4.3,1.1 5.5,2.3 7.5,6.2 1.9,0.3 3.1,-0.3 3.8,-1.3 1.3,-2 1.1,-4.2 -0.8,-6 -1.2,0.1 -2.3,-0.6 -4.2,-0.7 z m -26.4,53.8 c -1.3,0 -2.9,0.3 -5.1,1.1 4.1,1.7 5.2,3 6.7,7.1 1.8,0.5 3.1,0.1 3.9,-0.8 1.6,-1.9 1.6,-4.1 -0.1,-6.1 -1.3,0 -2.6,-1.3 -5.4,-1.3 z m -10.6,10.6 c -1.7,0.9 -4.6,-0.7 -9.3,4.8 4.4,-0.5 6,0.1 9.2,3 1.9,-0.4 2.8,-1.4 3,-2.5 0.6,-2.4 -0.5,-4.4 -2.9,-5.3 z m 6.2,20.4 c -0.3,0 -0.6,0 -0.9,0.1 -1,1.6 -4.3,1.8 -5.6,8.9 3.5,-2.7 5.2,-3 9.5,-2.1 1.4,-1.3 1.7,-2.6 1.3,-3.7 -0.7,-2.1 -2.2,-3.2 -4.3,-3.2 z m 12.5,79.3 c -1.2,0 -2.6,0.2 -4.3,0.7 4,2 5,3.3 6.1,7.6 1.8,0.7 3.1,0.4 3.9,-0.5 1.7,-1.7 1.9,-3.9 0.4,-6 -1.4,-0.2 -2.6,-1.8 -6.1,-1.8 z m -11.2,9.8 c -1.6,1.1 -4.6,0 -8.5,6.1 4.3,-1.2 5.9,-0.8 9.6,1.7 1.8,-0.7 2.6,-1.7 2.6,-3 0.1,-2.4 -1.2,-4.2 -3.7,-4.8 z m 1.4,18.3 c -0.6,0 -1.1,0 -1.8,0.2 -0.9,1.7 -4.1,2.1 -4.8,9.4 3.3,-3 4.9,-3.4 9.3,-3 1.3,-1.4 1.5,-2.7 1,-3.8 -0.8,-1.7 -2.1,-2.7 -3.7,-2.8 z m 95.9,25.6 c -1.6,0 -3.7,0.5 -6.6,2.6 4.4,0.6 5.8,1.6 8.2,5.2 1.9,0.1 3,-0.6 3.6,-1.7 1.1,-2.2 0.5,-4.3 -1.6,-5.8 -1,0.1 -2,-0.3 -3.6,-0.3 z m 3.2,16.2 c -0.3,0 -0.6,0 -0.9,0.1 -1,1.6 -4.3,1.8 -5.6,8.9 3.5,-2.7 5.2,-3 9.5,-2.1 1.4,-1.3 1.7,-2.6 1.3,-3.7 -0.7,-2.1 -2.2,-3.2 -4.3,-3.2 z m 15.4,9.4 c -0.3,0 -0.6,0.1 -0.9,0.1 -0.9,1.7 -4.2,2 -5,9.2 3.4,-2.9 5,-3.3 9.3,-2.7 1.3,-1.4 1.5,-2.7 1.1,-3.8 -0.8,-1.9 -2.4,-2.9 -4.5,-2.8 z" />
  </g>
</g>

	</g>

</g>
</svg>
