<svg width="135" height="32" viewBox="0 0 135 32" fill="none" xmlns="http://www.w3.org/2000/svg">
<path d="M127.482 0.195312H132.359V9.95289H127.482V0.195312ZM119.042 5.0741L118.761 5.16792C118.761 5.16792 120.449 6.57527 120.449 6.66909C120.543 6.76291 120.636 6.76291 120.543 7.04438C120.449 7.32585 120.355 7.60732 120.355 7.60732C120.355 7.60732 121.856 7.32585 122.043 7.23202C122.231 7.23202 122.324 7.23202 122.324 7.41967C122.324 7.60732 122.231 9.2023 122.231 9.2023H122.7C122.7 9.2023 122.606 7.51349 122.606 7.41967C122.606 7.23202 122.7 7.23202 122.887 7.23202C123.075 7.23202 124.575 7.60732 124.575 7.60732C124.575 7.60732 124.481 7.23202 124.388 7.04438C124.294 6.76291 124.388 6.76291 124.481 6.66909C124.575 6.57527 126.169 5.16792 126.169 5.16792L125.888 5.0741C125.701 4.98028 125.794 4.88645 125.794 4.79263C125.794 4.69881 126.076 3.76058 126.076 3.76058C126.076 3.76058 125.325 3.94823 125.232 3.94823C125.138 3.94823 125.044 3.94823 125.044 3.8544C125.044 3.76058 124.857 3.38529 124.857 3.38529C124.857 3.38529 124.012 4.32352 123.919 4.41734C123.731 4.60499 123.544 4.41734 123.637 4.22969C123.637 4.04205 124.106 2.07177 124.106 2.07177C124.106 2.07177 123.637 2.35324 123.45 2.44706C123.262 2.54088 123.168 2.54088 123.168 2.35324C123.075 2.16559 122.512 1.13354 122.512 1.03972C122.512 1.03972 121.949 2.16559 121.856 2.35324C121.762 2.54088 121.668 2.54088 121.574 2.44706C121.387 2.35324 120.918 2.07177 120.918 2.07177C120.918 2.07177 121.387 4.04205 121.387 4.22969C121.387 4.41734 121.293 4.51116 121.105 4.41734L120.167 3.38529C120.167 3.38529 120.074 3.66676 119.98 3.76058C119.98 3.8544 119.886 3.94823 119.792 3.8544C119.605 3.8544 118.855 3.66676 118.855 3.66676C118.855 3.66676 119.136 4.60499 119.23 4.69881C119.23 4.79263 119.23 4.98028 119.042 5.0741ZM112.759 0.195312H117.635V9.95289H112.759V0.195312Z" fill="#FF0000"/>
<path d="M133.453 29.4657C133.078 30.3101 132.328 30.5915 131.859 30.5915C131.296 30.5915 129.608 30.4977 129.608 26.0881C129.608 26.0881 129.608 17.175 129.608 16.612C129.608 13.7035 127.357 11.358 121.543 11.358C115.259 11.358 115.166 14.4541 115.166 15.2047C115.072 16.0491 115.541 16.9873 117.135 16.9873C118.542 16.9873 118.917 15.3923 119.104 14.8294C119.292 14.1727 119.386 12.2962 121.918 12.2962C124.075 12.2962 125.388 14.1727 125.482 16.8935C125.482 17.3626 125.482 17.6441 125.482 17.9255C125.482 18.1132 125.482 18.207 125.482 18.3946V18.4885C125.294 19.4267 124.825 19.8958 123.981 20.2711C122.856 20.834 119.573 21.3031 119.198 21.397C117.885 21.6784 114.228 22.6166 114.322 26.4633C114.415 30.2162 118.167 31.5297 120.793 31.4359C123.325 31.3421 124.825 30.3101 125.482 29.7471C125.857 29.4657 125.857 29.4657 126.138 29.8409C126.513 30.2162 127.732 31.4359 130.639 31.4359C133.64 31.4359 134.016 30.0286 134.203 29.5595C134.297 29.278 133.64 28.9965 133.453 29.4657ZM121.73 30.4977C119.104 30.4977 118.448 28.3398 118.448 27.2139C118.448 26.1819 119.011 24.024 121.637 22.5228C121.637 22.5228 122.856 21.7722 125.2 20.834C125.294 20.834 125.388 20.834 125.388 20.834C125.388 20.834 125.482 20.9278 125.482 21.0217V21.1155V21.2093V25.1498C125.482 28.246 123.981 30.4977 121.73 30.4977ZM113.103 30.4039C112.727 30.3101 110.383 30.5915 110.383 23.461C110.383 16.3306 110.383 1.03757 110.383 1.03757C110.383 0.756101 110.383 0.00552461 109.539 0.00552461C108.695 0.00552461 103.068 0.286991 102.693 0.380813C102.318 0.380813 102.036 0.849923 102.693 0.849923C103.349 0.943745 106.35 1.13139 106.35 6.10396C106.35 8.54333 106.35 10.9827 106.35 12.7653C106.35 12.8591 106.35 12.953 106.35 12.953C106.35 13.1406 106.35 13.2344 106.257 13.3283C106.257 13.3283 106.257 13.3283 106.257 13.4221C106.163 13.5159 106.069 13.4221 105.788 13.2344C105.319 12.8591 103.162 11.5456 100.442 11.5456C96.0345 11.5456 90.5952 14.7356 90.5952 21.3031C90.5952 28.3398 95.5656 31.7174 100.723 31.7174C103.256 31.7174 105.037 30.5915 105.694 30.2162C106.444 29.7471 106.35 29.8409 106.444 30.4977C106.538 30.9668 106.444 31.905 107.757 31.8112C109.164 31.6236 112.54 31.2483 113.196 31.1545C113.853 30.873 113.665 30.4977 113.103 30.4039ZM101.474 30.6853C97.3474 30.6853 95.1904 25.8066 95.1904 21.1155C95.1904 15.9553 98.0976 12.4839 101.192 12.6715C105.225 12.953 106.257 16.1429 106.35 21.8661C106.35 22.2414 106.35 22.6166 106.35 23.0858C106.257 28.7151 103.912 30.6853 101.474 30.6853ZM90.5014 29.4657C90.1263 30.3101 89.376 30.5915 88.9071 30.5915C88.3444 30.5915 86.6564 30.4977 86.6564 26.0881C86.6564 26.0881 86.6564 17.175 86.6564 16.612C86.6564 13.7035 84.4057 11.358 78.5913 11.358C72.308 11.358 72.2142 14.4541 72.2142 15.2047C72.1204 16.0491 72.5893 16.9873 74.1836 16.9873C75.5903 16.9873 75.9654 15.3923 76.153 14.8294C76.3405 14.1727 76.4343 12.2962 78.9664 12.2962C81.1233 12.2962 82.5301 14.1727 82.5301 16.9873V17.0811C82.5301 17.175 82.5301 17.2688 82.5301 17.2688V17.5503C82.5301 17.6441 82.5301 17.8317 82.5301 17.9255C82.4363 19.3329 82.0612 19.802 80.9358 20.3649C79.8104 20.9278 76.5281 21.397 76.153 21.4908C74.8401 21.7722 71.1826 22.7105 71.2764 26.5572C71.3702 30.31 75.1214 31.6236 77.7473 31.5297C80.2793 31.4359 81.7798 30.4039 82.4363 29.8409C82.8114 29.5595 82.8114 29.5595 83.0927 29.9348C83.4679 30.3101 84.687 31.5297 87.5942 31.5297C90.5952 31.5297 90.9703 30.1224 91.1579 29.6533C91.3454 29.278 90.7827 28.9965 90.5014 29.4657ZM78.8726 30.4977C76.2468 30.4977 75.5903 28.3398 75.5903 27.2139C75.5903 26.1819 76.153 24.024 78.7788 22.5228C78.7788 22.5228 79.998 21.7722 82.3425 20.834C82.4363 20.834 82.5301 20.834 82.5301 20.834V20.9278C82.5301 21.0217 82.5301 21.1155 82.5301 21.3031V21.2093C82.5301 21.2093 82.5301 21.2093 82.5301 21.3031V25.2437C82.5301 28.246 81.0296 30.4977 78.8726 30.4977ZM69.8697 30.4039C69.1194 30.2162 67.8065 29.3718 67.8065 25.2437V17.7379C67.8065 15.9553 67.9941 11.358 60.9605 11.358C57.3031 11.358 55.2399 13.2344 55.0524 13.3283C54.771 13.6097 54.5835 13.7035 54.4897 13.2344C54.3959 12.8591 54.2083 12.2962 54.1145 11.9209C54.0208 11.6395 53.8332 11.358 53.1767 11.4518C52.5203 11.5456 48.3939 12.2024 47.6437 12.39C46.9872 12.5777 47.1748 12.8591 47.6437 12.953C48.1126 13.0468 50.3633 13.2344 50.3633 17.0811C50.3633 20.9278 50.3633 25.1498 50.3633 25.1498C50.3633 29.8409 49.4255 30.2162 48.5815 30.4977C47.4561 30.7792 48.0188 31.1545 48.4877 31.1545C48.4877 31.1545 56.8342 31.1545 57.0217 31.1545C57.5844 31.1545 57.8658 30.5915 56.7404 30.4039C55.615 30.2162 54.5834 29.5595 54.5834 25.9004C54.5834 25.5251 54.5834 21.4908 54.5834 20.7402C54.5834 18.7699 54.1145 12.7653 59.5538 12.6715C63.3988 12.5777 63.7739 15.7676 63.7739 17.8317V25.8066C63.7739 29.0904 62.8361 30.1224 61.7108 30.3101C60.6792 30.4977 60.8668 30.9668 61.4294 30.9668C61.617 30.9668 70.151 30.9668 70.151 30.9668C70.6199 31.1545 71.0888 30.6853 69.8697 30.4039ZM47.081 29.4657C46.7059 30.3101 45.9556 30.5915 45.4867 30.5915C44.9241 30.5915 43.236 30.4977 43.236 26.0881C43.236 26.0881 43.236 17.175 43.236 16.612C43.236 13.7035 40.9853 11.358 35.1709 11.358C28.8876 11.358 28.7938 14.4541 28.7938 15.2047C28.7 16.0491 29.1689 16.9873 30.7632 16.9873C32.1699 16.9873 32.545 15.3923 32.7326 14.8294C32.9201 14.1727 33.0139 12.2962 35.546 12.2962C37.703 12.2962 39.0159 14.1727 39.1097 16.8935C39.1097 17.3626 39.1097 17.6441 39.1097 17.9255C39.1097 18.1132 39.1097 18.3008 39.0159 18.3946V18.4885C38.8283 19.4267 38.3594 19.8958 37.5154 20.2711C36.39 20.834 33.1077 21.3031 32.7326 21.397C31.4197 21.6784 27.7622 22.6166 27.856 26.4633C27.9498 30.2162 31.701 31.5297 34.3269 31.4359C36.8589 31.3421 38.3594 30.3101 39.0159 29.7471C39.391 29.4657 39.391 29.4657 39.6723 29.8409C40.0475 30.2162 41.2666 31.4359 44.1738 31.4359C47.1748 31.4359 47.5499 30.0286 47.7375 29.5595C47.925 29.278 47.2686 28.9965 47.081 29.4657ZM35.3584 30.4977C32.7326 30.4977 32.0761 28.3398 32.0761 27.2139C32.0761 26.0881 32.6388 24.024 35.2647 22.5228C35.2647 22.5228 36.4838 21.7722 38.8283 20.834C38.9221 20.834 39.0159 20.834 39.0159 20.834C39.0159 20.834 39.1097 20.9278 39.1097 21.0217C39.1097 21.0217 39.1097 21.1155 39.1097 21.2093V21.3031V25.2437C39.1097 28.246 37.6092 30.4977 35.3584 30.4977ZM26.3555 22.3352C25.4177 25.3375 23.6359 30.2162 17.165 30.4039C10.4128 30.4977 6.38025 25.9004 6.19269 17.3626C5.91135 8.26187 9.85013 1.31903 15.9459 1.13139C22.7918 1.03757 25.2301 9.20009 25.3239 10.4198C25.4177 11.358 26.6368 11.2642 26.6368 10.326C26.6368 9.85684 26.0742 1.78814 25.8866 0.849923C25.699 -0.0882975 24.9488 0.286991 24.7612 0.662279C24.6675 0.943745 24.855 0.380813 24.4799 1.22521C24.1048 2.06961 23.0732 1.6005 22.6981 1.50668C21.5727 1.03757 19.4157 -0.0882975 15.9459 0.00552461C7.97452 0.193169 -0.184388 6.10396 0.00317335 16.4244C0.190734 26.4633 8.25586 32.0927 15.7583 31.9988C22.6043 31.905 26.4493 27.5892 27.5747 22.6166C27.9498 21.397 26.7306 21.1155 26.3555 22.3352Z" fill="black"/>
</svg>
