<svg width="143" height="37" viewBox="0 0 143 37" fill="none" xmlns="http://www.w3.org/2000/svg">
<path d="M137.803 0.195312H142.679V9.95289H137.803V0.195312ZM129.362 5.0741L129.081 5.16792C129.081 5.16792 130.769 6.57526 130.769 6.66909C130.863 6.76291 130.957 6.76291 130.863 7.04438C130.769 7.32585 130.675 7.60732 130.675 7.60732C130.675 7.60732 132.176 7.32585 132.363 7.23202C132.551 7.23202 132.645 7.23202 132.645 7.41967C132.645 7.60732 132.551 9.2023 132.551 9.2023H133.02C133.02 9.2023 132.926 7.51349 132.926 7.41967C132.926 7.23202 133.02 7.23202 133.207 7.23202C133.395 7.23202 134.895 7.60732 134.895 7.60732C134.895 7.60732 134.802 7.23202 134.708 7.04438C134.614 6.76291 134.708 6.76291 134.802 6.66909C134.895 6.57526 136.49 5.16792 136.49 5.16792L136.208 5.0741C136.021 4.98028 136.115 4.88645 136.115 4.79263C136.115 4.69881 136.396 3.76058 136.396 3.76058C136.396 3.76058 135.646 3.94823 135.552 3.94823C135.458 3.94823 135.364 3.94823 135.364 3.8544C135.364 3.76058 135.177 3.38529 135.177 3.38529C135.177 3.38529 134.333 4.32352 134.239 4.41734C134.051 4.60499 133.864 4.41734 133.958 4.22969C133.958 4.04205 134.427 2.07177 134.427 2.07177C134.427 2.07177 133.958 2.35324 133.77 2.44706C133.583 2.54088 133.489 2.54088 133.489 2.35324C133.395 2.16559 132.832 1.13354 132.832 1.03972C132.832 1.03972 132.27 2.16559 132.176 2.35324C132.082 2.54088 131.988 2.54088 131.895 2.44706C131.707 2.35324 131.238 2.07177 131.238 2.07177C131.238 2.07177 131.707 4.04205 131.707 4.22969C131.707 4.41734 131.613 4.51116 131.426 4.41734L130.488 3.38529C130.488 3.38529 130.394 3.66676 130.3 3.76058C130.3 3.8544 130.206 3.94823 130.113 3.8544C129.925 3.8544 129.175 3.66676 129.175 3.66676C129.175 3.66676 129.456 4.60499 129.55 4.69881C129.55 4.79263 129.55 4.98028 129.362 5.0741ZM123.079 0.195312H127.956V9.95289H123.079V0.195312Z" fill="#FF0000"/>
<path d="M133.773 34.4657C133.398 35.3101 132.648 35.5915 132.179 35.5915C131.616 35.5915 129.928 35.4977 129.928 31.0881C129.928 31.0881 129.928 22.175 129.928 21.612C129.928 18.7035 127.677 16.358 121.863 16.358C115.58 16.358 115.486 19.4541 115.486 20.2047C115.392 21.0491 115.861 21.9873 117.455 21.9873C118.862 21.9873 119.237 20.3923 119.425 19.8294C119.612 19.1727 119.706 17.2962 122.238 17.2962C124.395 17.2962 125.708 19.1727 125.802 21.8935C125.802 22.3626 125.802 22.6441 125.802 22.9255C125.802 23.1132 125.802 23.207 125.802 23.3946V23.4885C125.614 24.4267 125.145 24.8958 124.301 25.2711C123.176 25.834 119.894 26.3031 119.519 26.397C118.206 26.6784 114.548 27.6166 114.642 31.4633C114.736 35.2162 118.487 36.5297 121.113 36.4359C123.645 36.3421 125.145 35.3101 125.802 34.7471C126.177 34.4657 126.177 34.4657 126.458 34.8409C126.833 35.2162 128.053 36.4359 130.96 36.4359C133.961 36.4359 134.336 35.0286 134.523 34.5595C134.617 34.278 133.961 33.9965 133.773 34.4657ZM122.051 35.4977C119.425 35.4977 118.768 33.3398 118.768 32.2139C118.768 31.1819 119.331 29.024 121.957 27.5228C121.957 27.5228 123.176 26.7722 125.521 25.834C125.614 25.834 125.708 25.834 125.708 25.834C125.708 25.834 125.802 25.9278 125.802 26.0217V26.1155V26.2093V30.1498C125.802 33.246 124.301 35.4977 122.051 35.4977ZM113.423 35.4039C113.048 35.3101 110.703 35.5915 110.703 28.461C110.703 21.3306 110.703 6.03757 110.703 6.03757C110.703 5.7561 110.703 5.00552 109.859 5.00552C109.015 5.00552 103.388 5.28699 103.013 5.38081C102.638 5.38081 102.357 5.84992 103.013 5.84992C103.67 5.94375 106.671 6.13139 106.671 11.104C106.671 13.5433 106.671 15.9827 106.671 17.7653C106.671 17.8591 106.671 17.953 106.671 17.953C106.671 18.1406 106.671 18.2344 106.577 18.3283C106.577 18.3283 106.577 18.3283 106.577 18.4221C106.483 18.5159 106.389 18.4221 106.108 18.2344C105.639 17.8591 103.482 16.5456 100.762 16.5456C96.3548 16.5456 90.9155 19.7356 90.9155 26.3031C90.9155 33.3398 95.8859 36.7174 101.044 36.7174C103.576 36.7174 105.358 35.5915 106.014 35.2162C106.764 34.7471 106.671 34.8409 106.764 35.4977C106.858 35.9668 106.764 36.905 108.077 36.8112C109.484 36.6236 112.86 36.2483 113.517 36.1545C114.173 35.873 113.986 35.4977 113.423 35.4039ZM101.794 35.6853C97.6677 35.6853 95.5107 30.8066 95.5107 26.1155C95.5107 20.9553 98.4179 17.4839 101.513 17.6715C105.545 17.953 106.577 21.1429 106.671 26.8661C106.671 27.2414 106.671 27.6166 106.671 28.0858C106.577 33.7151 104.232 35.6853 101.794 35.6853ZM90.8217 34.4657C90.4466 35.3101 89.6964 35.5915 89.2274 35.5915C88.6648 35.5915 86.9767 35.4977 86.9767 31.0881C86.9767 31.0881 86.9767 22.175 86.9767 21.612C86.9767 18.7035 84.726 16.358 78.9116 16.358C72.6283 16.358 72.5345 19.4541 72.5345 20.2047C72.4407 21.0491 72.9096 21.9873 74.5039 21.9873C75.9106 21.9873 76.2857 20.3923 76.4733 19.8294C76.6609 19.1727 76.7546 17.2962 79.2867 17.2962C81.4437 17.2962 82.8504 19.1727 82.8504 21.9873V22.0811C82.8504 22.175 82.8504 22.2688 82.8504 22.2688V22.5503C82.8504 22.6441 82.8504 22.8317 82.8504 22.9255C82.7566 24.3329 82.3815 24.802 81.2561 25.3649C80.1307 25.9278 76.8484 26.397 76.4733 26.4908C75.1604 26.7722 71.5029 27.7105 71.5967 31.5572C71.6905 35.31 75.4417 36.6236 78.0676 36.5297C80.5996 36.4359 82.1001 35.4039 82.7566 34.8409C83.1317 34.5595 83.1317 34.5595 83.4131 34.9348C83.7882 35.3101 85.0073 36.5297 87.9145 36.5297C90.9155 36.5297 91.2906 35.1224 91.4782 34.6533C91.6657 34.278 91.1031 33.9965 90.8217 34.4657ZM79.1929 35.4977C76.5671 35.4977 75.9106 33.3398 75.9106 32.2139C75.9106 31.1819 76.4733 29.024 79.0992 27.5228C79.0992 27.5228 80.3183 26.7722 82.6628 25.834C82.7566 25.834 82.8504 25.834 82.8504 25.834V25.9278C82.8504 26.0217 82.8504 26.1155 82.8504 26.3031V26.2093C82.8504 26.2093 82.8504 26.2093 82.8504 26.3031V30.2437C82.8504 33.246 81.3499 35.4977 79.1929 35.4977ZM70.19 35.4039C69.4398 35.2162 68.1268 34.3718 68.1268 30.2437V22.7379C68.1268 20.9553 68.3144 16.358 61.2808 16.358C57.6234 16.358 55.5602 18.2344 55.3727 18.3283C55.0913 18.6097 54.9038 18.7035 54.81 18.2344C54.7162 17.8591 54.5286 17.2962 54.4349 16.9209C54.3411 16.6395 54.1535 16.358 53.4971 16.4518C52.8406 16.5456 48.7142 17.2024 47.964 17.39C47.3075 17.5777 47.4951 17.8591 47.964 17.953C48.4329 18.0468 50.6836 18.2344 50.6836 22.0811C50.6836 25.9278 50.6836 30.1498 50.6836 30.1498C50.6836 34.8409 49.7458 35.2162 48.9018 35.4977C47.7764 35.7792 48.3391 36.1545 48.808 36.1545C48.808 36.1545 57.1545 36.1545 57.3421 36.1545C57.9047 36.1545 58.1861 35.5915 57.0607 35.4039C55.9353 35.2162 54.9038 34.5595 54.9038 30.9004C54.9038 30.5251 54.9038 26.4908 54.9038 25.7402C54.9038 23.7699 54.4349 17.7653 59.8741 17.6715C63.7191 17.5777 64.0943 20.7676 64.0943 22.8317V30.8066C64.0943 34.0904 63.1565 35.1224 62.0311 35.3101C60.9995 35.4977 61.1871 35.9668 61.7497 35.9668C61.9373 35.9668 70.4713 35.9668 70.4713 35.9668C70.9402 36.1545 71.4091 35.6853 70.19 35.4039ZM47.4013 34.4657C47.0262 35.3101 46.276 35.5915 45.8071 35.5915C45.2444 35.5915 43.5563 35.4977 43.5563 31.0881C43.5563 31.0881 43.5563 22.175 43.5563 21.612C43.5563 18.7035 41.3056 16.358 35.4912 16.358C29.2079 16.358 29.1141 19.4541 29.1141 20.2047C29.0203 21.0491 29.4892 21.9873 31.0835 21.9873C32.4902 21.9873 32.8653 20.3923 33.0529 19.8294C33.2405 19.1727 33.3342 17.2962 35.8663 17.2962C38.0233 17.2962 39.3362 19.1727 39.43 21.8935C39.43 22.3626 39.43 22.6441 39.43 22.9255C39.43 23.1132 39.43 23.3008 39.3362 23.3946V23.4885C39.1486 24.4267 38.6797 24.8958 37.8357 25.2711C36.7103 25.834 33.428 26.3031 33.0529 26.397C31.74 26.6784 28.0825 27.6166 28.1763 31.4633C28.2701 35.2162 32.0213 36.5297 34.6472 36.4359C37.1792 36.3421 38.6797 35.3101 39.3362 34.7471C39.7113 34.4657 39.7113 34.4657 39.9927 34.8409C40.3678 35.2162 41.5869 36.4359 44.4941 36.4359C47.4951 36.4359 47.8702 35.0286 48.0578 34.5595C48.2453 34.278 47.5889 33.9965 47.4013 34.4657ZM35.6787 35.4977C33.0529 35.4977 32.3964 33.3398 32.3964 32.2139C32.3964 31.0881 32.9591 29.024 35.585 27.5228C35.585 27.5228 36.8041 26.7722 39.1486 25.834C39.2424 25.834 39.3362 25.834 39.3362 25.834C39.3362 25.834 39.43 25.9278 39.43 26.0217C39.43 26.0217 39.43 26.1155 39.43 26.2093V26.3031V30.2437C39.43 33.246 37.9295 35.4977 35.6787 35.4977ZM26.6758 27.3352C25.738 30.3375 23.9562 35.2162 17.4853 35.4039C10.7331 35.4977 6.70056 30.9004 6.513 22.3626C6.23166 13.2619 10.1704 6.31903 16.2662 6.13139C23.1122 6.03757 25.5505 14.2001 25.6442 15.4198C25.738 16.358 26.9572 16.2642 26.9572 15.326C26.9572 14.8568 26.3945 6.78814 26.2069 5.84992C26.0194 4.9117 25.2691 5.28699 25.0816 5.66228C24.9878 5.94375 25.1753 5.38081 24.8002 6.22521C24.4251 7.06961 23.3935 6.6005 23.0184 6.50668C21.893 6.03757 19.7361 4.9117 16.2662 5.00552C8.29483 5.19317 0.135925 11.104 0.323486 21.4244C0.511047 31.4633 8.57617 37.0927 16.0786 36.9988C22.9246 36.905 26.7696 32.5892 27.895 27.6166C28.2701 26.397 27.0509 26.1155 26.6758 27.3352Z" fill="black"/>
</svg>
