<svg width="185" height="35" viewBox="0 0 185 35" fill="none" xmlns="http://www.w3.org/2000/svg">
<g clip-path="url(#clip0)">
<path d="M18.2529 8.52214C18.1406 8.71658 17.86 8.71658 17.7477 8.52214L15.6065 4.81346C15.4942 4.61901 15.6346 4.37596 15.8591 4.37596L20.1415 4.37596C20.366 4.37596 20.5063 4.61901 20.3941 4.81346L18.2529 8.52214Z" fill="#778798"/>
<path d="M17.7471 26.4779C17.8594 26.2834 18.14 26.2834 18.2523 26.4779L20.3935 30.1865C20.5058 30.381 20.3654 30.624 20.1409 30.624L15.8585 30.624C15.634 30.624 15.4937 30.381 15.6059 30.1865L17.7471 26.4779Z" fill="#778798"/>
<path d="M24.5279 11.3295C24.311 11.3876 24.1126 11.1891 24.1707 10.9723L25.2791 6.83578C25.3372 6.6189 25.6083 6.54626 25.767 6.70503L28.7952 9.73315C28.9539 9.89192 28.8813 10.163 28.6644 10.2211L24.5279 11.3295Z" fill="#778798"/>
<path d="M11.4721 23.6705C11.689 23.6124 11.8874 23.8109 11.8293 24.0277L10.7209 28.1642C10.6628 28.3811 10.3917 28.4537 10.233 28.295L7.20484 25.2668C7.04608 25.1081 7.11871 24.837 7.33559 24.7789L11.4721 23.6705Z" fill="#778798"/>
<path d="M26.9788 17.7529C26.7844 17.6406 26.7844 17.36 26.9788 17.2477L30.6875 15.1065C30.882 14.9942 31.125 15.1346 31.125 15.3591L31.125 19.6415C31.125 19.866 30.882 20.0063 30.6875 19.8941L26.9788 17.7529Z" fill="#778798"/>
<path d="M9.02116 17.2471C9.2156 17.3594 9.2156 17.64 9.02116 17.7523L5.31248 19.8935C5.11803 20.0058 4.87498 19.8654 4.87498 19.6409L4.87498 15.3585C4.87498 15.134 5.11803 14.9937 5.31248 15.1059L9.02116 17.2471Z" fill="#778798"/>
<path d="M24.1705 24.0279C24.1124 23.811 24.3109 23.6126 24.5277 23.6707L28.6642 24.7791C28.8811 24.8372 28.9537 25.1083 28.795 25.267L25.7668 28.2952C25.6081 28.4539 25.337 28.3813 25.2789 28.1644L24.1705 24.0279Z" fill="#778798"/>
<path d="M11.8295 10.9721C11.8876 11.189 11.6891 11.3874 11.4723 11.3293L7.33578 10.2209C7.1189 10.1628 7.04626 9.89172 7.20503 9.73296L10.2332 6.70484C10.3919 6.54607 10.663 6.61871 10.7211 6.83559L11.8295 10.9721Z" fill="#778798"/>
<path d="M14.3551 10.452C14.6833 10.1238 15.1284 9.93945 15.5925 9.93945L20.4066 9.93945C20.8708 9.93945 21.3159 10.1238 21.6441 10.452L25.0481 13.8561C25.3763 14.1843 25.5607 14.6294 25.5607 15.0935V19.9076C25.5607 20.3717 25.3763 20.8168 25.0481 21.145L21.6441 24.5491C21.3159 24.8773 20.8708 25.0617 20.4066 25.0617H15.5925C15.1284 25.0617 14.6833 24.8773 14.3551 24.5491L10.951 21.145C10.6229 20.8168 10.4385 20.3717 10.4385 19.9076L10.4385 15.0935C10.4385 14.6294 10.6229 14.1843 10.951 13.8561L14.3551 10.452Z" fill="#FF0000"/>
<path d="M18.3084 23.1308L18.2213 20.6476C18.2213 20.4079 18.4173 20.4079 18.853 20.4951L20.857 20.8872L20.5956 20.2337C20.5085 19.9723 20.4867 19.8198 20.6828 19.6455L23.0571 17.7069L22.6215 17.4455C22.4908 17.3583 22.4908 17.2494 22.5561 17.0316L22.9918 15.5939L21.8373 15.8335C21.5105 15.8989 21.4234 15.8335 21.3581 15.6592L21.0313 15.0058L19.8986 16.291C19.7025 16.5306 19.4194 16.3781 19.5065 16.0296L20.0511 13.372L19.2233 13.8513C19.0926 13.9384 18.9401 13.9602 18.8748 13.8077L17.9817 12.0215L17.0886 13.8077C17.0015 13.9602 16.8708 13.9384 16.7401 13.8513L15.9123 13.372L16.4569 16.0296C16.544 16.3781 16.2608 16.5306 16.0648 16.291L14.9321 15.0058L14.6053 15.6592C14.5182 15.8335 14.4311 15.9206 14.1261 15.8335L12.9716 15.5939L13.4073 17.0316C13.4726 17.2494 13.4726 17.3583 13.3419 17.4455L12.9062 17.7069L15.2806 19.6455C15.4766 19.8198 15.4549 19.9941 15.3677 20.2337L15.1063 20.8872L17.1104 20.4951C17.546 20.4079 17.7421 20.4079 17.7421 20.6476L17.6549 23.1308H18.3084Z" fill="white"/>
<path d="M50.8733 10.875C48.9567 10.875 47.4483 11.5167 46.3483 12.8C45.2483 14.0833 44.6983 15.8417 44.6983 18.075C44.6983 20.2917 45.2067 22.05 46.2233 23.35C47.2567 24.6333 48.7983 25.275 50.8483 25.275C51.6317 25.275 52.3733 25.2083 53.0733 25.075C53.7733 24.9417 54.4567 24.775 55.1233 24.575V26.525C54.4567 26.775 53.765 26.9583 53.0483 27.075C52.3483 27.1917 51.5067 27.25 50.5233 27.25C48.7067 27.25 47.19 26.875 45.9733 26.125C44.7567 25.375 43.84 24.3083 43.2233 22.925C42.6233 21.5417 42.3233 19.9167 42.3233 18.05C42.3233 16.25 42.6483 14.6667 43.2983 13.3C43.965 11.9167 44.94 10.8417 46.2233 10.075C47.5067 9.29167 49.065 8.9 50.8983 8.9C52.7817 8.9 54.4233 9.25 55.8233 9.95L54.9233 11.85C54.3733 11.6 53.7567 11.375 53.0733 11.175C52.4067 10.975 51.6733 10.875 50.8733 10.875ZM74.106 18.05C74.106 19.9 73.7893 21.5167 73.156 22.9C72.5393 24.2667 71.6226 25.3333 70.406 26.1C69.1893 26.8667 67.681 27.25 65.881 27.25C64.031 27.25 62.4893 26.8667 61.256 26.1C60.0393 25.3333 59.131 24.2583 58.531 22.875C57.931 21.4917 57.631 19.875 57.631 18.025C57.631 16.1917 57.931 14.5917 58.531 13.225C59.131 11.8583 60.0393 10.7917 61.256 10.025C62.4893 9.25833 64.0393 8.875 65.906 8.875C67.6893 8.875 69.1893 9.25833 70.406 10.025C71.6226 10.775 72.5393 11.8417 73.156 13.225C73.7893 14.5917 74.106 16.2 74.106 18.05ZM60.006 18.05C60.006 20.3 60.481 22.075 61.431 23.375C62.381 24.6583 63.8643 25.3 65.881 25.3C67.9143 25.3 69.3976 24.6583 70.331 23.375C71.2643 22.075 71.731 20.3 71.731 18.05C71.731 15.8 71.2643 14.0417 70.331 12.775C69.3976 11.4917 67.9226 10.85 65.906 10.85C63.8893 10.85 62.3976 11.4917 61.431 12.775C60.481 14.0417 60.006 15.8 60.006 18.05ZM90.3931 9.15L84.0181 27H81.7681L75.3931 9.15H77.7431L81.7681 20.6C82.0347 21.3333 82.2597 22.025 82.4431 22.675C82.6264 23.3083 82.7764 23.9167 82.8931 24.5C83.0097 23.9167 83.1597 23.3 83.3431 22.65C83.5264 22 83.7514 21.3 84.0181 20.55L88.0181 9.15H90.3931ZM97.8333 27H91.3833V25.7L93.4833 25.225V10.95L91.3833 10.45V9.15H97.8333V10.45L95.7333 10.95V25.225L97.8333 25.7V27ZM114.33 17.9C114.33 20.9167 113.505 23.1917 111.855 24.725C110.222 26.2417 107.938 27 105.005 27H100.03V9.15H105.53C107.33 9.15 108.888 9.48333 110.205 10.15C111.522 10.8167 112.538 11.8 113.255 13.1C113.972 14.3833 114.33 15.9833 114.33 17.9ZM111.955 17.975C111.955 15.5917 111.363 13.85 110.18 12.75C109.013 11.6333 107.355 11.075 105.205 11.075H102.28V25.075H104.705C109.538 25.075 111.955 22.7083 111.955 17.975ZM135.536 27L134.236 22.75H127.736L126.436 27H122.361L128.661 9.075H133.286L139.611 27H135.536ZM133.336 19.575L132.036 15.425C131.953 15.1417 131.844 14.7833 131.711 14.35C131.578 13.9167 131.444 13.475 131.311 13.025C131.178 12.575 131.069 12.1833 130.986 11.85C130.903 12.1833 130.786 12.6 130.636 13.1C130.503 13.5833 130.369 14.05 130.236 14.5C130.119 14.9333 130.028 15.2417 129.961 15.425L128.686 19.575H133.336ZM145.297 27H141.572V8H145.297V27ZM154.814 13.1C156.697 13.1 158.189 13.6417 159.289 14.725C160.389 15.7917 160.939 17.3167 160.939 19.3V21.1H152.139C152.172 22.15 152.48 22.975 153.064 23.575C153.664 24.175 154.489 24.475 155.539 24.475C156.422 24.475 157.222 24.3917 157.939 24.225C158.655 24.0417 159.397 23.7667 160.164 23.4V26.275C159.497 26.6083 158.789 26.85 158.039 27C157.305 27.1667 156.414 27.25 155.364 27.25C153.997 27.25 152.789 27 151.739 26.5C150.689 25.9833 149.864 25.2083 149.264 24.175C148.664 23.1417 148.364 21.8417 148.364 20.275C148.364 18.675 148.63 17.35 149.164 16.3C149.714 15.2333 150.472 14.4333 151.439 13.9C152.405 13.3667 153.53 13.1 154.814 13.1ZM154.839 15.75C154.122 15.75 153.522 15.9833 153.039 16.45C152.572 16.9167 152.297 17.6417 152.214 18.625H157.439C157.422 17.7917 157.205 17.1083 156.789 16.575C156.372 16.025 155.722 15.75 154.839 15.75ZM171.584 13.1C171.768 13.1 171.984 13.1083 172.234 13.125C172.484 13.1417 172.684 13.1667 172.834 13.2L172.559 16.7C172.443 16.6667 172.268 16.6417 172.034 16.625C171.818 16.5917 171.626 16.575 171.459 16.575C170.826 16.575 170.218 16.6917 169.634 16.925C169.051 17.1417 168.576 17.5 168.209 18C167.859 18.5 167.684 19.1833 167.684 20.05V27H163.959V13.35H166.784L167.334 15.65H167.509C167.909 14.95 168.459 14.35 169.159 13.85C169.859 13.35 170.668 13.1 171.584 13.1ZM181.062 24.275C181.478 24.275 181.878 24.2333 182.262 24.15C182.645 24.0667 183.028 23.9667 183.412 23.85V26.625C183.012 26.7917 182.512 26.9333 181.912 27.05C181.328 27.1833 180.687 27.25 179.987 27.25C179.17 27.25 178.437 27.1167 177.787 26.85C177.153 26.5833 176.645 26.125 176.262 25.475C175.895 24.8083 175.712 23.8917 175.712 22.725V16.15H173.937V14.575L175.987 13.325L177.062 10.45H179.437V13.35H183.262V16.15H179.437V22.725C179.437 23.2417 179.587 23.6333 179.887 23.9C180.187 24.15 180.578 24.275 181.062 24.275Z" fill="black"/>
</g>
<defs>
<clipPath id="clip0">
<rect width="184" height="35" fill="white" transform="translate(0.5)"/>
</clipPath>
</defs>
</svg>
