<svg width="172" height="25" viewBox="0 0 172 25" fill="none" xmlns="http://www.w3.org/2000/svg">
<path d="M0 12.6437L0.863026 12.3563C1.4384 12.069 1.43844 11.4943 1.43844 11.2069C1.15075 10.9195 0.28766 8.04598 0.28766 8.04598C0.28766 8.04598 2.58916 8.62069 3.16453 8.62069C3.45222 8.90805 3.7399 8.62069 3.7399 8.33333C4.02759 8.04598 4.31531 7.18391 4.31531 7.18391L7.19218 10.3448C7.76755 10.6322 8.05521 10.3448 8.05521 9.77012C8.05521 9.1954 6.61677 3.16092 6.61677 3.16092C6.61677 3.16092 8.05524 4.02299 8.63062 4.31034C8.9183 4.5977 9.20596 4.5977 9.49364 4.02299L11.5075 0C11.5075 0.287356 13.2336 3.44828 13.5213 4.02299C13.5213 4.5977 13.809 4.5977 14.3844 4.31034C14.9597 4.02299 16.3982 3.16092 16.3982 3.16092C16.3982 3.16092 14.9597 9.1954 14.9597 9.77012C14.672 10.3448 15.2474 10.9195 15.8228 10.3448C16.1105 10.0575 18.6997 7.18391 18.6997 7.18391C18.6997 7.18391 19.275 8.33333 19.275 8.62069C19.275 8.90805 19.5627 8.90804 19.8504 8.90804C20.1381 8.90804 22.4396 8.33333 22.4396 8.33333C22.4396 8.33333 21.5765 11.2069 21.5765 11.4943C21.5765 11.7816 21.2888 12.069 21.8642 12.3563L22.7273 12.6437C22.7273 12.6437 17.8366 16.954 17.5489 17.2414C17.2612 17.5287 16.9735 17.5287 17.2612 18.3908C17.5489 18.9655 17.8366 20.1149 17.8366 20.1149C17.8366 20.1149 13.2336 18.9655 12.6582 18.9655C12.0828 18.9655 11.7951 18.9655 11.7951 19.5402C11.7951 19.8276 12.0829 25 12.0829 25H10.6444C10.6444 25 10.9321 20.1149 10.9321 19.5402C10.9321 18.9655 10.6444 18.9655 10.0691 18.9655C9.49368 19.2529 4.89067 20.1149 4.89067 20.1149L5.46604 18.3908C5.75373 17.5287 5.46602 17.5287 5.17833 17.2414C5.17833 16.954 0 12.6437 0 12.6437Z" fill="#FF0000"/>
<path d="M38.1006 5.875C36.184 5.875 34.6756 6.51667 33.5756 7.8C32.4756 9.08333 31.9256 10.8417 31.9256 13.075C31.9256 15.2917 32.434 17.05 33.4506 18.35C34.484 19.6333 36.0256 20.275 38.0756 20.275C38.859 20.275 39.6006 20.2083 40.3006 20.075C41.0006 19.9417 41.684 19.775 42.3506 19.575V21.525C41.684 21.775 40.9923 21.9583 40.2756 22.075C39.5756 22.1917 38.734 22.25 37.7506 22.25C35.934 22.25 34.4173 21.875 33.2006 21.125C31.984 20.375 31.0673 19.3083 30.4506 17.925C29.8506 16.5417 29.5506 14.9167 29.5506 13.05C29.5506 11.25 29.8756 9.66667 30.5256 8.3C31.1923 6.91667 32.1673 5.84167 33.4506 5.075C34.734 4.29167 36.2923 3.9 38.1256 3.9C40.009 3.9 41.6506 4.25 43.0506 4.95L42.1506 6.85C41.6006 6.6 40.984 6.375 40.3006 6.175C39.634 5.975 38.9006 5.875 38.1006 5.875ZM61.3333 13.05C61.3333 14.9 61.0166 16.5167 60.3833 17.9C59.7666 19.2667 58.8499 20.3333 57.6333 21.1C56.4166 21.8667 54.9083 22.25 53.1083 22.25C51.2583 22.25 49.7166 21.8667 48.4833 21.1C47.2666 20.3333 46.3583 19.2583 45.7583 17.875C45.1583 16.4917 44.8583 14.875 44.8583 13.025C44.8583 11.1917 45.1583 9.59167 45.7583 8.225C46.3583 6.85833 47.2666 5.79167 48.4833 5.025C49.7166 4.25833 51.2666 3.875 53.1333 3.875C54.9166 3.875 56.4166 4.25833 57.6333 5.025C58.8499 5.775 59.7666 6.84167 60.3833 8.225C61.0166 9.59167 61.3333 11.2 61.3333 13.05ZM47.2333 13.05C47.2333 15.3 47.7083 17.075 48.6583 18.375C49.6083 19.6583 51.0916 20.3 53.1083 20.3C55.1416 20.3 56.6249 19.6583 57.5583 18.375C58.4916 17.075 58.9583 15.3 58.9583 13.05C58.9583 10.8 58.4916 9.04167 57.5583 7.775C56.6249 6.49167 55.1499 5.85 53.1333 5.85C51.1166 5.85 49.6249 6.49167 48.6583 7.775C47.7083 9.04167 47.2333 10.8 47.2333 13.05ZM77.6204 4.15L71.2454 22H68.9954L62.6204 4.15H64.9704L68.9954 15.6C69.262 16.3333 69.487 17.025 69.6704 17.675C69.8537 18.3083 70.0037 18.9167 70.1204 19.5C70.237 18.9167 70.387 18.3 70.5704 17.65C70.7537 17 70.9787 16.3 71.2454 15.55L75.2454 4.15H77.6204ZM85.0606 22H78.6106V20.7L80.7106 20.225V5.95L78.6106 5.45V4.15H85.0606V5.45L82.9606 5.95V20.225L85.0606 20.7V22ZM101.557 12.9C101.557 15.9167 100.732 18.1917 99.0823 19.725C97.4489 21.2417 95.1656 22 92.2323 22H87.2573V4.15H92.7573C94.5573 4.15 96.1156 4.48333 97.4323 5.15C98.7489 5.81667 99.7656 6.8 100.482 8.1C101.199 9.38333 101.557 10.9833 101.557 12.9ZM99.1823 12.975C99.1823 10.5917 98.5906 8.85 97.4073 7.75C96.2406 6.63333 94.5823 6.075 92.4323 6.075H89.5073V20.075H91.9323C96.7656 20.075 99.1823 17.7083 99.1823 12.975ZM122.763 22L121.463 17.75H114.963L113.663 22H109.588L115.888 4.075H120.513L126.838 22H122.763ZM120.563 14.575L119.263 10.425C119.18 10.1417 119.071 9.78333 118.938 9.35C118.805 8.91667 118.671 8.475 118.538 8.025C118.405 7.575 118.296 7.18333 118.213 6.85C118.13 7.18333 118.013 7.6 117.863 8.1C117.73 8.58333 117.596 9.05 117.463 9.5C117.346 9.93333 117.255 10.2417 117.188 10.425L115.913 14.575H120.563ZM132.524 22H128.799V3H132.524V22ZM142.041 8.1C143.924 8.1 145.416 8.64167 146.516 9.725C147.616 10.7917 148.166 12.3167 148.166 14.3V16.1H139.366C139.399 17.15 139.708 17.975 140.291 18.575C140.891 19.175 141.716 19.475 142.766 19.475C143.649 19.475 144.449 19.3917 145.166 19.225C145.883 19.0417 146.624 18.7667 147.391 18.4V21.275C146.724 21.6083 146.016 21.85 145.266 22C144.533 22.1667 143.641 22.25 142.591 22.25C141.224 22.25 140.016 22 138.966 21.5C137.916 20.9833 137.091 20.2083 136.491 19.175C135.891 18.1417 135.591 16.8417 135.591 15.275C135.591 13.675 135.858 12.35 136.391 11.3C136.941 10.2333 137.699 9.43333 138.666 8.9C139.633 8.36667 140.758 8.1 142.041 8.1ZM142.066 10.75C141.349 10.75 140.749 10.9833 140.266 11.45C139.799 11.9167 139.524 12.6417 139.441 13.625H144.666C144.649 12.7917 144.433 12.1083 144.016 11.575C143.599 11.025 142.949 10.75 142.066 10.75ZM158.812 8.1C158.995 8.1 159.212 8.10833 159.462 8.125C159.712 8.14167 159.912 8.16667 160.062 8.2L159.787 11.7C159.67 11.6667 159.495 11.6417 159.262 11.625C159.045 11.5917 158.853 11.575 158.687 11.575C158.053 11.575 157.445 11.6917 156.862 11.925C156.278 12.1417 155.803 12.5 155.437 13C155.087 13.5 154.912 14.1833 154.912 15.05V22H151.187V8.35H154.012L154.562 10.65H154.737C155.137 9.95 155.687 9.35 156.387 8.85C157.087 8.35 157.895 8.1 158.812 8.1ZM168.289 19.275C168.706 19.275 169.106 19.2333 169.489 19.15C169.872 19.0667 170.256 18.9667 170.639 18.85V21.625C170.239 21.7917 169.739 21.9333 169.139 22.05C168.556 22.1833 167.914 22.25 167.214 22.25C166.397 22.25 165.664 22.1167 165.014 21.85C164.381 21.5833 163.872 21.125 163.489 20.475C163.122 19.8083 162.939 18.8917 162.939 17.725V11.15H161.164V9.575L163.214 8.325L164.289 5.45H166.664V8.35H170.489V11.15H166.664V17.725C166.664 18.2417 166.814 18.6333 167.114 18.9C167.414 19.15 167.806 19.275 168.289 19.275Z" fill="black"/>
</svg>
