<svg width="188" height="25" viewBox="0 0 188 25" fill="none" xmlns="http://www.w3.org/2000/svg">
<path d="M0.5 12.6437L1.36303 12.3563C1.9384 12.069 1.93844 11.4943 1.93844 11.2069C1.65075 10.9195 0.78766 8.04598 0.78766 8.04598C0.78766 8.04598 3.08916 8.62069 3.66453 8.62069C3.95222 8.90805 4.2399 8.62069 4.2399 8.33333C4.52759 8.04598 4.81531 7.18391 4.81531 7.18391L7.69218 10.3448C8.26755 10.6322 8.55521 10.3448 8.55521 9.77012C8.55521 9.1954 7.11677 3.16092 7.11677 3.16092C7.11677 3.16092 8.55524 4.02299 9.13062 4.31034C9.4183 4.5977 9.70596 4.5977 9.99364 4.02299L12.0075 0C12.0075 0.287356 13.7336 3.44828 14.0213 4.02299C14.0213 4.5977 14.309 4.5977 14.8844 4.31034C15.4597 4.02299 16.8982 3.16092 16.8982 3.16092C16.8982 3.16092 15.4597 9.1954 15.4597 9.77012C15.172 10.3448 15.7474 10.9195 16.3228 10.3448C16.6105 10.0575 19.1997 7.18391 19.1997 7.18391C19.1997 7.18391 19.775 8.33333 19.775 8.62069C19.775 8.90805 20.0627 8.90804 20.3504 8.90804C20.6381 8.90804 22.9396 8.33333 22.9396 8.33333C22.9396 8.33333 22.0765 11.2069 22.0765 11.4943C22.0765 11.7816 21.7888 12.069 22.3642 12.3563L23.2273 12.6437C23.2273 12.6437 18.3366 16.954 18.0489 17.2414C17.7612 17.5287 17.4735 17.5287 17.7612 18.3908C18.0489 18.9655 18.3366 20.1149 18.3366 20.1149C18.3366 20.1149 13.7336 18.9655 13.1582 18.9655C12.5828 18.9655 12.2951 18.9655 12.2951 19.5402C12.2951 19.8276 12.5829 25 12.5829 25H11.1444C11.1444 25 11.4321 20.1149 11.4321 19.5402C11.4321 18.9655 11.1444 18.9655 10.5691 18.9655C9.99368 19.2529 5.39067 20.1149 5.39067 20.1149L5.96604 18.3908C6.25373 17.5287 5.96602 17.5287 5.67833 17.2414C5.67833 16.954 0.5 12.6437 0.5 12.6437Z" fill="#FF0000"/>
<path d="M41.8154 22L40.5154 17.75H34.0154L32.7154 22H28.6404L34.9404 4.075H39.5654L45.8904 22H41.8154ZM39.6154 14.575L38.3154 10.425C38.232 10.1417 38.1237 9.78333 37.9904 9.35C37.857 8.91667 37.7237 8.475 37.5904 8.025C37.457 7.575 37.3487 7.18333 37.2654 6.85C37.182 7.18333 37.0654 7.6 36.9154 8.1C36.782 8.58333 36.6487 9.05 36.5154 9.5C36.3987 9.93333 36.307 10.2417 36.2404 10.425L34.9654 14.575H39.6154ZM51.5761 22H47.8511V3H51.5761V22ZM61.0933 8.1C62.9766 8.1 64.4683 8.64167 65.5683 9.725C66.6683 10.7917 67.2183 12.3167 67.2183 14.3V16.1H58.4183C58.4516 17.15 58.76 17.975 59.3433 18.575C59.9433 19.175 60.7683 19.475 61.8183 19.475C62.7016 19.475 63.5016 19.3917 64.2183 19.225C64.935 19.0417 65.6766 18.7667 66.4433 18.4V21.275C65.7766 21.6083 65.0683 21.85 64.3183 22C63.585 22.1667 62.6933 22.25 61.6433 22.25C60.2766 22.25 59.0683 22 58.0183 21.5C56.9683 20.9833 56.1433 20.2083 55.5433 19.175C54.9433 18.1417 54.6433 16.8417 54.6433 15.275C54.6433 13.675 54.91 12.35 55.4433 11.3C55.9933 10.2333 56.7516 9.43333 57.7183 8.9C58.685 8.36667 59.81 8.1 61.0933 8.1ZM61.1183 10.75C60.4016 10.75 59.8016 10.9833 59.3183 11.45C58.8516 11.9167 58.5766 12.6417 58.4933 13.625H63.7183C63.7016 12.7917 63.485 12.1083 63.0683 11.575C62.6516 11.025 62.0016 10.75 61.1183 10.75ZM77.8638 8.1C78.0472 8.1 78.2638 8.10833 78.5138 8.125C78.7638 8.14167 78.9638 8.16667 79.1138 8.2L78.8388 11.7C78.7222 11.6667 78.5472 11.6417 78.3138 11.625C78.0972 11.5917 77.9055 11.575 77.7388 11.575C77.1055 11.575 76.4972 11.6917 75.9138 11.925C75.3305 12.1417 74.8555 12.5 74.4888 13C74.1388 13.5 73.9638 14.1833 73.9638 15.05V22H70.2388V8.35H73.0638L73.6138 10.65H73.7888C74.1888 9.95 74.7388 9.35 75.4388 8.85C76.1388 8.35 76.9472 8.1 77.8638 8.1ZM87.3414 19.275C87.758 19.275 88.158 19.2333 88.5414 19.15C88.9247 19.0667 89.308 18.9667 89.6914 18.85V21.625C89.2914 21.7917 88.7914 21.9333 88.1914 22.05C87.608 22.1833 86.9664 22.25 86.2664 22.25C85.4497 22.25 84.7164 22.1167 84.0664 21.85C83.433 21.5833 82.9247 21.125 82.5414 20.475C82.1747 19.8083 81.9914 18.8917 81.9914 17.725V11.15H80.2164V9.575L82.2664 8.325L83.3414 5.45H85.7164V8.35H89.5414V11.15H85.7164V17.725C85.7164 18.2417 85.8664 18.6333 86.1664 18.9C86.4664 19.15 86.858 19.275 87.3414 19.275ZM98.0562 8.1C99.9395 8.1 101.431 8.64167 102.531 9.725C103.631 10.7917 104.181 12.3167 104.181 14.3V16.1H95.3812C95.4145 17.15 95.7229 17.975 96.3062 18.575C96.9062 19.175 97.7312 19.475 98.7812 19.475C99.6645 19.475 100.465 19.3917 101.181 19.225C101.898 19.0417 102.64 18.7667 103.406 18.4V21.275C102.74 21.6083 102.031 21.85 101.281 22C100.548 22.1667 99.6562 22.25 98.6062 22.25C97.2395 22.25 96.0312 22 94.9812 21.5C93.9312 20.9833 93.1062 20.2083 92.5062 19.175C91.9062 18.1417 91.6062 16.8417 91.6062 15.275C91.6062 13.675 91.8729 12.35 92.4062 11.3C92.9562 10.2333 93.7145 9.43333 94.6812 8.9C95.6479 8.36667 96.7729 8.1 98.0562 8.1ZM98.0812 10.75C97.3645 10.75 96.7645 10.9833 96.2812 11.45C95.8145 11.9167 95.5395 12.6417 95.4562 13.625H100.681C100.665 12.7917 100.448 12.1083 100.031 11.575C99.6145 11.025 98.9645 10.75 98.0812 10.75ZM121.821 5.875C119.904 5.875 118.396 6.51667 117.296 7.8C116.196 9.08333 115.646 10.8417 115.646 13.075C115.646 15.2917 116.154 17.05 117.171 18.35C118.204 19.6333 119.746 20.275 121.796 20.275C122.579 20.275 123.321 20.2083 124.021 20.075C124.721 19.9417 125.404 19.775 126.071 19.575V21.525C125.404 21.775 124.713 21.9583 123.996 22.075C123.296 22.1917 122.454 22.25 121.471 22.25C119.654 22.25 118.138 21.875 116.921 21.125C115.704 20.375 114.788 19.3083 114.171 17.925C113.571 16.5417 113.271 14.9167 113.271 13.05C113.271 11.25 113.596 9.66667 114.246 8.3C114.913 6.91667 115.888 5.84167 117.171 5.075C118.454 4.29167 120.013 3.9 121.846 3.9C123.729 3.9 125.371 4.25 126.771 4.95L125.871 6.85C125.321 6.6 124.704 6.375 124.021 6.175C123.354 5.975 122.621 5.875 121.821 5.875ZM145.053 13.05C145.053 14.9 144.737 16.5167 144.103 17.9C143.487 19.2667 142.57 20.3333 141.353 21.1C140.137 21.8667 138.628 22.25 136.828 22.25C134.978 22.25 133.437 21.8667 132.203 21.1C130.987 20.3333 130.078 19.2583 129.478 17.875C128.878 16.4917 128.578 14.875 128.578 13.025C128.578 11.1917 128.878 9.59167 129.478 8.225C130.078 6.85833 130.987 5.79167 132.203 5.025C133.437 4.25833 134.987 3.875 136.853 3.875C138.637 3.875 140.137 4.25833 141.353 5.025C142.57 5.775 143.487 6.84167 144.103 8.225C144.737 9.59167 145.053 11.2 145.053 13.05ZM130.953 13.05C130.953 15.3 131.428 17.075 132.378 18.375C133.328 19.6583 134.812 20.3 136.828 20.3C138.862 20.3 140.345 19.6583 141.278 18.375C142.212 17.075 142.678 15.3 142.678 13.05C142.678 10.8 142.212 9.04167 141.278 7.775C140.345 6.49167 138.87 5.85 136.853 5.85C134.837 5.85 133.345 6.49167 132.378 7.775C131.428 9.04167 130.953 10.8 130.953 13.05ZM161.341 4.15L154.966 22H152.716L146.341 4.15H148.691L152.716 15.6C152.982 16.3333 153.207 17.025 153.391 17.675C153.574 18.3083 153.724 18.9167 153.841 19.5C153.957 18.9167 154.107 18.3 154.291 17.65C154.474 17 154.699 16.3 154.966 15.55L158.966 4.15H161.341ZM168.781 22H162.331V20.7L164.431 20.225V5.95L162.331 5.45V4.15H168.781V5.45L166.681 5.95V20.225L168.781 20.7V22ZM185.277 12.9C185.277 15.9167 184.452 18.1917 182.802 19.725C181.169 21.2417 178.886 22 175.952 22H170.977V4.15H176.477C178.277 4.15 179.836 4.48333 181.152 5.15C182.469 5.81667 183.486 6.8 184.202 8.1C184.919 9.38333 185.277 10.9833 185.277 12.9ZM182.902 12.975C182.902 10.5917 182.311 8.85 181.127 7.75C179.961 6.63333 178.302 6.075 176.152 6.075H173.227V20.075H175.652C180.486 20.075 182.902 17.7083 182.902 12.975Z" fill="black"/>
</svg>
