<svg width="199" height="35" viewBox="0 0 199 35" fill="none" xmlns="http://www.w3.org/2000/svg">
<path d="M17.7524 8.5211C17.6402 8.71554 17.3595 8.71554 17.2473 8.5211L15.1061 4.81242C14.9938 4.61797 15.1341 4.37492 15.3587 4.37492L19.6411 4.37492C19.8656 4.37492 20.0059 4.61797 19.8937 4.81242L17.7524 8.5211Z" fill="#778798"/>
<path d="M17.2474 26.4788C17.3596 26.2843 17.6403 26.2843 17.7525 26.4788L19.8938 30.1875C20.006 30.3819 19.8657 30.625 19.6412 30.625L15.3588 30.625C15.1342 30.625 14.9939 30.3819 15.1062 30.1875L17.2474 26.4788Z" fill="#778798"/>
<path d="M24.0274 11.3296C23.8105 11.3877 23.612 11.1892 23.6702 10.9723L24.7785 6.83584C24.8366 6.61896 25.1077 6.54633 25.2665 6.70509L28.2946 9.73321C28.4534 9.89198 28.3807 10.1631 28.1639 10.2212L24.0274 11.3296Z" fill="#778798"/>
<path d="M10.9722 23.6703C11.1891 23.6122 11.3875 23.8106 11.3294 24.0275L10.2211 28.164C10.1629 28.3809 9.89185 28.4535 9.73308 28.2947L6.70496 25.2666C6.5462 25.1078 6.61884 24.8367 6.83571 24.7786L10.9722 23.6703Z" fill="#778798"/>
<path d="M26.4788 17.7524C26.2843 17.6402 26.2843 17.3595 26.4788 17.2473L30.1875 15.1061C30.3819 14.9938 30.625 15.1341 30.625 15.3587L30.625 19.6411C30.625 19.8656 30.3819 20.0059 30.1875 19.8937L26.4788 17.7524Z" fill="#778798"/>
<path d="M8.5211 17.2474C8.71554 17.3596 8.71554 17.6403 8.5211 17.7525L4.81242 19.8938C4.61797 20.006 4.37492 19.8657 4.37492 19.6412L4.37492 15.3588C4.37492 15.1342 4.61797 14.9939 4.81242 15.1062L8.5211 17.2474Z" fill="#778798"/>
<path d="M23.6703 24.0275C23.6122 23.8107 23.8106 23.6122 24.0275 23.6703L28.164 24.7787C28.3809 24.8368 28.4535 25.1079 28.2947 25.2667L25.2666 28.2948C25.1078 28.4536 24.8367 28.3809 24.7786 28.164L23.6703 24.0275Z" fill="#778798"/>
<path d="M11.3295 10.9723C11.3877 11.1892 11.1892 11.3877 10.9723 11.3295L6.83584 10.2212C6.61896 10.1631 6.54633 9.89197 6.70509 9.73321L9.73321 6.70508C9.89198 6.54632 10.1631 6.61896 10.2212 6.83583L11.3295 10.9723Z" fill="#778798"/>
<path d="M13.8554 10.4514C14.1836 10.1232 14.6287 9.93884 15.0929 9.93884L19.9069 9.93884C20.3711 9.93884 20.8162 10.1232 21.1444 10.4514L24.5484 13.8555C24.8766 14.1837 25.061 14.6288 25.061 15.0929V19.907C25.061 20.3711 24.8766 20.8162 24.5484 21.1444L21.1444 24.5485C20.8162 24.8767 20.3711 25.0611 19.9069 25.0611H15.0929C14.6287 25.0611 14.1836 24.8767 13.8554 24.5485L10.4513 21.1444C10.1232 20.8162 9.93878 20.3711 9.93878 19.907L9.93878 15.0929C9.93878 14.6288 10.1232 14.1837 10.4513 13.8555L13.8554 10.4514Z" fill="#FF0000"/>
<path d="M17.8087 23.1313L17.7215 20.648C17.7215 20.4084 17.9176 20.4084 18.3533 20.4956L20.3573 20.8877L20.0959 20.2342C20.0088 19.9728 19.987 19.8203 20.183 19.646L22.5574 17.7073L22.1217 17.4459C21.991 17.3588 21.991 17.2499 22.0564 17.0321L22.492 15.5944L21.3375 15.834C21.0108 15.8994 20.9236 15.834 20.8583 15.6597L20.5316 15.0062L19.3988 16.2914C19.2028 16.5311 18.9196 16.3786 19.0067 16.03L19.5513 13.3725L18.7236 13.8517C18.5929 13.9389 18.4404 13.9607 18.375 13.8082L17.4819 12.022L16.5888 13.8082C16.5017 13.9607 16.371 13.9389 16.2403 13.8517L15.4125 13.3725L15.9571 16.03C16.0443 16.3786 15.7611 16.5311 15.565 16.2914L14.4323 15.0062L14.1056 15.6597C14.0184 15.834 13.9313 15.9211 13.6263 15.834L12.4718 15.5944L12.9075 17.0321C12.9729 17.2499 12.9729 17.3588 12.8422 17.4459L12.4065 17.7073L14.7808 19.646C14.9769 19.8203 14.9551 19.9946 14.868 20.2342L14.6066 20.8877L16.6106 20.4956C17.0463 20.4084 17.2423 20.4084 17.2423 20.648L17.1552 23.1313H17.8087Z" fill="white"/>
<path d="M53.5881 27L52.2881 22.75H45.7881L44.4881 27H40.4131L46.7131 9.075H51.3381L57.6631 27H53.5881ZM51.3881 19.575L50.0881 15.425C50.0048 15.1417 49.8964 14.7833 49.7631 14.35C49.6298 13.9167 49.4964 13.475 49.3631 13.025C49.2298 12.575 49.1214 12.1833 49.0381 11.85C48.9548 12.1833 48.8381 12.6 48.6881 13.1C48.5548 13.5833 48.4214 14.05 48.2881 14.5C48.1714 14.9333 48.0798 15.2417 48.0131 15.425L46.7381 19.575H51.3881ZM63.3488 27H59.6238V8H63.3488V27ZM72.866 13.1C74.7493 13.1 76.241 13.6417 77.341 14.725C78.441 15.7917 78.991 17.3167 78.991 19.3V21.1H70.191C70.2243 22.15 70.5327 22.975 71.116 23.575C71.716 24.175 72.541 24.475 73.591 24.475C74.4743 24.475 75.2743 24.3917 75.991 24.225C76.7077 24.0417 77.4493 23.7667 78.216 23.4V26.275C77.5493 26.6083 76.841 26.85 76.091 27C75.3577 27.1667 74.466 27.25 73.416 27.25C72.0493 27.25 70.841 27 69.791 26.5C68.741 25.9833 67.916 25.2083 67.316 24.175C66.716 23.1417 66.416 21.8417 66.416 20.275C66.416 18.675 66.6827 17.35 67.216 16.3C67.766 15.2333 68.5243 14.4333 69.491 13.9C70.4577 13.3667 71.5827 13.1 72.866 13.1ZM72.891 15.75C72.1743 15.75 71.5743 15.9833 71.091 16.45C70.6243 16.9167 70.3493 17.6417 70.266 18.625H75.491C75.4743 17.7917 75.2577 17.1083 74.841 16.575C74.4243 16.025 73.7743 15.75 72.891 15.75ZM89.6365 13.1C89.8199 13.1 90.0365 13.1083 90.2865 13.125C90.5365 13.1417 90.7365 13.1667 90.8865 13.2L90.6115 16.7C90.4949 16.6667 90.3199 16.6417 90.0865 16.625C89.8699 16.5917 89.6782 16.575 89.5115 16.575C88.8782 16.575 88.2699 16.6917 87.6865 16.925C87.1032 17.1417 86.6282 17.5 86.2615 18C85.9115 18.5 85.7365 19.1833 85.7365 20.05V27H82.0115V13.35H84.8365L85.3865 15.65H85.5615C85.9615 14.95 86.5115 14.35 87.2115 13.85C87.9115 13.35 88.7199 13.1 89.6365 13.1ZM99.1141 24.275C99.5307 24.275 99.9307 24.2333 100.314 24.15C100.697 24.0667 101.081 23.9667 101.464 23.85V26.625C101.064 26.7917 100.564 26.9333 99.9641 27.05C99.3807 27.1833 98.7391 27.25 98.0391 27.25C97.2224 27.25 96.4891 27.1167 95.8391 26.85C95.2057 26.5833 94.6974 26.125 94.3141 25.475C93.9474 24.8083 93.7641 23.8917 93.7641 22.725V16.15H91.9891V14.575L94.0391 13.325L95.1141 10.45H97.4891V13.35H101.314V16.15H97.4891V22.725C97.4891 23.2417 97.6391 23.6333 97.9391 23.9C98.2391 24.15 98.6307 24.275 99.1141 24.275ZM109.829 13.1C111.712 13.1 113.204 13.6417 114.304 14.725C115.404 15.7917 115.954 17.3167 115.954 19.3V21.1H107.154C107.187 22.15 107.496 22.975 108.079 23.575C108.679 24.175 109.504 24.475 110.554 24.475C111.437 24.475 112.237 24.3917 112.954 24.225C113.671 24.0417 114.412 23.7667 115.179 23.4V26.275C114.512 26.6083 113.804 26.85 113.054 27C112.321 27.1667 111.429 27.25 110.379 27.25C109.012 27.25 107.804 27 106.754 26.5C105.704 25.9833 104.879 25.2083 104.279 24.175C103.679 23.1417 103.379 21.8417 103.379 20.275C103.379 18.675 103.646 17.35 104.179 16.3C104.729 15.2333 105.487 14.4333 106.454 13.9C107.421 13.3667 108.546 13.1 109.829 13.1ZM109.854 15.75C109.137 15.75 108.537 15.9833 108.054 16.45C107.587 16.9167 107.312 17.6417 107.229 18.625H112.454C112.437 17.7917 112.221 17.1083 111.804 16.575C111.387 16.025 110.737 15.75 109.854 15.75ZM133.594 10.875C131.677 10.875 130.169 11.5167 129.069 12.8C127.969 14.0833 127.419 15.8417 127.419 18.075C127.419 20.2917 127.927 22.05 128.944 23.35C129.977 24.6333 131.519 25.275 133.569 25.275C134.352 25.275 135.094 25.2083 135.794 25.075C136.494 24.9417 137.177 24.775 137.844 24.575V26.525C137.177 26.775 136.485 26.9583 135.769 27.075C135.069 27.1917 134.227 27.25 133.244 27.25C131.427 27.25 129.91 26.875 128.694 26.125C127.477 25.375 126.56 24.3083 125.944 22.925C125.344 21.5417 125.044 19.9167 125.044 18.05C125.044 16.25 125.369 14.6667 126.019 13.3C126.685 11.9167 127.66 10.8417 128.944 10.075C130.227 9.29167 131.785 8.9 133.619 8.9C135.502 8.9 137.144 9.25 138.544 9.95L137.644 11.85C137.094 11.6 136.477 11.375 135.794 11.175C135.127 10.975 134.394 10.875 133.594 10.875ZM156.826 18.05C156.826 19.9 156.51 21.5167 155.876 22.9C155.26 24.2667 154.343 25.3333 153.126 26.1C151.91 26.8667 150.401 27.25 148.601 27.25C146.751 27.25 145.21 26.8667 143.976 26.1C142.76 25.3333 141.851 24.2583 141.251 22.875C140.651 21.4917 140.351 19.875 140.351 18.025C140.351 16.1917 140.651 14.5917 141.251 13.225C141.851 11.8583 142.76 10.7917 143.976 10.025C145.21 9.25833 146.76 8.875 148.626 8.875C150.41 8.875 151.91 9.25833 153.126 10.025C154.343 10.775 155.26 11.8417 155.876 13.225C156.51 14.5917 156.826 16.2 156.826 18.05ZM142.726 18.05C142.726 20.3 143.201 22.075 144.151 23.375C145.101 24.6583 146.585 25.3 148.601 25.3C150.635 25.3 152.118 24.6583 153.051 23.375C153.985 22.075 154.451 20.3 154.451 18.05C154.451 15.8 153.985 14.0417 153.051 12.775C152.118 11.4917 150.643 10.85 148.626 10.85C146.61 10.85 145.118 11.4917 144.151 12.775C143.201 14.0417 142.726 15.8 142.726 18.05ZM173.113 9.15L166.738 27H164.488L158.113 9.15H160.463L164.488 20.6C164.755 21.3333 164.98 22.025 165.163 22.675C165.347 23.3083 165.497 23.9167 165.613 24.5C165.73 23.9167 165.88 23.3 166.063 22.65C166.247 22 166.472 21.3 166.738 20.55L170.738 9.15H173.113ZM180.554 27H174.104V25.7L176.204 25.225V10.95L174.104 10.45V9.15H180.554V10.45L178.454 10.95V25.225L180.554 25.7V27ZM197.05 17.9C197.05 20.9167 196.225 23.1917 194.575 24.725C192.942 26.2417 190.659 27 187.725 27H182.75V9.15H188.25C190.05 9.15 191.609 9.48333 192.925 10.15C194.242 10.8167 195.259 11.8 195.975 13.1C196.692 14.3833 197.05 15.9833 197.05 17.9ZM194.675 17.975C194.675 15.5917 194.084 13.85 192.9 12.75C191.734 11.6333 190.075 11.075 187.925 11.075H185V25.075H187.425C192.259 25.075 194.675 22.7083 194.675 17.975Z" fill="black"/>
</svg>
