<svg width="32" height="33" viewBox="0 0 32 33" fill="none" xmlns="http://www.w3.org/2000/svg">
<path fill-rule="evenodd" clip-rule="evenodd" d="M13 11.5H14.5H17.5H19H21.5H23V10H21.5H20.5H19V9.5C19 8.39543 18.1046 7.5 17 7.5H15C13.8954 7.5 13 8.39543 13 9.5V10H11.5H10.5H9V11.5H10.5H13ZM17.5 9.5V10H14.5V9.5C14.5 9.22386 14.7239 9 15 9H17C17.2761 9 17.5 9.22386 17.5 9.5ZM10 12.5H11.5038H20.4962H22L21.8929 14L21.1327 24.6425C21.0579 25.6891 20.187 26.5 19.1378 26.5H12.8622C11.813 26.5 10.9421 25.6891 10.8673 24.6425L10.1071 14L10 12.5ZM12.3635 24.5356L11.611 14H20.389L19.6365 24.5356C19.6178 24.7973 19.4001 25 19.1378 25H12.8622C12.5999 25 12.3822 24.7973 12.3635 24.5356Z" fill="black"/>
</svg>
