<svg width="16" height="17" viewBox="0 0 16 17" fill="none" xmlns="http://www.w3.org/2000/svg">
<path d="M4.69376 1.90675C4.95419 1.64631 5.30742 1.5 5.67573 1.5H10.3243C10.6926 1.5 11.0458 1.64631 11.3062 1.90675L14.5933 5.19376C14.8537 5.45419 15 5.80742 15 6.17573V10.8243C15 11.1926 14.8537 11.5458 14.5933 11.8062L11.3062 15.0933C11.0458 15.3537 10.6926 15.5 10.3243 15.5H5.67573C5.30742 15.5 4.95419 15.3537 4.69376 15.0933L1.40675 11.8062C1.14631 11.5458 1 11.1926 1 10.8243V6.17573C1 5.80742 1.14631 5.45419 1.40675 5.19376L4.69376 1.90675Z" fill="#7665E7" stroke="#573EC5" stroke-width="2"/>
</svg>
