<svg width="79" height="92" viewBox="0 0 79 92" fill="none" xmlns="http://www.w3.org/2000/svg">
<path d="M64.6975 89.6475H50.1975H31.9549C11.596 89.6475 -2.83261 69.7757 3.47022 50.417C4.28487 47.9149 5.42565 45.531 6.86311 43.3269L31.873 4.97843C33.5216 2.45061 36.7092 1.41382 39.5294 2.48818C42.7098 3.69976 44.3904 7.18426 43.3584 10.4274L37.8812 27.6417C36.3056 32.5935 40.0012 37.6475 45.1975 37.6475H68.6975C72.2874 37.6475 75.1975 40.5576 75.1975 44.1475C75.1975 47.7373 72.2874 50.6475 68.6975 50.6475H70.6975C74.2874 50.6475 77.1975 53.5576 77.1975 57.1475C77.1975 60.7373 74.2874 63.6475 70.6975 63.6475H68.6975C72.2874 63.6475 75.1975 66.5576 75.1975 70.1475C75.1975 73.7373 72.2874 76.6475 68.6975 76.6475H64.6975C68.2874 76.6475 71.1975 79.5576 71.1975 83.1475C71.1975 86.7373 68.2874 89.6475 64.6975 89.6475Z" fill="#D0D7DE"/>
<path d="M50.1975 76.6475C46.6077 76.6475 43.6975 79.5576 43.6975 83.1475C43.6975 86.7373 46.6077 89.6475 50.1975 89.6475M50.1975 76.6475H45.1975C41.6077 76.6475 38.6975 73.7373 38.6975 70.1475C38.6975 66.5576 41.6077 63.6475 45.1975 63.6475M50.1975 76.6475H64.6975M64.6975 76.6475H68.6975C72.2874 76.6475 75.1975 73.7373 75.1975 70.1475C75.1975 66.5576 72.2874 63.6475 68.6975 63.6475M64.6975 76.6475C68.2874 76.6475 71.1975 79.5576 71.1975 83.1475C71.1975 86.7373 68.2874 89.6475 64.6975 89.6475H50.1975M50.1975 89.6475H31.9549C11.596 89.6475 -2.83261 69.7757 3.47022 50.417C4.28487 47.9149 5.42565 45.531 6.86311 43.3269L31.873 4.97843C33.5216 2.45061 36.7092 1.41382 39.5294 2.48818C42.7098 3.69976 44.3904 7.18426 43.3584 10.4274L37.8812 27.6417C36.3056 32.5935 40.0012 37.6475 45.1975 37.6475M45.1975 37.6475C41.6077 37.6475 38.6975 40.5576 38.6975 44.1475C38.6975 47.7373 41.6077 50.6475 45.1975 50.6475M45.1975 37.6475H68.6975C72.2874 37.6475 75.1975 40.5576 75.1975 44.1475C75.1975 47.7373 72.2874 50.6475 68.6975 50.6475M68.6975 50.6475H70.6975C74.2874 50.6475 77.1975 53.5576 77.1975 57.1475C77.1975 60.7373 74.2874 63.6475 70.6975 63.6475H68.6975M68.6975 50.6475H45.1975M45.1975 50.6475C41.6077 50.6475 38.6975 53.5576 38.6975 57.1475C38.6975 60.7373 41.6077 63.6475 45.1975 63.6475M68.6975 63.6475H45.1975" stroke="black" stroke-width="3"/>
</svg>
