<svg width="200" height="160" viewBox="0 0 200 160" fill="none" xmlns="http://www.w3.org/2000/svg">
<path d="M178.984 103.109C203.946 27.4656 179.484 3.4134 108.491 9.11803C52.4961 13.6174 11 -22.4859 11 24.1166C11 75.4355 32.7922 145.576 82.6009 157.934C119.642 167.125 165.134 145.081 178.984 103.109Z" fill="#D0D7DE"/>
<path fill-rule="evenodd" clip-rule="evenodd" d="M98.2814 66.0465L90.1064 57.8714C88.05 55.815 84.7159 55.815 82.6595 57.8714C80.6031 59.9278 80.6031 63.2619 82.6595 65.3183L84.0587 66.7175C84.8866 67.5454 85.5015 68.5617 85.8508 69.6792L87.9381 76.3586C82.8352 82.1114 80 89.548 80 97.2713V102.454C80 110.514 84.3024 117.961 91.2849 121.986C100.027 127.026 111.054 125.643 118.281 118.6L131.504 105.714C134.189 103.098 134.216 98.7914 131.565 96.1405C128.938 93.5136 124.679 93.5136 122.052 96.1405L122.021 96.1708C124.665 93.5269 124.665 89.2402 122.021 86.5962C119.377 83.9523 115.091 83.9523 112.447 86.5962C115.091 83.9523 115.091 79.666 112.447 77.022C109.803 74.3782 105.517 74.3781 102.873 77.0216L105.207 74.6875C106.818 73.0765 108.796 71.88 110.97 71.2004L119.819 68.4351C122.49 67.6007 123.955 64.7374 123.07 62.0833C122.197 59.4643 119.367 58.0489 116.748 58.9219L103.521 63.3308C101.637 63.9587 99.8703 64.8768 98.2814 66.0465Z" fill="white"/>
<path d="M99.2473 36.6569C97.0342 34.4479 93.4461 34.4479 91.233 36.6569C89.02 38.8658 89.02 42.4473 91.233 44.6563L100.743 54.1491L110.254 44.6561C112.467 42.4472 112.467 38.8657 110.254 36.6567C108.041 34.4478 104.453 34.4478 102.24 36.6567L100.743 38.1503L99.2473 36.6569Z" fill="white" stroke="black" stroke-width="5" stroke-linecap="round" stroke-linejoin="round"/>
<path d="M97.0214 82.8731L105.207 74.6873C106.818 73.0763 108.796 71.8798 110.97 71.2002L119.819 68.4349C122.49 67.6005 123.955 64.7371 123.07 62.0831C122.197 59.4641 119.367 58.0487 116.748 58.9217L103.521 63.3305C100.648 64.2881 98.0471 65.9205 95.9354 68.0909L88.9277 75.2932C83.203 81.1769 80 89.062 80 97.2711V102.454C80 110.514 84.3024 117.96 91.2849 121.986C100.027 127.026 111.054 125.643 118.281 118.6L131.504 105.714C134.189 103.098 134.216 98.7912 131.565 96.1403C128.938 93.5134 124.679 93.5134 122.052 96.1403L116.171 102.022" stroke="black" stroke-width="5" stroke-linecap="round"/>
<path d="M99.1488 66.9143L90.1061 57.8716C88.0497 55.8152 84.7156 55.8152 82.6592 57.8716C80.6028 59.928 80.6028 63.2621 82.6592 65.3185L84.0584 66.7177C84.8864 67.5456 85.5013 68.5619 85.8505 69.6795L87.9784 76.4888" stroke="black" stroke-width="5"/>
<path d="M106.595 92.4471L112.446 86.596C115.09 83.9521 119.377 83.9521 122.021 86.596C124.665 89.2399 124.665 93.5266 122.021 96.1705L116.17 102.022" stroke="black" stroke-width="5" stroke-linecap="round"/>
<path d="M97.0217 82.8726L102.873 77.0215C105.517 74.3776 109.803 74.3776 112.447 77.0215C115.091 79.6655 115.091 83.9521 112.447 86.5961L106.596 92.4472" stroke="black" stroke-width="5" stroke-linecap="round"/>
</svg>
