<svg width="115" height="120" viewBox="0 0 115 120" fill="none" xmlns="http://www.w3.org/2000/svg">
<g clip-path="url(#clip0)">
<path d="M99.31 112.314L2.60969 117.914C-3.4992 118.268 -9.21057 114.876 -11.8225 109.342L-32.1953 66.1794C-35.0422 60.1479 -33.5646 52.961 -28.569 48.5418L-25.1701 45.5351C-24.3921 44.8469 -23.5448 44.2414 -22.6417 43.7282L50.2236 2.3275C57.707 -1.92441 67.2258 0.979325 71.0617 8.6842L111.871 90.654C116.668 100.289 110.056 111.692 99.31 112.314Z" fill="#FFD43E" stroke="#BD7B00" stroke-width="0.5"/>
<path d="M25.0004 81.75L33.25 91.875L45.625 94.875L52.2463 92.2666C55.995 90.7899 59.2118 88.218 61.4773 84.8862L68.9776 71.2499L77.5 68.1817L77.5047 68.1354C77.7451 65.775 77.2174 63.4 76 61.3635H69.3182L62.5 66H59.5L58 34.5L57.7953 34.3977C55.1768 33.0884 52.0361 33.4212 49.75 35.25V32.25L48.625 26.25H42.625L41.5 33L36.625 32.25C35.1707 33.2195 34.1002 34.666 33.598 36.3401L33.25 37.5H33.0737C29.9906 37.5 26.9567 38.2736 24.25 39.75L25.0004 81.75Z" fill="white"/>
<path d="M33.2496 60.75V41.6248C33.2496 39.3467 31.4029 37.5 29.1248 37.5V37.5C26.8467 37.5 25 39.3467 25 41.6248V76.2893C25 78.798 25.6339 81.2661 26.8429 83.4644V83.4644C30.3319 89.8084 36.9979 93.7499 44.238 93.7499H45.7816C50.3643 93.7499 54.7492 91.883 57.9256 88.5796L59.4572 86.9867C60.7978 85.5925 61.9491 84.0278 62.8813 82.333L67.4512 74.0244C68.4347 72.2364 70.0366 70.8685 71.9566 70.1773L74.7284 69.1794C76.3911 68.5808 77.4996 67.0035 77.4996 65.2363V65.2363C77.4996 62.7845 75.4041 60.8563 72.9608 61.0599L70.9112 61.2307C69.8667 61.3178 68.8624 61.6732 67.9957 62.2626L62.4996 66V66C60.7127 67.4891 57.9996 66.2184 57.9996 63.8923V36.375C57.9996 34.0968 56.1528 32.25 53.8746 32.25V32.25C51.5965 32.25 49.7496 34.0968 49.7496 36.375V56.25" stroke="black" stroke-width="3.75" stroke-linecap="round" stroke-linejoin="round"/>
<path d="M33.2505 60.75V36.375C33.2505 34.0968 35.0973 32.25 37.3755 32.25V32.25C39.6537 32.25 41.5005 34.0968 41.5005 36.375V56.25" stroke="black" stroke-width="3.75" stroke-linecap="round" stroke-linejoin="round"/>
<path d="M41.5 56.25V29.625C41.5 27.3468 43.3468 25.5 45.625 25.5V25.5C47.9032 25.5 49.75 27.3468 49.75 29.625V57" stroke="black" stroke-width="3.75" stroke-linecap="round" stroke-linejoin="round"/>
</g>
<defs>
<clipPath id="clip0">
<rect width="150" height="120" fill="white" transform="translate(-35)"/>
</clipPath>
</defs>
</svg>
