<svg width="149" height="161" viewBox="0 0 149 161" fill="none" xmlns="http://www.w3.org/2000/svg">
<path d="M139 103.5C163.964 27.849 139.5 3.79458 68.5 9.49976C12.5 13.9996 -29 -22.1072 -29 24.4997C-29 75.8235 -7.20574 145.971 42.6077 158.33C79.6526 167.522 125.149 145.476 139 103.5Z" fill="#D0D7DE"/>
<path fill-rule="evenodd" clip-rule="evenodd" d="M33.2814 66.0465L25.1064 57.8714C23.05 55.815 19.7159 55.815 17.6595 57.8714C15.6031 59.9278 15.6031 63.2619 17.6595 65.3183L19.0587 66.7175C19.8866 67.5454 20.5015 68.5617 20.8508 69.6792L22.9381 76.3586C17.8352 82.1114 15 89.548 15 97.2713V102.454C15 110.514 19.3024 117.961 26.2849 121.986C35.0273 127.026 46.0543 125.643 53.2813 118.6L66.5037 105.714C69.1885 103.098 69.2162 98.7914 66.5654 96.1405C63.9385 93.5136 59.6794 93.5136 57.0525 96.1405L57.0214 96.1708C59.6653 93.5269 59.6653 89.2402 57.0214 86.5962C54.3774 83.9523 50.0908 83.9523 47.4468 86.5962C50.0908 83.9523 50.0911 79.666 47.4472 77.022C44.8033 74.3782 40.517 74.3781 37.873 77.0216L40.2073 74.6875C41.8183 73.0765 43.7958 71.88 45.9703 71.2004L54.8193 68.4351C57.4895 67.6007 58.9551 64.7374 58.0704 62.0833C57.1974 59.4643 54.3666 58.0489 51.7476 58.9219L38.5211 63.3308C36.6373 63.9587 34.8703 64.8768 33.2814 66.0465Z" fill="white"/>
<path d="M34.2483 36.6569C32.0352 34.4479 28.4471 34.4479 26.234 36.6569C24.0209 38.8658 24.0209 42.4473 26.234 44.6563L35.7445 54.1491L45.255 44.6561C47.4681 42.4472 47.4681 38.8657 45.255 36.6567C43.042 34.4478 39.4539 34.4478 37.2408 36.6567L35.7445 38.1503L34.2483 36.6569Z" fill="white" stroke="black" stroke-width="5" stroke-linecap="round" stroke-linejoin="round"/>
<path d="M32.0214 82.8734L40.2073 74.6875C41.8183 73.0765 43.7958 71.88 45.9703 71.2004L54.8193 68.4351C57.4895 67.6007 58.9551 64.7374 58.0704 62.0833C57.1974 59.4643 54.3666 58.0489 51.7476 58.9219L38.5211 63.3308C35.6483 64.2884 33.0471 65.9208 30.9354 68.0911L23.9277 75.2935C18.203 81.1771 15 89.0623 15 97.2713V102.454C15 110.514 19.3024 117.961 26.2849 121.986C35.0273 127.026 46.0543 125.643 53.2813 118.6L66.5037 105.714C69.1885 103.098 69.2162 98.7914 66.5654 96.1405C63.9385 93.5136 59.6794 93.5136 57.0525 96.1405L51.1705 102.022" stroke="black" stroke-width="5" stroke-linecap="round"/>
<path d="M34.149 66.9145L25.1064 57.8719C23.05 55.8155 19.7159 55.8155 17.6595 57.8719C15.6031 59.9283 15.6031 63.2624 17.6595 65.3188L19.0587 66.7179C19.8866 67.5459 20.5015 68.5621 20.8508 69.6797L22.9787 76.4891" stroke="black" stroke-width="5"/>
<path d="M41.5957 92.4469L47.4468 86.5957C50.0908 83.9518 54.3774 83.9518 57.0214 86.5957C59.6653 89.2397 59.6653 93.5264 57.0214 96.1703L51.1703 102.021" stroke="black" stroke-width="5" stroke-linecap="round"/>
<path d="M32.0215 82.8726L37.8726 77.0215C40.5165 74.3776 44.8032 74.3776 47.4472 77.0215C50.0911 79.6655 50.0911 83.9521 47.4472 86.5961L41.596 92.4472" stroke="black" stroke-width="5" stroke-linecap="round"/>
</svg>
