<svg width="200" height="160" viewBox="0 0 200 160" fill="none" xmlns="http://www.w3.org/2000/svg">
<path d="M178.984 103.109C203.946 27.4656 179.484 3.4134 108.491 9.11803C52.4961 13.6174 11 -22.4859 11 24.1166C11 75.4355 32.7922 145.576 82.6009 157.934C119.642 167.125 165.134 145.081 178.984 103.109Z" fill="#D0D7DE"/>
<path d="M79.3185 109.69L66.6945 86.1866C65.6634 84.2668 65.788 81.9324 67.0178 80.1334C69.0537 77.1549 73.2778 76.7196 75.8784 79.2203L83.6129 86.6577C84.7567 87.8015 86.7124 86.9914 86.7124 85.3739V41.1989C86.7124 37.7754 89.4877 35 92.9113 35C96.3349 35 99.1102 37.7754 99.1102 41.1989V64.9615C99.1102 61.5379 101.886 58.7625 105.309 58.7625C108.733 58.7625 111.508 61.5379 111.508 64.9615V71.677C111.508 68.5387 114.052 65.9946 117.19 65.9946C120.329 65.9946 122.873 68.5387 122.873 71.677V77.4454C122.873 74.5449 125.224 72.1936 128.125 72.1936C130.957 72.1936 133.279 74.4396 133.374 77.2704L134.004 96.1742C134.157 100.76 133.034 105.299 130.762 109.285L130.166 110.33C118.855 130.174 90.1262 129.813 79.3185 109.69Z" fill="white"/>
<path d="M122.873 77.4454V83.5582M122.873 77.4454V71.677C122.873 68.5387 120.329 65.9946 117.19 65.9946C114.052 65.9946 111.508 68.5387 111.508 71.677M122.873 77.4454C122.873 74.5449 125.224 72.1936 128.125 72.1936C130.957 72.1936 133.279 74.4396 133.374 77.2704L134.004 96.1742C134.157 100.76 133.034 105.299 130.762 109.285L130.166 110.33C118.855 130.174 90.1262 129.813 79.3185 109.69L66.6945 86.1866C65.6634 84.2668 65.788 81.9324 67.0178 80.1334C69.0537 77.1549 73.2778 76.7196 75.8784 79.2203L83.6129 86.6577C84.7567 87.8015 86.7124 86.9914 86.7124 85.3739V41.1989C86.7124 37.7754 89.4877 35 92.9113 35C96.3349 35 99.1102 37.7754 99.1102 41.1989V64.9615M111.508 71.677V76.3262M111.508 71.677V64.9615C111.508 61.5379 108.733 58.7625 105.309 58.7625C101.886 58.7625 99.1102 61.5379 99.1102 64.9615M99.1102 64.9615V76.3262" stroke="black" stroke-width="5" stroke-linecap="round" stroke-linejoin="round"/>
<path d="M81.4832 39.8248C84.8317 42.4896 86.25 46.2786 84.6511 48.2877C83.0522 50.2968 79.0415 49.7652 75.693 47.1004C72.3445 44.4355 70.9262 40.6465 72.5251 38.6374C74.124 36.6283 78.1347 37.1599 81.4832 39.8248Z" fill="white"/>
<path d="M80.3379 58.9038C76.3624 60.4879 72.3691 59.8384 71.4187 57.4531C70.4682 55.0678 72.9205 51.85 76.896 50.2659C80.8714 48.6818 84.8647 49.3313 85.8152 51.7166C86.7656 54.1019 84.3134 57.3197 80.3379 58.9038Z" fill="white"/>
<path d="M86.7114 46.3647H99.1093V55.6631H86.7114V46.3647Z" fill="white"/>
<path d="M81.4832 39.8248C84.8317 42.4896 86.25 46.2786 84.6511 48.2877C83.0522 50.2968 79.0415 49.7652 75.693 47.1004C72.3445 44.4355 70.9262 40.6465 72.5251 38.6374C74.124 36.6283 78.1347 37.1599 81.4832 39.8248Z" stroke="black" stroke-width="4"/>
<path d="M80.3379 58.9038C76.3624 60.4879 72.3691 59.8384 71.4187 57.4531C70.4682 55.0678 72.9205 51.85 76.896 50.2659C80.8714 48.6818 84.8647 49.3313 85.8152 51.7166C86.7656 54.1019 84.3134 57.3197 80.3379 58.9038Z" stroke="black" stroke-width="4"/>
<path d="M86.7114 46.3647H99.1093V55.6631H86.7114V46.3647Z" stroke="black" stroke-width="4"/>
</svg>
