<svg width="149" height="161" viewBox="0 0 149 161" fill="none" xmlns="http://www.w3.org/2000/svg">
<path d="M139 103.5C163.964 27.849 139.5 3.79458 68.5 9.49976C12.5 13.9996 -29 -22.1072 -29 24.4997C-29 75.8235 -7.20574 145.971 42.6077 158.33C79.6526 167.521 125.148 145.476 139 103.5Z" fill="#D0D7DE"/>
<path d="M38.4926 88.2563L34.2125 68.6392C33.6677 66.1425 31.168 64.5731 28.6397 65.1405C26.479 65.6254 24.9493 67.539 24.9755 69.7243L25.4042 105.518C25.43 107.67 25.7768 109.805 26.4335 111.853C30.6588 125.029 46.0753 130.992 58.3317 124.191L59.8905 123.326C61.5772 122.39 63.1429 121.254 64.5525 119.944L92.11 94.3284C94.0468 92.5281 94.3963 89.6191 92.9372 87.4424C91.349 85.073 88.1555 84.3539 85.6618 85.8041L72.3842 93.5254C71.917 93.7971 71.439 93.1998 71.8133 92.8122L91.354 72.5822C93.12 70.7538 93.2223 67.9157 91.5916 65.9897C89.6474 63.6937 86.0865 63.6372 84.0386 65.8698L65.297 86.3025C64.7916 86.8535 63.9148 86.2297 64.2861 85.5834L81.4931 55.6336C82.807 53.3466 82.0433 50.4539 79.7714 49.1122C77.4574 47.7456 74.4476 48.4981 73.0489 50.793L55.7051 79.2496C55.3109 79.8964 54.3074 79.4985 54.4819 78.7645L60.3133 54.2428C60.8988 51.7807 59.4069 49.3159 56.9398 48.6693C54.4836 48.0256 51.9382 49.4145 51.1713 51.8169L39.5269 88.2977C39.3614 88.8164 38.6082 88.7862 38.4926 88.2563Z" fill="white"/>
<path d="M67.8475 129.312C77.2326 127.514 85.3981 118.983 88.3078 114.942M27.6433 51.918C19.0073 56.0086 13.2383 66.3132 11.4333 70.9541M77.9301 137C83.57 135.383 88.8891 129.55 90.8436 126.835M15.9567 47C10.9014 49.9775 7.21252 56.9571 6 60.0747M34.2125 68.6392L38.4926 88.2563C38.6082 88.7862 39.3613 88.8164 39.5269 88.2977L51.1713 51.8169C51.9382 49.4145 54.4836 48.0256 56.9398 48.6693C59.4069 49.3159 60.8988 51.7807 60.3133 54.2428L54.4819 78.7645C54.3074 79.4984 55.3109 79.8964 55.7051 79.2496L73.0489 50.793C74.4476 48.4981 77.4574 47.7456 79.7714 49.1122C82.0433 50.4539 82.807 53.3466 81.4931 55.6336L64.2861 85.5834C63.9148 86.2297 64.7916 86.8535 65.297 86.3025L84.0386 65.8698C86.0865 63.6372 89.6474 63.6937 91.5916 65.9897C93.2223 67.9157 93.12 70.7538 91.354 72.5822L71.8133 92.8122C71.439 93.1998 71.917 93.7971 72.3842 93.5254L85.6618 85.8041C88.1555 84.3539 91.349 85.073 92.9372 87.4424C94.3963 89.6191 94.0468 92.5281 92.11 94.3284L64.5525 119.944C63.1429 121.254 61.5772 122.39 59.8905 123.326L58.3317 124.191C46.0753 130.992 30.6588 125.029 26.4335 111.853C25.7768 109.805 25.43 107.67 25.4042 105.518L24.9755 69.7243C24.9493 67.539 26.479 65.6254 28.6397 65.1405C31.168 64.5731 33.6677 66.1425 34.2125 68.6392Z" stroke="black" stroke-width="5" stroke-linecap="round" stroke-linejoin="round"/>
</svg>
