<svg width="121" height="137" viewBox="0 0 121 137" fill="none" xmlns="http://www.w3.org/2000/svg">
<path d="M76.1247 4.72036L34.3263 1.13494C25.9 0.412138 17.56 3.27959 11.3597 9.03131L-8.12613 27.1074C-14.9795 33.4649 -18.4775 42.6537 -17.587 51.9593L-14.4207 85.0441C-13.8613 90.8895 -11.5987 96.4422 -7.91344 101.014L12.0892 125.828C17.7843 132.893 26.3711 137 35.4455 137H68.0794C75.1164 137 81.9295 134.526 87.3272 130.011L106.05 114.351C112.142 109.255 115.965 101.952 116.68 94.0415L119.923 58.1845C120.614 50.5367 118.347 42.915 113.588 36.8888L97.1038 16.0169C91.9701 9.51671 84.3773 5.42826 76.1247 4.72036Z" fill="#573EC5"/>
<path d="M28 42.792V80.7985C28 84.8786 29.1131 88.8401 31.1666 92.2798C33.1555 95.6114 34.9468 99.2091 34.9468 103.089L60.511 106.374V100.937C60.511 98.0182 61.7859 95.2454 64.0013 93.3455L69.706 88.4535L74.9238 83.8224C77.6928 81.3647 80.9442 79.512 84.4701 78.3827C86.4388 77.7264 87.7668 75.884 87.7668 73.8087C87.7668 71.146 85.6082 68.9873 82.9454 68.9873H79.123C77.2264 68.9873 75.3825 69.6111 73.8754 70.7625L68.8727 74.5846C66.6415 76.5321 63.1551 74.9475 63.1551 71.9859V37.538C63.1551 35.0937 61.1736 33.1122 58.7293 33.1122C56.285 33.1122 54.3035 35.0937 54.3035 37.538V30.5844C54.3035 28.0524 52.2509 25.9999 49.7189 26C47.1871 26.0001 45.1347 28.0526 45.1347 30.5844V37.7691C45.1347 35.304 43.1364 33.3056 40.6713 33.3055C38.2061 33.3054 36.2075 35.3038 36.2075 37.7691V42.792C36.2075 40.5255 34.3702 38.6882 32.1038 38.6882C29.8373 38.6882 28 40.5255 28 42.792Z" fill="white"/>
<path d="M36.2075 42.792V68.9873M36.2075 42.792V37.7691C36.2075 35.3038 38.2061 33.3054 40.6713 33.3055C43.1364 33.3056 45.1347 35.304 45.1347 37.7691M36.2075 42.792C36.2075 40.5255 34.3702 38.6882 32.1038 38.6882C29.8373 38.6882 28 40.5255 28 42.792V80.7985C28 84.8786 29.1131 88.8401 31.1666 92.2798C33.1555 95.6114 34.9468 99.2091 34.9468 103.089V103.089L60.511 106.374V100.937C60.511 98.0182 61.7859 95.2454 64.0013 93.3455L69.706 88.4535L74.9238 83.8224C77.6928 81.3647 80.9442 79.512 84.4701 78.3827V78.3827C86.4388 77.7264 87.7668 75.884 87.7668 73.8087C87.7668 71.1459 85.6082 68.9873 82.9454 68.9873H79.123C77.2264 68.9873 75.3825 69.6111 73.8754 70.7625L68.8727 74.5846C66.6415 76.5321 63.1551 74.9475 63.1551 71.9859V37.538C63.1551 35.0937 61.1736 33.1122 58.7293 33.1122C56.285 33.1122 54.3035 35.0937 54.3035 37.538M45.1347 37.7691V64.1811M45.1347 37.7691V30.5844C45.1347 28.0526 47.1871 26.0001 49.7189 26C52.2509 25.9999 54.3035 28.0524 54.3035 30.5844V37.538M54.3035 37.538V64.1808" stroke="black" stroke-width="5" stroke-linecap="round" stroke-linejoin="round"/>
<rect x="30.5" y="101.897" width="35.1942" height="11.6019" rx="2.5" fill="white" stroke="black" stroke-width="5" stroke-linecap="round" stroke-linejoin="round"/>
</svg>
