<svg width="200" height="160" viewBox="0 0 200 160" fill="none" xmlns="http://www.w3.org/2000/svg">
<path d="M135.541 7.16452L98.5611 1.0871C81.88 -1.65435 64.7607 0.818952 49.5332 8.17036C21.0842 21.9048 3 50.7422 3 82.3734V99.6679C3 116.679 14.2332 131.639 30.5504 136.359L101.795 156.968C138.17 167.49 176.773 149.892 192.741 115.509C214.184 69.3336 185.715 15.4104 135.541 7.16452Z" fill="#D0D7DE"/>
<path d="M117.991 106H78.5L80 54H155C157.244 54 159.37 55.0021 160.798 56.7325L161.813 57.9616C163.656 60.1947 163.54 63.4527 161.544 65.5495L161.414 65.6859C159.285 67.9213 159.396 71.4663 161.66 73.5643L161.793 73.6875C164.086 75.8118 164.086 79.4382 161.793 81.5625C159.5 83.6868 159.5 87.3132 161.793 89.4375C164.086 91.5618 164.086 95.1882 161.793 97.3125L161.66 97.4357C159.396 99.5337 159.285 103.079 161.414 105.314L161.544 105.451C163.54 107.547 163.656 110.805 161.813 113.038L160.798 114.268C159.37 115.998 157.244 117 155 117H150.543L145.901 122.674C143.8 125.242 140.577 126.516 137.379 126.18C135.827 126.017 134.507 125.072 133.411 123.961L130.972 121.489C126.138 116.589 118 112.891 118 106.009C118 106.004 117.996 106 117.991 106Z" fill="white"/>
<path d="M78.5 106L78.0002 105.986L77.9854 106.5H78.5V106ZM130.972 121.489L131.328 121.137V121.137L130.972 121.489ZM133.411 123.961L133.055 124.312L133.055 124.312L133.411 123.961ZM145.901 122.674L145.514 122.357L145.901 122.674ZM150.543 117V116.5H150.306L150.156 116.683L150.543 117ZM137.379 126.18L137.431 125.683L137.379 126.18ZM80 54V53.5H79.5142L79.5002 53.9856L80 54ZM161.414 105.314L161.052 105.659L161.052 105.659L161.414 105.314ZM161.544 105.451L161.906 105.106L161.906 105.106L161.544 105.451ZM161.813 113.038L162.199 113.357L161.813 113.038ZM160.798 114.268L160.413 113.949L160.798 114.268ZM161.793 97.3125L162.133 97.6793V97.6793L161.793 97.3125ZM161.66 97.4357L161.32 97.0689V97.0689L161.66 97.4357ZM161.66 73.5643L162 73.1975L162 73.1975L161.66 73.5643ZM161.793 73.6875L161.453 74.0543L161.453 74.0543L161.793 73.6875ZM160.798 56.7325L161.184 56.4142V56.4142L160.798 56.7325ZM161.813 57.9616L161.427 58.2799L161.813 57.9616ZM161.544 65.5495L161.906 65.8943L161.906 65.8943L161.544 65.5495ZM161.414 65.6859L161.052 65.3411L161.052 65.3411L161.414 65.6859ZM78.5 106.5H117.991V105.5H78.5V106.5ZM130.616 121.84L133.055 124.312L133.767 123.61L131.328 121.137L130.616 121.84ZM146.288 122.99L150.93 117.317L150.156 116.683L145.514 122.357L146.288 122.99ZM137.327 126.677C140.689 127.03 144.078 125.691 146.288 122.99L145.514 122.357C143.521 124.793 140.464 126.001 137.431 125.683L137.327 126.677ZM117.991 106.5C117.72 106.5 117.5 106.28 117.5 106.009H118.5C118.5 105.728 118.272 105.5 117.991 105.5V106.5ZM155 53.5H80V54.5H155V53.5ZM161.052 105.659L161.181 105.795L161.906 105.106L161.776 104.969L161.052 105.659ZM161.427 112.72L160.413 113.949L161.184 114.586L162.199 113.357L161.427 112.72ZM161.453 96.9457L161.32 97.0689L162 97.8025L162.133 97.6793L161.453 96.9457ZM161.32 73.9311L161.453 74.0543L162.133 73.3207L162 73.1975L161.32 73.9311ZM160.413 57.0507L161.427 58.2799L162.199 57.6433L161.184 56.4142L160.413 57.0507ZM161.181 65.2046L161.052 65.3411L161.776 66.0307L161.906 65.8943L161.181 65.2046ZM161.427 58.2799C163.109 60.3178 163.004 63.2911 161.181 65.2046L161.906 65.8943C164.077 63.6143 164.203 60.0715 162.199 57.6433L161.427 58.2799ZM161.453 74.0543C163.533 75.9807 163.533 79.2693 161.453 81.1957L162.133 81.9293C164.639 79.6071 164.639 75.6429 162.133 73.3207L161.453 74.0543ZM161.453 89.8043C163.533 91.7307 163.533 95.0193 161.453 96.9457L162.133 97.6793C164.639 95.3571 164.639 91.3929 162.133 89.0707L161.453 89.8043ZM161.181 105.795C163.004 107.709 163.109 110.682 161.427 112.72L162.199 113.357C164.203 110.928 164.077 107.386 161.906 105.106L161.181 105.795ZM162.133 89.0707C160.054 87.1443 160.054 83.8557 162.133 81.9293L161.453 81.1957C158.947 83.5179 158.947 87.4821 161.453 89.8043L162.133 89.0707ZM161.776 104.969C159.839 102.936 159.94 99.711 162 97.8025L161.32 97.0689C158.851 99.3565 158.73 103.222 161.052 105.659L161.776 104.969ZM155 117.5C157.393 117.5 159.661 116.431 161.184 114.586L160.413 113.949C159.08 115.565 157.094 116.5 155 116.5V117.5ZM162 73.1975C159.94 71.289 159.839 68.0642 161.776 66.0307L161.052 65.3411C158.73 67.7784 158.851 71.6435 161.32 73.9311L162 73.1975ZM155 54.5C157.094 54.5 159.08 55.4354 160.413 57.0507L161.184 56.4142C159.661 54.5687 157.393 53.5 155 53.5V54.5ZM78.9998 106.014L80.4998 54.0144L79.5002 53.9856L78.0002 105.986L78.9998 106.014ZM150.543 117.5H155V116.5H150.543V117.5ZM133.055 124.312C134.182 125.454 135.604 126.496 137.327 126.677L137.431 125.683C136.05 125.538 134.832 124.69 133.767 123.61L133.055 124.312ZM131.328 121.137C130.096 119.889 128.659 118.722 127.216 117.579C125.766 116.43 124.313 115.306 123.01 114.122C120.398 111.749 118.5 109.23 118.5 106.009H117.5C117.5 109.669 119.671 112.44 122.337 114.862C123.672 116.075 125.16 117.226 126.595 118.363C128.038 119.506 129.431 120.639 130.616 121.84L131.328 121.137Z" fill="black"/>
<path d="M78.5 106L117.988 106C117.995 106 118 106.005 118 106.012V106.012C118 109.769 119.819 113.293 122.88 115.47L135.199 124.23C138.183 126.352 142.301 125.799 144.619 122.965L149.5 117" stroke="black" stroke-width="5"/>
<path d="M143 117H155.457C157.701 117 159.827 115.998 161.255 114.268L162.27 113.038C164.113 110.805 163.997 107.547 162 105.451L161.871 105.314C159.742 103.079 159.852 99.5337 162.117 97.4357L162.25 97.3125C164.543 95.1882 164.543 91.5618 162.25 89.4375V89.4375C159.957 87.3132 159.957 83.6868 162.25 81.5625V81.5625C164.543 79.4382 164.543 75.8118 162.25 73.6875L162.117 73.5643C159.852 71.4663 159.742 67.9213 161.871 65.6859L162 65.5495C163.997 63.4527 164.113 60.1947 162.27 57.9616L161.255 56.7325C159.827 55.0021 157.701 54 155.457 54H80" stroke="black" stroke-width="5" stroke-linecap="round"/>
<path d="M73.2456 50H55C38.4315 50 25 63.4315 25 80C25 96.5685 38.4315 110 55 110H73.2456C76.976 110 80 106.976 80 103.246V56.7544C80 53.024 76.976 50 73.2456 50Z" fill="white"/>
<path d="M73 50H55C38.4315 50 25 63.4315 25 80C25 96.5685 38.4315 110 55 110H73C76.866 110 80 106.866 80 103V57C80 53.134 76.866 50 73 50Z" fill="white" stroke="black" stroke-width="5"/>
<mask id="path-8-inside-1" fill="white">
<rect x="97" y="49" width="18" height="62" rx="3"/>
</mask>
<rect x="97" y="49" width="18" height="62" rx="3" fill="white" stroke="black" stroke-width="10" mask="url(#path-8-inside-1)"/>
<circle cx="106" cy="80" r="19.5" fill="white" stroke="black" stroke-width="5"/>
<path d="M106 67V79.6923L112 84" stroke="black" stroke-width="5"/>
</svg>
