<svg width="149" height="161" viewBox="0 0 149 161" fill="none" xmlns="http://www.w3.org/2000/svg">
<path d="M139 103.5C163.964 27.849 139.5 3.79458 68.5 9.49976C12.5 13.9996 -29 -22.1072 -29 24.4997C-29 75.8235 -7.20574 145.971 42.6077 158.33C79.6526 167.521 125.148 145.476 139 103.5Z" fill="#D0D7DE"/>
<path d="M28.3185 109.69L15.6945 86.1866C14.6634 84.2668 14.788 81.9324 16.0178 80.1334C18.0537 77.1549 22.2778 76.7196 24.8784 79.2203L32.6129 86.6577C33.7567 87.8015 35.7124 86.9914 35.7124 85.3739V41.1989C35.7124 37.7754 38.4877 35 41.9113 35C45.3349 35 48.1102 37.7754 48.1102 41.1989V64.9615C48.1102 61.5379 50.8856 58.7625 54.3091 58.7625C57.7327 58.7625 60.5081 61.5379 60.5081 64.9615V71.677C60.5081 68.5387 63.0521 65.9946 66.1904 65.9946C69.3287 65.9946 71.8728 68.5387 71.8728 71.677V77.4454C71.8728 74.5449 74.2241 72.1936 77.1246 72.1936C79.957 72.1936 82.2792 74.4396 82.3735 77.2704L83.0037 96.1742C83.1565 100.76 82.0344 105.299 79.7622 109.285L79.1663 110.33C67.8554 130.174 39.1262 129.813 28.3185 109.69Z" fill="white"/>
<path d="M71.8728 77.4454V83.5582M71.8728 77.4454V71.677C71.8728 68.5387 69.3287 65.9946 66.1904 65.9946C63.0521 65.9946 60.5081 68.5387 60.5081 71.677M71.8728 77.4454C71.8728 74.5449 74.2241 72.1936 77.1246 72.1936C79.957 72.1936 82.2792 74.4396 82.3735 77.2704L83.0037 96.1742C83.1565 100.76 82.0344 105.299 79.7622 109.285L79.1663 110.33C67.8554 130.174 39.1262 129.813 28.3185 109.69L15.6945 86.1866C14.6634 84.2668 14.788 81.9324 16.0178 80.1334C18.0537 77.1549 22.2778 76.7196 24.8784 79.2203L32.6129 86.6577C33.7567 87.8015 35.7124 86.9914 35.7124 85.3739V41.1989C35.7124 37.7754 38.4877 35 41.9113 35C45.3349 35 48.1102 37.7754 48.1102 41.1989V64.9615M60.5081 71.677V76.3262M60.5081 71.677V64.9615C60.5081 61.5379 57.7327 58.7625 54.3091 58.7625C50.8856 58.7625 48.1102 61.5379 48.1102 64.9615M48.1102 64.9615V76.3262" stroke="black" stroke-width="5" stroke-linecap="round" stroke-linejoin="round"/>
<path d="M30.4839 39.8248C33.8324 42.4896 35.2507 46.2786 33.6518 48.2877C32.0529 50.2968 28.0423 49.7652 24.6938 47.1004C21.3453 44.4355 19.927 40.6465 21.5259 38.6374C23.1248 36.6283 27.1354 37.1599 30.4839 39.8248Z" fill="white"/>
<path d="M29.3386 58.9038C25.3631 60.4879 21.3699 59.8384 20.4194 57.4531C19.4689 55.0678 21.9212 51.85 25.8967 50.2659C29.8722 48.6818 33.8654 49.3313 34.8159 51.7166C35.7664 54.1019 33.3141 57.3197 29.3386 58.9038Z" fill="white"/>
<path d="M35.7122 46.3647H48.11V55.6631H35.7122V46.3647Z" fill="white"/>
<path d="M30.4839 39.8248C33.8324 42.4896 35.2507 46.2786 33.6518 48.2877C32.0529 50.2968 28.0423 49.7652 24.6938 47.1004C21.3453 44.4355 19.927 40.6465 21.5259 38.6374C23.1248 36.6283 27.1354 37.1599 30.4839 39.8248Z" stroke="black" stroke-width="4"/>
<path d="M29.3386 58.9038C25.3631 60.4879 21.3699 59.8384 20.4194 57.4531C19.4689 55.0678 21.9212 51.85 25.8967 50.2659C29.8722 48.6818 33.8654 49.3313 34.8159 51.7166C35.7664 54.1019 33.3141 57.3197 29.3386 58.9038Z" stroke="black" stroke-width="4"/>
<path d="M35.7122 46.3647H48.11V55.6631H35.7122V46.3647Z" stroke="black" stroke-width="4"/>
</svg>
