<svg width="200" height="160" viewBox="0 0 200 160" fill="none" xmlns="http://www.w3.org/2000/svg">
<path d="M151.123 16.0579L97.2878 0.771241C90.7914 -1.07344 83.803 0.437927 78.6494 4.80212L40.1717 37.3859C35.2624 41.5432 32.6176 47.7838 33.0448 54.2027L35.9949 98.5309C36.1962 101.555 37.0728 104.495 38.5603 107.135L62.5282 149.678C66.1208 156.055 72.8715 160 80.1906 160H125.819C129.765 160 133.625 158.848 136.926 156.686L168.835 135.787C173.247 132.897 176.359 128.402 177.51 123.255L188.433 74.4397C189.645 69.0237 188.583 63.3477 185.496 58.7358L162.431 24.2821C159.756 20.2863 155.748 17.3714 151.123 16.0579Z" fill="#573EC5"/>
<path d="M80.0005 109L91 122.5L107.5 126.5L116.328 123.022C121.327 121.053 125.616 117.623 128.636 113.181L138.637 94.9993L150 90.9084L150.006 90.8467C150.327 87.6995 149.623 84.5328 148 81.8175H139.091L130 87.9995H126L124 45.9995L123.727 45.8631C120.236 44.1174 116.048 44.5611 113 46.9995V42.9995L111.5 34.9995H103.5L102 43.9995L95.5 42.9995C93.561 44.2922 92.1336 46.2208 91.464 48.453L91 49.9995H90.765C86.6541 49.9995 82.6089 51.031 79 52.9995L80.0005 109Z" fill="white"/>
<path d="M90.9995 80.9998V55.4995C90.9995 52.4621 88.5372 49.9998 85.4998 49.9998V49.9998C82.4623 49.9998 80 52.4621 80 55.4995V100.534C80 104.656 81.0417 108.712 83.0282 112.324V112.324C87.328 120.142 95.5431 125 104.466 125H105.855C113.15 125 120.129 122.028 125.185 116.77L125.943 115.982C127.73 114.123 129.265 112.037 130.508 109.777L136.602 98.6989C137.913 96.3149 140.049 94.4911 142.609 93.5695L146.304 92.2389C148.521 91.4408 150 89.3377 150 86.9815V86.9815C150 83.7124 147.205 81.1415 143.948 81.413L141.215 81.6407C139.822 81.7568 138.483 82.2307 137.328 83.0166L130 87.9998V87.9998C127.617 89.9853 124 88.291 124 85.1895V48.4998C124 45.4622 121.537 42.9998 118.5 42.9998V42.9998C115.462 42.9998 113 45.4622 113 48.4998V74.9998" stroke="black" stroke-width="5" stroke-linecap="round" stroke-linejoin="round"/>
<path d="M91.0007 80.9998V48.4998C91.0007 45.4622 93.4632 42.9998 96.5007 42.9998V42.9998C99.5383 42.9998 102.001 45.4622 102.001 48.4998V74.9998" stroke="black" stroke-width="5" stroke-linecap="round" stroke-linejoin="round"/>
<path d="M102 74.9995V39.4995C102 36.4619 104.462 33.9995 107.5 33.9995V33.9995C110.538 33.9995 113 36.4619 113 39.4995V75.9995" stroke="black" stroke-width="5" stroke-linecap="round" stroke-linejoin="round"/>
</svg>
