<svg width="121" height="143" viewBox="0 0 121 143" fill="none" xmlns="http://www.w3.org/2000/svg">
<path d="M110.829 88.0882C135.793 12.4374 110.02 8.20781 52.9027 0.687186C6.69456 -5.39707 -39 29.6671 -39 76.2741C-39 97.9613 -29.1785 119.129 -9.71887 128.703C31.7563 149.109 88.1696 156.755 110.829 88.0882Z" fill="#573EC5"/>
<path d="M23.9502 115.768L26.5589 118.254C36.7489 127.964 53.2383 126.105 61.0114 114.371L68.7199 101.635C70.2957 99.0315 72.7464 97.0734 75.6335 96.111L80.6268 94.4466C82.88 93.6956 84.3997 91.587 84.3997 89.212C84.3997 86.1646 81.9294 83.6942 78.882 83.6942H74.5074C72.3369 83.6942 70.2266 84.4081 68.5019 85.7258L62.7765 90.0999C60.2231 92.3287 56.2331 90.5152 56.2331 87.1259V47.7021C56.2331 44.9048 53.9654 42.6371 51.168 42.6371C48.3706 42.6371 46.1029 44.9048 46.1029 47.7021V39.7441C46.1029 36.8464 43.7538 34.4974 40.8561 34.4976C37.9586 34.4977 35.6097 36.8466 35.6097 39.7441V47.9666C35.6097 45.1454 33.3228 42.8584 30.5016 42.8583C27.6803 42.8581 25.3931 45.1453 25.3931 47.9666V53.715C25.3931 51.1212 23.2903 49.0185 20.6965 49.0185C18.1027 49.0185 16 51.1212 16 53.715V97.2114C16 104.224 18.8732 110.931 23.9502 115.768Z" fill="white"/>
<path d="M25.3931 53.715V83.6942M25.3931 53.715V47.9666C25.3931 45.1453 27.6803 42.8581 30.5016 42.8583C33.3228 42.8584 35.6097 45.1454 35.6097 47.9666M25.3931 53.715C25.3931 51.1212 23.2903 49.0185 20.6965 49.0185C18.1027 49.0185 16 51.1212 16 53.715V97.2114C16 104.224 18.8732 110.931 23.9502 115.768L26.5589 118.254C36.7489 127.964 53.2383 126.105 61.0114 114.371L68.7199 101.635C70.2957 99.0315 72.7464 97.0734 75.6335 96.111L80.6268 94.4466C82.88 93.6956 84.3997 91.587 84.3997 89.212C84.3997 86.1646 81.9293 83.6942 78.882 83.6942H74.5074C72.3369 83.6942 70.2266 84.4081 68.5019 85.7258L62.7765 90.0999C60.2231 92.3287 56.2331 90.5152 56.2331 87.1259V47.7021C56.2331 44.9048 53.9654 42.6371 51.168 42.6371C48.3706 42.6371 46.1029 44.9048 46.1029 47.7021M35.6097 47.9666V78.1938M35.6097 47.9666V39.7441C35.6097 36.8466 37.9586 34.4977 40.8561 34.4976C43.7538 34.4974 46.1029 36.8464 46.1029 39.7441V47.7021M46.1029 47.7021V78.1933" stroke="black" stroke-width="5" stroke-linecap="round" stroke-linejoin="round"/>
</svg>
