<svg width="149" height="161" viewBox="0 0 149 161" fill="none" xmlns="http://www.w3.org/2000/svg">
<path d="M139 103.5C163.964 27.849 139.5 3.79458 68.5 9.49976C12.5 13.9996 -29 -22.1072 -29 24.4997C-29 75.8235 -7.20574 145.971 42.6077 158.33C79.6526 167.521 125.148 145.476 139 103.5Z" fill="#D0D7DE"/>
<path d="M105 93C105 117.853 84.8528 138 60 138C35.1472 138 15 117.853 15 93C15 68.1472 35.1472 48 60 48C84.8528 48 105 68.1472 105 93Z" fill="white" stroke="black" stroke-width="5"/>
<path d="M31.375 85.125C31.375 86.5057 32.4943 87.625 33.875 87.625C35.2557 87.625 36.375 86.5057 36.375 85.125H31.375ZM49.375 85.125C49.375 86.5057 50.4943 87.625 51.875 87.625C53.2557 87.625 54.375 86.5057 54.375 85.125H49.375ZM36.375 85.125C36.375 81.5351 39.2851 78.625 42.875 78.625V73.625C36.5237 73.625 31.375 78.7737 31.375 85.125H36.375ZM42.875 78.625C46.4649 78.625 49.375 81.5351 49.375 85.125H54.375C54.375 78.7737 49.2263 73.625 42.875 73.625V78.625Z" fill="black"/>
<path d="M65.625 85.125C65.625 86.5057 66.7443 87.625 68.125 87.625C69.5057 87.625 70.625 86.5057 70.625 85.125H65.625ZM83.625 85.125C83.625 86.5057 84.7443 87.625 86.125 87.625C87.5057 87.625 88.625 86.5057 88.625 85.125H83.625ZM70.625 85.125C70.625 81.5351 73.5351 78.625 77.125 78.625V73.625C70.7737 73.625 65.625 78.7737 65.625 85.125H70.625ZM77.125 78.625C80.7149 78.625 83.625 81.5351 83.625 85.125H88.625C88.625 78.7737 83.4763 73.625 77.125 73.625V78.625Z" fill="black"/>
<path d="M16 95L18.662 97.5257C29.8102 108.103 44.5921 114 59.9598 114H61.0402C76.4079 114 91.1898 108.103 102.338 97.5257L105 95" stroke="black" stroke-width="5" stroke-linecap="round"/>
<path d="M35.25 130.588V112.125C35.25 109.018 37.7684 106.5 40.875 106.5H79.125C82.2316 106.5 84.75 109.018 84.75 112.125V130.588C77.6495 135.273 69.1432 138 60 138C50.8568 138 42.3505 135.273 35.25 130.588Z" fill="white" stroke="black" stroke-width="5"/>
</svg>
