<svg width="150" height="120" viewBox="0 0 150 120" fill="none" xmlns="http://www.w3.org/2000/svg">
<g clip-path="url(#clip0)">
<path d="M134.31 112.314L37.6097 117.914C31.5008 118.268 25.7894 114.876 23.1775 109.342L2.80468 66.1794C-0.0422145 60.1479 1.4354 52.961 6.43096 48.5418L9.82986 45.5351C10.6079 44.8469 11.4552 44.2414 12.3583 43.7282L85.2236 2.3275C92.707 -1.92441 102.226 0.979325 106.062 8.6842L146.871 90.654C151.668 100.289 145.056 111.692 134.31 112.314Z" fill="#FFD43E" stroke="#BD7B00" stroke-width="0.5"/>
<path d="M60.0004 81.7495L68.25 91.8745L80.625 94.8745L87.2463 92.2661C90.995 90.7894 94.2118 88.2175 96.4773 84.8857L103.978 71.2494L112.5 68.1812L112.505 68.1349C112.745 65.7745 112.217 63.3995 111 61.363H104.318L97.5 65.9995H94.5L93 34.4995L92.7953 34.3972C90.1768 33.0879 87.0361 33.4207 84.75 35.2495V32.2495L83.625 26.2495H77.625L76.5 32.9995L71.625 32.2495C70.1707 33.219 69.1002 34.6655 68.598 36.3396L68.25 37.4995H68.0737C64.9906 37.4995 61.9567 38.2731 59.25 39.7495L60.0004 81.7495Z" fill="white"/>
<path d="M68.2495 60.7498V41.6246C68.2495 39.3465 66.4028 37.4998 64.1247 37.4998V37.4998C61.8466 37.4998 59.9999 39.3465 59.9999 41.6246V76.289C59.9999 78.7978 60.6338 81.2659 61.8428 83.4642V83.4642C65.3318 89.8081 71.9978 93.7496 79.2379 93.7496H80.7815C85.3642 93.7496 89.7491 91.8828 92.9254 88.5794L94.4571 86.9865C95.7977 85.5922 96.949 84.0275 97.8811 82.3327L102.451 74.0241C103.435 72.2361 105.036 70.8683 106.956 70.177L109.728 69.1791C111.391 68.5805 112.5 67.0032 112.5 65.236V65.236C112.5 62.7842 110.404 60.8561 107.961 61.0597L105.911 61.2305C104.867 61.3175 103.862 61.673 102.996 62.2624L97.4995 65.9998V65.9998C95.7125 67.4889 92.9995 66.2182 92.9995 63.8921V36.3748C92.9995 34.0966 91.1527 32.2498 88.8745 32.2498V32.2498C86.5963 32.2498 84.7495 34.0966 84.7495 36.3748V56.2498" stroke="black" stroke-width="3.75" stroke-linecap="round" stroke-linejoin="round"/>
<path d="M68.2505 60.7498V36.3748C68.2505 34.0966 70.0973 32.2498 72.3755 32.2498V32.2498C74.6537 32.2498 76.5005 34.0966 76.5005 36.3748V56.2498" stroke="black" stroke-width="3.75" stroke-linecap="round" stroke-linejoin="round"/>
<path d="M76.5 56.2495V29.6245C76.5 27.3463 78.3468 25.4995 80.625 25.4995V25.4995C82.9032 25.4995 84.75 27.3463 84.75 29.6245V56.9995" stroke="black" stroke-width="3.75" stroke-linecap="round" stroke-linejoin="round"/>
</g>
<defs>
<clipPath id="clip0">
<rect width="150" height="120" fill="white"/>
</clipPath>
</defs>
</svg>
