<svg width="140" height="143" viewBox="20 0 140 143" fill="none" xmlns="http://www.w3.org/2000/svg">
<path d="M105.434 14.497L59.2388 1.40235C52.8378 -0.412107 45.9536 1.0753 40.8727 5.37053L8.216 32.9772C3.364 37.0789 0.749461 43.2419 1.17208 49.5813L3.69745 87.4617C3.89661 90.4491 4.76395 93.3537 6.23547 95.9611L26.7604 132.33C30.3067 138.614 36.9627 142.5 44.178 142.5H83.0418C86.9295 142.5 90.7329 141.367 93.9868 139.239L121.205 121.443C125.562 118.594 128.637 114.158 129.776 109.078L139.122 67.3803C140.321 62.0297 139.271 56.4213 136.217 51.8671L116.59 22.5998C113.95 18.6618 109.996 15.7901 105.434 14.497Z" fill="#573EC5"/>
<path d="M38.0005 48.9995V94.5338C38.0005 98.6562 39.0421 102.712 41.0287 106.324C45.3285 114.142 53.5436 119 62.4662 119H63.8559C71.1503 119 78.13 116.028 83.1858 110.77L83.9434 109.982C85.7309 108.123 87.2659 106.037 88.5088 103.777L94.6021 92.6989C95.9134 90.3148 98.0493 88.491 100.609 87.5694L104.305 86.2389C106.522 85.4407 108 83.3377 108 80.9814C108 77.7123 105.206 75.1414 101.948 75.4129L99.2624 75.6367C97.8402 75.7553 96.4749 76.2489 95.3058 77.0673L88.0005 82.1813C85.4999 84.3247 81.6369 82.5479 81.6369 79.2545V42.6285C81.6369 39.6201 79.1981 37.1813 76.1897 37.1813C73.1825 37.1813 70.7443 39.6183 70.7426 42.6254L70.7278 69.4541V34.4541C70.7278 31.4416 68.2857 28.9995 65.2732 28.9995C62.2608 28.9995 59.8187 31.4416 59.8187 34.454V42.6359C59.8187 39.6234 57.3766 37.1813 54.3641 37.1813C51.3517 37.1813 48.9096 39.6234 48.9096 42.6359V48.9995C48.9096 45.987 46.4675 43.545 43.455 43.545C40.4426 43.545 38.0005 45.9871 38.0005 48.9995Z" fill="white"/>
<path d="M48.9096 74.9086V48.9995C48.9096 45.987 46.4675 43.545 43.455 43.545V43.545C40.4426 43.545 38.0005 45.9871 38.0005 48.9995V94.5338C38.0005 98.6562 39.0421 102.712 41.0287 106.324V106.324C45.3285 114.142 53.5436 119 62.4662 119H63.8559C71.1503 119 78.13 116.028 83.1858 110.77L83.9434 109.982C85.7309 108.123 87.2659 106.037 88.5088 103.777L94.6021 92.6989C95.9134 90.3148 98.0493 88.491 100.609 87.5694L104.305 86.2389C106.522 85.4407 108 83.3377 108 80.9814V80.9814C108 77.7123 105.206 75.1414 101.948 75.4129L99.2624 75.6367C97.8402 75.7553 96.4749 76.2489 95.3058 77.0673L88.0005 82.1813V82.1813C85.4999 84.3247 81.6369 82.5479 81.6369 79.2545V42.6285C81.6369 39.6201 79.1981 37.1813 76.1897 37.1813V37.1813C73.1825 37.1813 70.7443 39.6183 70.7426 42.6254L70.7278 69.4541V34.4541C70.7278 31.4416 68.2857 28.9995 65.2732 28.9995V28.9995C62.2608 28.9995 59.8187 31.4416 59.8187 34.454V69.4541V42.6359C59.8187 39.6234 57.3766 37.1813 54.3641 37.1813V37.1813C51.3517 37.1813 48.9096 39.6234 48.9096 42.6359V74.9086Z" stroke="black" stroke-width="5" stroke-linecap="round" stroke-linejoin="round"/>
</svg>
