<svg width="135" height="130" viewBox="4 0 135 130" fill="none" xmlns="http://www.w3.org/2000/svg">
<path fill-rule="evenodd" clip-rule="evenodd" d="M0.305664 111.684L54.4585 127.349C83.9691 135.885 115.288 121.608 128.243 93.7123C145.639 56.2505 122.543 12.5025 81.8363 5.81259L51.8346 0.881965C38.3012 -1.34218 24.4122 0.664417 12.0582 6.62863C7.84823 8.66107 3.91806 11.1012 0.305664 13.8883V111.684Z" fill="#D0D7DE"/>
<path d="M60.9914 90.4395H21.5L23 38.4395H98C100.244 38.4395 102.37 39.4415 103.798 41.1719L104.813 42.4011C106.656 44.6341 106.54 47.8922 104.544 49.9889L104.414 50.1253C102.285 52.3608 102.396 55.9057 104.66 58.0037L104.793 58.127C107.086 60.2513 107.086 63.8777 104.793 66.002C102.5 68.1263 102.5 71.7527 104.793 73.877C107.086 76.0013 107.086 79.6277 104.793 81.752L104.66 81.8752C102.396 83.9732 102.285 87.5181 104.414 89.7536L104.544 89.89C106.54 91.9867 106.656 95.2448 104.813 97.4779L103.798 98.707C102.37 100.437 100.244 101.439 98 101.439H93.543L88.9009 107.113C86.7997 109.681 83.5769 110.955 80.3791 110.619C78.8273 110.457 77.507 109.511 76.4112 108.401L73.9719 105.928C69.1384 101.029 61 97.3303 61 90.448C61 90.4433 60.9962 90.4395 60.9914 90.4395Z" fill="white"/>
<path d="M21.5 90.4395L21.0002 90.425L20.9854 90.9395H21.5V90.4395ZM73.9719 105.928L74.3278 105.577L74.3278 105.577L73.9719 105.928ZM76.4112 108.401L76.0552 108.752L76.0552 108.752L76.4112 108.401ZM88.9009 107.113L88.5139 106.797L88.5139 106.797L88.9009 107.113ZM93.543 101.439V100.939H93.3061L93.1561 101.123L93.543 101.439ZM80.3791 110.619L80.4313 110.122L80.4313 110.122L80.3791 110.619ZM23 38.4395V37.9395H22.5142L22.5002 38.425L23 38.4395ZM104.414 89.7536L104.052 90.0984L104.052 90.0984L104.414 89.7536ZM104.544 89.89L104.906 89.5451L104.906 89.5451L104.544 89.89ZM104.813 97.4779L105.199 97.7961L105.199 97.7961L104.813 97.4779ZM103.798 98.707L103.413 98.3887L103.413 98.3887L103.798 98.707ZM104.793 81.752L105.133 82.1187L105.133 82.1187L104.793 81.752ZM104.66 81.8752L104.32 81.5084L104.32 81.5084L104.66 81.8752ZM104.66 58.0037L105 57.637L105 57.637L104.66 58.0037ZM104.793 58.127L104.453 58.4937L104.453 58.4937L104.793 58.127ZM103.798 41.1719L104.184 40.8536L104.184 40.8536L103.798 41.1719ZM104.813 42.4011L104.427 42.7193L104.427 42.7193L104.813 42.4011ZM104.544 49.9889L104.906 50.3338L104.906 50.3338L104.544 49.9889ZM104.414 50.1253L104.052 49.7805L104.052 49.7805L104.414 50.1253ZM21.5 90.9395H60.9914V89.9395H21.5V90.9395ZM73.6159 106.279L76.0552 108.752L76.7671 108.049L74.3278 105.577L73.6159 106.279ZM89.2879 107.43L93.93 101.756L93.1561 101.123L88.5139 106.797L89.2879 107.43ZM80.3269 111.117C83.6894 111.47 87.0782 110.13 89.2879 107.43L88.5139 106.797C86.5211 109.232 83.4644 110.441 80.4313 110.122L80.3269 111.117ZM60.9914 90.9395C60.72 90.9395 60.5 90.7194 60.5 90.448H61.5C61.5 90.1671 61.2723 89.9395 60.9914 89.9395V90.9395ZM98 37.9395H23V38.9395H98V37.9395ZM104.052 90.0984L104.181 90.2348L104.906 89.5451L104.776 89.4087L104.052 90.0984ZM104.427 97.1596L103.413 98.3887L104.184 99.0253L105.199 97.7961L104.427 97.1596ZM104.453 81.3852L104.32 81.5084L105 82.242L105.133 82.1187L104.453 81.3852ZM104.32 58.3705L104.453 58.4937L105.133 57.7602L105 57.637L104.32 58.3705ZM103.413 41.4902L104.427 42.7193L105.199 42.0828L104.184 40.8536L103.413 41.4902ZM104.181 49.6441L104.052 49.7805L104.776 50.4702L104.906 50.3338L104.181 49.6441ZM104.427 42.7193C106.109 44.7573 106.004 47.7306 104.181 49.6441L104.906 50.3338C107.077 48.0538 107.203 44.511 105.199 42.0828L104.427 42.7193ZM104.453 58.4937C106.533 60.4202 106.533 63.7088 104.453 65.6352L105.133 66.3687C107.639 64.0466 107.639 60.0824 105.133 57.7602L104.453 58.4937ZM104.453 74.2437C106.533 76.1702 106.533 79.4588 104.453 81.3852L105.133 82.1187C107.639 79.7966 107.639 75.8324 105.133 73.5102L104.453 74.2437ZM104.181 90.2348C106.004 92.1483 106.109 95.1216 104.427 97.1596L105.199 97.7961C107.203 95.3679 107.077 91.8251 104.906 89.5451L104.181 90.2348ZM105.133 73.5102C103.054 71.5838 103.054 68.2952 105.133 66.3687L104.453 65.6352C101.947 67.9574 101.947 71.9216 104.453 74.2437L105.133 73.5102ZM104.776 89.4087C102.839 87.3752 102.94 84.1505 105 82.242L104.32 81.5084C101.851 83.7959 101.73 87.661 104.052 90.0984L104.776 89.4087ZM98 101.939C100.393 101.939 102.661 100.871 104.184 99.0253L103.413 98.3887C102.08 100.004 100.094 100.939 98 100.939V101.939ZM105 57.637C102.94 55.7284 102.839 52.5037 104.776 50.4702L104.052 49.7805C101.73 52.2179 101.851 56.083 104.32 58.3705L105 57.637ZM98 38.9395C100.094 38.9395 102.08 39.8749 103.413 41.4902L104.184 40.8536C102.661 39.0082 100.393 37.9395 98 37.9395V38.9395ZM21.9998 90.4539L23.4998 38.4539L22.5002 38.425L21.0002 90.425L21.9998 90.4539ZM93.543 101.939H98V100.939H93.543V101.939ZM76.0552 108.752C77.1815 109.893 78.6043 110.936 80.3269 111.117L80.4313 110.122C79.0504 109.977 77.8325 109.129 76.7671 108.049L76.0552 108.752ZM74.3278 105.577C73.0956 104.328 71.6588 103.161 70.2164 102.018C68.766 100.869 67.3131 99.7458 66.0096 98.5616C63.3978 96.1888 61.5 93.6698 61.5 90.448H60.5C60.5 94.1085 62.6714 96.8799 65.3372 99.3017C66.6724 100.515 68.1604 101.665 69.5953 102.802C71.0384 103.946 72.4314 105.079 73.6159 106.279L74.3278 105.577Z" fill="black"/>
<path d="M21.5 90.4395L60.9884 90.4395C60.9948 90.4395 61 90.4447 61 90.4511V90.4511C61 94.208 62.8185 97.7326 65.8803 99.9099L78.1986 108.67C81.1827 110.792 85.3006 110.239 87.6193 107.405L92.5 101.439" stroke="black" stroke-width="5"/>
<path d="M86 101.439H98.457C100.701 101.439 102.827 100.437 104.255 98.707L105.27 97.4779C107.113 95.2448 106.997 91.9867 105 89.89L104.871 89.7536C102.742 87.5181 102.852 83.9732 105.117 81.8752L105.25 81.752C107.543 79.6277 107.543 76.0013 105.25 73.877V73.877C102.957 71.7527 102.957 68.1263 105.25 66.002V66.002C107.543 63.8777 107.543 60.2513 105.25 58.127L105.117 58.0037C102.852 55.9057 102.742 52.3608 104.871 50.1253L105 49.9889C106.997 47.8922 107.113 44.6341 105.27 42.4011L104.255 41.1719C102.827 39.4415 100.701 38.4395 98.457 38.4395H23" stroke="black" stroke-width="5" stroke-linecap="round"/>
<path d="M16 34.4395H0V94.4395H16C19.866 94.4395 23 91.3054 23 87.4395V41.4395C23 37.5735 19.866 34.4395 16 34.4395Z" fill="white"/>
<path d="M0 34.4395H16C19.866 34.4395 23 37.5735 23 41.4395V87.4395C23 91.3054 19.866 94.4395 16 94.4395H0" stroke="black" stroke-width="5"/>
<mask id="path-8-inside-1" fill="white">
<rect x="40" y="33.4395" width="18" height="62" rx="3"/>
</mask>
<rect x="40" y="33.4395" width="18" height="62" rx="3" fill="white" stroke="black" stroke-width="10" mask="url(#path-8-inside-1)"/>
<circle cx="49" cy="64.4395" r="19.5" fill="white" stroke="black" stroke-width="5"/>
<path d="M49 51.4395V64.1318L55 68.4395" stroke="black" stroke-width="5"/>
</svg>
