<svg width="200" height="160" viewBox="0 0 80 120" fill="none" xmlns="http://www.w3.org/2000/svg">
<path d="M89.2382 77.3319C107.959 20.5992 89.613 2.56005 36.3681 6.83852C-5.62795 10.2131 -36.75 -16.8645 -36.75 18.0874C-36.75 56.5767 -20.4059 109.182 16.9507 118.451C44.7318 125.344 78.8504 108.811 89.2382 77.3319Z" fill="#CC2934"/>
<path d="M24.9888 82.2677L15.5209 64.6399C14.7475 63.2001 14.841 61.4493 15.7633 60.1001C17.2903 57.8662 20.4584 57.5397 22.4088 59.4153L28.2097 64.9933C29.0675 65.8511 30.5343 65.2436 30.5343 64.0304V30.8992C30.5343 28.3315 32.6158 26.25 35.1835 26.25C37.7511 26.25 39.8327 28.3315 39.8327 30.8992V48.7211C39.8327 46.1534 41.9142 44.0719 44.4818 44.0719C47.0495 44.0719 49.131 46.1534 49.131 48.7211V53.7577C49.131 51.404 51.0391 49.496 53.3928 49.496C55.7465 49.496 57.6546 51.404 57.6546 53.7577V58.084C57.6546 55.9087 59.4181 54.1452 61.5934 54.1452C63.7178 54.1452 65.4594 55.8297 65.5301 57.9528L66.0027 72.1306C66.1174 75.5701 65.2758 78.974 63.5716 81.9639L63.1248 82.7479C54.6415 97.6307 33.0947 97.3594 24.9888 82.2677Z" fill="white"/>
<path d="M57.6546 58.084V62.6687M57.6546 58.084V53.7577C57.6546 51.404 55.7465 49.496 53.3928 49.496C51.0391 49.496 49.131 51.404 49.131 53.7577M57.6546 58.084C57.6546 55.9087 59.4181 54.1452 61.5934 54.1452C63.7178 54.1452 65.4594 55.8297 65.5301 57.9528L66.0027 72.1306C66.1174 75.5701 65.2758 78.974 63.5716 81.9639L63.1248 82.7479C54.6415 97.6307 33.0947 97.3594 24.9888 82.2677L15.5209 64.6399C14.7475 63.2001 14.841 61.4493 15.7633 60.1001C17.2903 57.8662 20.4584 57.5397 22.4088 59.4153L28.2097 64.9933C29.0675 65.8511 30.5343 65.2436 30.5343 64.0304V30.8992C30.5343 28.3315 32.6158 26.25 35.1835 26.25C37.7511 26.25 39.8327 28.3315 39.8327 30.8992V48.7211M49.131 53.7577V57.2446M49.131 53.7577V48.7211C49.131 46.1534 47.0495 44.0719 44.4819 44.0719C41.9142 44.0719 39.8327 46.1534 39.8327 48.7211M39.8327 48.7211V57.2446" stroke="black" stroke-width="3.75" stroke-linecap="round" stroke-linejoin="round"/>
<path d="M26.6125 29.8686C29.1238 31.8672 30.1876 34.709 28.9884 36.2158C27.7892 37.7226 24.7812 37.3239 22.2698 35.3253C19.7585 33.3266 18.6947 30.4849 19.8939 28.9781C21.0931 27.4713 24.1011 27.87 26.6125 29.8686Z" fill="white"/>
<path d="M25.7535 44.1778C22.7719 45.3659 19.7769 44.8788 19.0641 43.0898C18.3512 41.3008 20.1904 38.8875 23.172 37.6994C26.1536 36.5113 29.1486 36.9985 29.8614 38.7874C30.5743 40.5764 28.7351 42.9898 25.7535 44.1778Z" fill="white"/>
<path d="M30.5336 34.7735H39.832V41.7473H30.5336V34.7735Z" fill="white"/>
<path d="M26.6125 29.8686C29.1238 31.8672 30.1876 34.709 28.9884 36.2158C27.7892 37.7226 24.7812 37.3239 22.2698 35.3253C19.7585 33.3266 18.6947 30.4849 19.8939 28.9781C21.0931 27.4713 24.1011 27.87 26.6125 29.8686Z" stroke="black" stroke-width="3"/>
<path d="M25.7535 44.1778C22.7719 45.3659 19.7769 44.8788 19.0641 43.0898C18.3512 41.3008 20.1904 38.8875 23.172 37.6994C26.1536 36.5113 29.1486 36.9985 29.8614 38.7874C30.5743 40.5764 28.7351 42.9898 25.7535 44.1778Z" stroke="black" stroke-width="3"/>
<path d="M30.5336 34.7735H39.832V41.7473H30.5336V34.7735Z" stroke="black" stroke-width="3"/>
</svg>
