<svg width="24" height="24" viewBox="0 0 24 24" fill="none" xmlns="http://www.w3.org/2000/svg">
<path d="M23 7V6C23 3.23858 20.7614 1 18 1H6C3.23858 1 1 3.23858 1 6V7M23 17V18C23 20.7614 20.7614 23 18 23H6C3.23858 23 1 20.7614 1 18V17" stroke="#002D42" stroke-width="1.5"/>
<path d="M11.25 15V13.299L9.77693 14.1495L9.02693 12.8505L10.5 12L9.02692 11.1495L9.77692 9.85048L11.25 10.701V9H12.75V10.701L14.2231 9.85048L14.9731 11.1495L13.5 12L14.9731 12.8505L14.2231 14.1495L12.75 13.299V15H11.25Z" fill="#002D42"/>
<path d="M3.25 15V13.299L1.77693 14.1495L1.02693 12.8505L2.5 12L1.02692 11.1495L1.77692 9.85048L3.25 10.701V9H4.75V10.701L6.22308 9.85048L6.97308 11.1495L5.5 12L6.97307 12.8505L6.22307 14.1495L4.75 13.299V15H3.25Z" fill="#002D42"/>
<path d="M20.25 15V13.299L18.7769 14.1495L18.0269 12.8505L19.5 12L18.0269 11.1495L18.7769 9.85048L20.25 10.701V9H21.75V10.701L23.2231 9.85048L23.9731 11.1495L22.5 12L23.9731 12.8505L23.2231 14.1495L21.75 13.299V15H20.25Z" fill="#002D42"/>
</svg>
