<svg width="40" height="40" viewBox="0 0 40 40" fill="none" xmlns="http://www.w3.org/2000/svg">
<circle cx="20" cy="20" r="20" fill="#D3080C"/>
<path d="M10.2501 16.9996C10.2501 19.8589 11.4808 22.4306 13.4415 24.2141L14.4505 23.1042C12.7915 21.5951 11.7501 19.419 11.7501 16.9996C11.7501 16.4722 11.7996 15.9564 11.8941 15.4565L10.5876 14.4469C10.3675 15.2605 10.2501 16.1164 10.2501 16.9996Z" fill="white"/>
<path d="M16.1322 21.2543C15.0409 20.2616 14.333 18.8548 14.2569 17.2822L16.1101 18.7143C16.3515 19.2612 16.7049 19.7475 17.1412 20.1444L16.1322 21.2543Z" fill="white"/>
<path d="M14.9883 14.179C15.2915 13.6413 15.6787 13.1574 16.1322 12.7449L17.1412 13.8549C16.7521 14.2087 16.429 14.6338 16.1924 15.1095L18.0517 16.5462C18.2571 15.66 19.0514 14.9996 20.0001 14.9996C21.1046 14.9996 22.0001 15.895 22.0001 16.9996C22.0001 17.7683 21.5664 18.4358 20.9303 18.7706L22.7889 20.2067C23.6842 19.4276 24.2501 18.2797 24.2501 16.9996C24.2501 15.7533 23.7136 14.6323 22.8589 13.8549L23.868 12.7449C25.0242 13.7967 25.7501 15.3134 25.7501 16.9996C25.7501 18.6242 25.0763 20.0915 23.993 21.1372L25.9858 22.6771C27.3891 21.1981 28.2501 19.1994 28.2501 16.9996C28.2501 14.5803 27.2087 12.4041 25.5497 10.8951L26.5587 9.78516C28.4257 11.4835 29.6309 13.8967 29.7417 16.5922L29.7101 17.8885C29.5118 20.0823 28.5869 22.0664 27.1779 23.5983L31.4587 26.9061L30.5415 28.0931L8.5415 11.0931L9.45868 9.90613L11.8032 11.7178C12.2641 11.0041 12.8156 10.3545 13.4415 9.78516L14.4505 10.8951C13.8893 11.4055 13.3988 11.9923 12.9953 12.639L14.9883 14.179Z" fill="white"/>
<path d="M19.2501 29.9996V21.1406L20.7501 22.2997V29.9996H19.2501Z" fill="white"/>
</svg>
