<svg width="24" height="24" viewBox="0 0 24 24" fill="none" xmlns="http://www.w3.org/2000/svg">
<path fill-rule="evenodd" clip-rule="evenodd" d="M19.8745 5.43795L21.0269 4.47765C18.8715 1.89401 15.6277 0.25 12 0.25C8.77246 0.25 5.84883 1.55134 3.72521 3.65794L1.45868 1.90652L0.541504 3.09345L22.5415 20.0935L23.4587 18.9065L15.6483 12.8713C15.7148 12.5917 15.7501 12.2999 15.7501 12C15.7501 9.92893 14.0711 8.25 12.0001 8.25C11.3626 8.25 10.7624 8.40903 10.2368 8.68959L8.14947 7.07668C9.21072 6.2455 10.5475 5.75 12 5.75C13.9297 5.75 15.6551 6.62448 16.8015 7.99875L17.9539 7.03845C16.5323 5.33435 14.3928 4.25 12 4.25C10.0626 4.25 8.29113 4.96096 6.93242 6.13623L4.92401 4.58429C6.76376 2.8283 9.25597 1.75 12 1.75C15.1646 1.75 17.9943 3.18414 19.8745 5.43795ZM11.6451 9.77784L14.2397 11.7828C14.1304 10.6421 13.1694 9.75 12.0001 9.75C11.8793 9.75 11.7607 9.75952 11.6451 9.77784ZM4.12557 18.5621L2.97321 19.5224C5.12857 22.106 8.37231 23.75 12 23.75C15.2928 23.75 18.2693 22.3955 20.4026 20.2134L19.2064 19.2891C17.3549 21.1197 14.8095 22.25 12 22.25C8.83542 22.25 6.00578 20.8159 4.12557 18.5621ZM9.75006 12L9.75013 11.9819L8.40193 10.9401C8.30309 11.2762 8.25006 11.6319 8.25006 12C8.25006 14.0711 9.92899 15.75 12.0001 15.75C12.7071 15.75 13.3685 15.5543 13.933 15.2141L12.5857 14.173C12.3989 14.2232 12.2026 14.25 12.0001 14.25C10.7574 14.25 9.75006 13.2426 9.75006 12ZM12 18.25C13.519 18.25 14.9114 17.7081 15.9945 16.8071L17.2048 17.7423C15.8292 18.9899 14.0034 19.75 12 19.75C9.60728 19.75 7.46779 18.6657 6.04617 16.9616L7.19853 16.0013C8.345 17.3755 10.0704 18.25 12 18.25Z" fill="#D3080C"/>
</svg>
