<svg width="36" height="37" viewBox="0 0 36 37" fill="none" xmlns="http://www.w3.org/2000/svg">
<path fill-rule="evenodd" clip-rule="evenodd" d="M7.39722 23V20.232L5 21.616L4 19.884L6.39711 18.5L4 17.116L5 15.384L7.39722 16.768V14H9.39722V16.7679L11.7942 15.384L12.7942 17.116L10.3971 18.5L12.7942 19.884L11.7942 21.616L9.39722 20.2321V23H7.39722ZM17.0001 14H19.0001V16.7679L21.3971 15.384L22.3971 17.116L20 18.5L22.3971 19.884L21.3971 21.616L19.0001 20.2321V23H17.0001V20.232L14.6029 21.616L13.6029 19.884L16 18.5L13.6029 17.116L14.6029 15.384L17.0001 16.768V14ZM28.603 14H26.603V16.768L24.2057 15.384L23.2057 17.116L25.6029 18.5L23.2057 19.884L24.2057 21.616L26.603 20.232V23H28.603V20.2321L31 21.616L32 19.884L29.6029 18.5L32 17.116L31 15.384L28.603 16.7679V14Z" fill="black"/>
</svg>
