<svg width="24" height="24" viewBox="0 0 24 24" fill="none" xmlns="http://www.w3.org/2000/svg">
<path fill-rule="evenodd" clip-rule="evenodd" d="M21.7122 7.33718C21.7372 7.55466 21.75 7.77583 21.75 8V18C21.75 21.1756 19.1756 23.75 16 23.75H6C2.82436 23.75 0.25 21.1756 0.25 18V8C0.25 4.82436 2.82436 2.25 6 2.25H16C16.2242 2.25 16.4453 2.26283 16.6628 2.28779C17.2849 1.07775 18.5458 0.25 20 0.25C22.0711 0.25 23.75 1.92893 23.75 4C23.75 5.45421 22.9222 6.71509 21.7122 7.33718ZM17.75 4C17.75 2.75736 18.7574 1.75 20 1.75C21.2426 1.75 22.25 2.75736 22.25 4C22.25 5.24264 21.2426 6.25 20 6.25C18.7574 6.25 17.75 5.24264 17.75 4ZM16.2577 3.75769C16.2526 3.8378 16.25 3.9186 16.25 4C16.25 6.07107 17.9289 7.75 20 7.75C20.0814 7.75 20.1622 7.74741 20.2423 7.7423C20.2474 7.82755 20.25 7.91347 20.25 8V18C20.25 20.3472 18.3472 22.25 16 22.25H6C3.65279 22.25 1.75 20.3472 1.75 18V8C1.75 5.65279 3.65279 3.75 6 3.75H16C16.0865 3.75 16.1725 3.75259 16.2577 3.75769Z" fill="black"/>
</svg>
