<svg width="50" height="50" viewBox="0 0 50 50" fill="none" xmlns="http://www.w3.org/2000/svg">
<path fill-rule="evenodd" clip-rule="evenodd" d="M42.18 11.0382L44.6942 8.99499C39.9917 3.4979 32.9146 0 24.9997 0C17.958 0 11.5793 2.76876 6.94609 7.25085L2.00106 3.52446L0 6.04983L47.9989 42.22L50 39.6947L32.9595 26.8536C33.1046 26.2588 33.1814 25.6381 33.1814 25C33.1814 20.5935 29.5184 17.0213 24.9998 17.0213C23.6092 17.0213 22.2995 17.3596 21.1528 17.9565L16.5988 14.5248C18.9142 12.7563 21.8307 11.7021 24.9997 11.7021C29.2098 11.7021 32.9742 13.5627 35.4755 16.4867L37.9897 14.4435C34.888 10.8178 30.2202 8.51064 24.9997 8.51064C20.7727 8.51064 16.9079 10.0233 13.9435 12.5238L9.56159 9.22179C13.5755 5.4857 19.0129 3.19149 24.9997 3.19149C31.9042 3.19149 38.0778 6.24285 42.18 11.0382ZM24.2255 20.272L29.8862 24.5376C29.6477 22.1107 27.551 20.2128 24.9998 20.2128C24.7363 20.2128 24.4777 20.233 24.2255 20.272ZM7.81947 38.9618L5.30528 41.005C10.0078 46.5021 17.0849 50 24.9997 50C32.1839 50 38.6778 47.1181 43.3323 42.4752L40.7225 40.5086C36.6829 44.4036 31.1293 46.8085 24.9997 46.8085C18.0953 46.8085 11.9217 43.7571 7.81947 38.9618ZM20.0908 25L20.091 24.9614L17.1495 22.7449C16.9339 23.46 16.8182 24.2168 16.8182 25C16.8182 29.4065 20.4812 32.9787 24.9998 32.9787C26.5425 32.9787 27.9855 32.5623 29.2171 31.8385L26.2776 29.6234C25.8702 29.7303 25.4418 29.7872 24.9998 29.7872C22.2886 29.7872 20.0908 27.6439 20.0908 25ZM24.9997 38.2979C28.3138 38.2979 31.3518 37.1449 33.7149 35.2279L36.3553 37.2176C33.3541 39.8721 29.3706 41.4894 24.9997 41.4894C19.7793 41.4894 15.1114 39.1822 12.0098 35.5565L14.524 33.5133C17.0253 36.4373 20.7897 38.2979 24.9997 38.2979Z" fill="#5D0712"/>
</svg>
