<svg width="118" height="179" viewBox="0 0 118 179" fill="none" xmlns="http://www.w3.org/2000/svg">
<path d="M-36.0771 65.6439C-69.2158 105.74 -19.066 124.827 46.6981 155.156C58.0279 160.381 71.1454 160.294 82.3029 154.711C106.988 142.357 114.904 107.021 101.857 82.6961C95.9082 71.6058 89.4095 58.4723 82.5732 43.1487C53.1103 -22.893 0.0167878 21.9721 -36.0771 65.6439Z" fill="#CC2934"/>
<path d="M50.9692 97.4662L54.0929 43.1506C54.3941 37.9128 50.2278 33.5 44.9814 33.5C39.7541 33.5 35.5948 37.882 35.8672 43.1022L38.7025 97.4336C38.8728 100.697 41.5687 103.256 44.8368 103.256C48.0922 103.256 50.7823 100.716 50.9692 97.4662Z" fill="white" stroke="black" stroke-width="5"/>
<rect x="37.5" y="112.524" width="15" height="15.9756" rx="7.5" fill="white" stroke="black" stroke-width="5"/>
</svg>

