<svg width="23" height="25" viewBox="0 0 23 25" fill="none" xmlns="http://www.w3.org/2000/svg">
<circle cx="20" cy="5" r="2.5" fill="#6DD2DA"/>
<path fill-rule="evenodd" clip-rule="evenodd" d="M12.2707 23.7242C13.0106 22.7992 14.0711 22.2081 15.181 21.7941C19.4557 20.1998 22.5 16.0804 22.5 11.25C22.5 10.1684 22.3474 9.12238 22.0624 8.13241C21.4707 8.52278 20.7619 8.75 20 8.75C17.9289 8.75 16.25 7.07107 16.25 5C16.25 3.79374 16.8195 2.7205 17.7044 2.03453C15.8773 0.752483 13.6515 0 11.25 0C5.0368 0 0 5.0368 0 11.25C0 16.0804 3.04435 20.1998 7.31903 21.7941C8.42886 22.2081 9.48938 22.7992 10.2293 23.7242L11.25 25L12.2707 23.7242ZM7.5 11.25C7.5 11.9404 6.94036 12.5 6.25 12.5C5.55964 12.5 5 11.9404 5 11.25C5 10.5596 5.55964 10 6.25 10C6.94036 10 7.5 10.5596 7.5 11.25ZM11.25 12.5C11.9404 12.5 12.5 11.9404 12.5 11.25C12.5 10.5596 11.9404 10 11.25 10C10.5596 10 10 10.5596 10 11.25C10 11.9404 10.5596 12.5 11.25 12.5ZM16.25 12.5C16.9404 12.5 17.5 11.9404 17.5 11.25C17.5 10.5596 16.9404 10 16.25 10C15.5596 10 15 10.5596 15 11.25C15 11.9404 15.5596 12.5 16.25 12.5Z" fill="#15A3A6"/>
</svg>
