<svg width="36" height="37" viewBox="0 0 36 37" fill="none" xmlns="http://www.w3.org/2000/svg">
<path fill-rule="evenodd" clip-rule="evenodd" d="M15.2041 7.25C14.0106 7.25 12.866 7.72411 12.0221 8.56802L8.06805 12.5221C7.22414 13.366 6.75003 14.5106 6.75003 15.7041L6.75003 21.2959C6.75003 22.4894 7.22414 23.634 8.06805 24.4779L12.0221 28.432C12.866 29.2759 14.0106 29.75 15.2041 29.75H20.796C21.9894 29.75 23.134 29.2759 23.978 28.432L27.932 24.4779C28.7759 23.634 29.25 22.4894 29.25 21.2959L29.25 15.7041C29.25 14.5106 28.7759 13.366 27.932 12.5221L23.978 8.56802C23.134 7.72411 21.9894 7.25 20.796 7.25H15.2041ZM16.875 11.5901L19.125 11.5901V19.4651L16.875 19.4651L16.875 11.5901ZM16.3125 23.9651C16.3125 23.0331 17.068 22.2776 18 22.2776C18.932 22.2776 19.6875 23.0331 19.6875 23.9651C19.6875 24.8971 18.932 25.6526 18 25.6526C17.0681 25.6526 16.3125 24.8971 16.3125 23.9651Z" fill="black"/>
</svg>
