<svg width="44" height="60" viewBox="0 0 44 60" fill="none" xmlns="http://www.w3.org/2000/svg">
<path d="M39 22C39 27.7112 36.1846 32.7649 31.8616 35.8491C29.5336 37.5099 27.4493 39.9842 27.0637 43H16.9363C16.5507 39.9842 14.4664 37.5099 12.1384 35.8491C7.81539 32.7649 5 27.7112 5 22C5 12.6112 12.6112 5 22 5C31.3888 5 39 12.6112 39 22Z" fill="white" stroke="black" stroke-width="2"/>
<rect x="16" y="46" width="12" height="2" fill="black"/>
<rect x="16" y="50" width="12" height="2" fill="black"/>
<rect x="18" y="54" width="8" height="2" fill="black"/>
<path d="M20 42V21C20 19.3431 18.6569 18 17 18V18C15.3431 18 14 19.3431 14 21V21C14 22.6569 15.3431 24 17 24H27C28.6569 24 30 22.6569 30 21V21C30 19.3431 28.6569 18 27 18V18C25.3431 18 24 19.3431 24 21V42" stroke="black" stroke-width="2"/>
</svg>
