<svg width="17" height="17" viewBox="0 0 17 17" fill="none" xmlns="http://www.w3.org/2000/svg">
<path d="M15.445 13.6324L10.72 8.91478L15.445 4.19712C16.2088 3.46722 16.2266 2.25665 15.4983 1.49114C14.77 0.725632 13.5621 0.707829 12.7983 1.43773C12.7805 1.45553 12.7628 1.47334 12.745 1.49114L8.02002 6.2266L3.25952 1.43773C2.51347 0.690027 1.30558 0.690027 0.559536 1.43773C-0.186512 2.18544 -0.186512 3.396 0.559536 4.14371L5.3378 8.93258L0.612825 13.6502C-0.133223 14.3979 -0.133223 15.6085 0.612825 16.3562C1.35887 17.1039 2.56676 17.1039 3.31281 16.3562L8.02002 11.6386L12.7272 16.3562C13.491 17.0861 14.6989 17.0505 15.4272 16.285C16.1377 15.5373 16.1377 14.3801 15.445 13.6324Z" fill="#CC2934"/>
</svg>
