<svg width="40" height="40" viewBox="0 0 40 40" fill="none" xmlns="http://www.w3.org/2000/svg">
<circle cx="20" cy="20" r="20" fill="#D3080C"/>
<path fill-rule="evenodd" clip-rule="evenodd" d="M27.8744 13.4379L29.0268 12.4776C26.8714 9.89401 23.6277 8.25 20 8.25C16.7724 8.25 13.8488 9.55134 11.7252 11.6579L9.45861 9.90652L8.54144 11.0935L30.5414 28.0935L31.4586 26.9065L23.6483 20.8713C23.7148 20.5917 23.75 20.2999 23.75 20C23.75 17.9289 22.0711 16.25 20 16.25C19.3626 16.25 18.7623 16.409 18.2367 16.6896L16.1494 15.0767C17.2107 14.2455 18.5474 13.75 20 13.75C21.9296 13.75 23.655 14.6245 24.8015 15.9987L25.9538 15.0384C24.5322 13.3343 22.3927 12.25 20 12.25C18.0625 12.25 16.2911 12.961 14.9324 14.1362L12.924 12.5843C14.7637 10.8283 17.2559 9.75 20 9.75C23.1646 9.75 25.9942 11.1841 27.8744 13.4379ZM19.645 17.7778L22.2396 19.7828C22.1304 18.6421 21.1694 17.75 20 17.75C19.8792 17.75 19.7607 17.7595 19.645 17.7778ZM12.1255 26.5621L10.9731 27.5224C13.1285 30.106 16.3723 31.75 20 31.75C23.2928 31.75 26.2692 30.3955 28.4025 28.2134L27.2064 27.2891C25.3548 29.1197 22.8094 30.25 20 30.25C16.8354 30.25 14.0057 28.8159 12.1255 26.5621ZM17.75 20L17.7501 19.9819L16.4019 18.9401C16.303 19.2762 16.25 19.6319 16.25 20C16.25 22.0711 17.9289 23.75 20 23.75C20.7071 23.75 21.3684 23.5543 21.9329 23.2141L20.5856 22.173C20.3989 22.2232 20.2026 22.25 20 22.25C18.7574 22.25 17.75 21.2426 17.75 20ZM20 26.25C21.5189 26.25 22.9114 25.7081 23.9945 24.8071L25.2047 25.7423C23.8291 26.9899 22.0033 27.75 20 27.75C17.6072 27.75 15.4677 26.6657 14.0461 24.9616L15.1985 24.0013C16.3449 25.3755 18.0703 26.25 20 26.25Z" fill="white"/>
</svg>
