<svg width="46" height="37" viewBox="0 0 46 37" fill="none" xmlns="http://www.w3.org/2000/svg">
<path d="M27.1177 35.8799C36.9277 35.8799 45.0576 27.75 45.0576 17.9399C45.0576 8.14795 36.9097 0 27.0996 0C18.0664 0 10.4243 6.95557 9.34033 15.7178C14.959 15.8081 19.6743 19.9272 20.6499 25.311C22.5649 24.498 24.7871 24.0283 27.1177 24.0283C31.562 24.0283 35.4824 25.6904 37.8672 28.2559C35.1572 31.0562 31.3452 32.8267 27.0996 32.8267C24.6064 32.8267 22.2578 32.1943 20.1982 31.1284C19.873 32.0859 19.4395 32.9893 18.8433 33.8384C21.3545 35.1392 24.1548 35.8799 27.1177 35.8799ZM27.0996 20.9932C23.6489 20.9932 21.0293 17.9761 21.0293 14.2183C21.0293 10.6592 23.7031 7.56982 27.0996 7.56982C30.5142 7.56982 33.2061 10.6592 33.188 14.2183C33.188 17.9761 30.5684 20.9932 27.0996 20.9932ZM9.17773 36.5664C14.2183 36.5664 18.3555 32.4473 18.3555 27.3887C18.3555 22.3662 14.2183 18.2109 9.17773 18.2109C4.15527 18.2109 0 22.3662 0 27.3887C0 32.4473 4.15527 36.5664 9.17773 36.5664ZM9.17773 28.834C8.58154 28.834 8.14795 28.4365 8.12988 27.8403L7.98535 22.854C7.96729 22.1494 8.45508 21.6616 9.17773 21.6616C9.91846 21.6616 10.3882 22.1494 10.3701 22.854L10.2256 27.8403C10.2075 28.4365 9.79199 28.834 9.17773 28.834ZM9.17773 33.1519C8.36475 33.1519 7.69629 32.4834 7.69629 31.6704C7.69629 30.8574 8.36475 30.189 9.17773 30.189C10.0088 30.189 10.6592 30.8574 10.6592 31.6704C10.6592 32.4834 10.0088 33.1519 9.17773 33.1519Z" fill="white"/>
</svg>
