<svg width="80" height="96" viewBox="0 0 80 96" fill="none" xmlns="http://www.w3.org/2000/svg">
<rect x="41" y="1" width="38" height="48" fill="white"/>
<path fill-rule="evenodd" clip-rule="evenodd" d="M51.3438 15.5312C50.3427 15.5312 49.5312 16.3427 49.5312 17.3438V20.9688C49.5312 21.9698 50.3427 22.7812 51.3438 22.7812H54.9688C55.9698 22.7812 56.7812 21.9698 56.7812 20.9688V17.3438C56.7812 16.3427 55.9698 15.5312 54.9688 15.5312H51.3438ZM51.3438 17.3438H54.9688V20.9688H51.3438V17.3438ZM64.0312 15.5312C63.0302 15.5312 62.2188 16.3427 62.2188 17.3438V20.9688C62.2188 21.9698 63.0302 22.7812 64.0312 22.7812H67.6562C68.6573 22.7812 69.4688 21.9698 69.4688 20.9688V17.3438C69.4688 16.3427 68.6573 15.5312 67.6562 15.5312H64.0312ZM64.0312 17.3438H67.6562V20.9688H64.0312V17.3438ZM49.5312 30.0312C49.5312 29.0302 50.3427 28.2188 51.3438 28.2188H54.9688C55.9698 28.2188 56.7812 29.0302 56.7812 30.0312V33.6562C56.7812 34.6573 55.9698 35.4688 54.9688 35.4688H51.3438C50.3427 35.4688 49.5312 34.6573 49.5312 33.6562V30.0312ZM54.9688 30.0312H51.3438V33.6562H54.9688V30.0312ZM58.5938 15.5312V22.7812H60.4062V15.5312H58.5938ZM56.7812 26.4062H49.5312V24.5938H56.7812V26.4062ZM58.5938 24.5938V26.4062H62.2188V24.5938H58.5938ZM69.4688 26.4062H64.0312V24.5938H69.4688V26.4062ZM62.2188 30.0312H64.0312V31.8438H65.8438V28.2188H62.2188V30.0312ZM67.6562 33.6562V28.2188H69.4688V33.6562C69.4688 34.6573 68.6573 35.4688 67.6562 35.4688H62.2188V33.6562H67.6562ZM58.5938 28.2188V35.4688H60.4062V28.2188H58.5938Z" fill="black"/>
<rect x="41" y="1" width="38" height="48" stroke="black" stroke-width="2"/>
<path d="M38.5894 38.4106C37.1369 36.9581 37.1369 34.6031 38.5894 33.1506L45.1506 26.5894C46.6031 25.1369 48.9581 25.1369 50.4106 26.5894C51.8631 28.0419 51.8631 30.3969 50.4106 31.8494L43.8494 38.4106C42.3969 39.8631 40.0419 39.8631 38.5894 38.4106Z" fill="#D0D7DE" stroke="black" stroke-width="3"/>
<path d="M40.2522 77.8258L41.786 75.5H39H20C16.9624 75.5 14.5 73.0376 14.5 70V66.5V66.4452L14.496 66.3905L13.9062 58.3342C14.3274 51.3562 14.3377 46.6676 13.8859 43.6918C13.6608 42.2094 13.2973 40.9695 12.6735 40.0708C11.9779 39.0686 10.992 38.5464 9.83847 38.5464C8.15186 38.5464 6.81671 39.2686 5.97274 40.5391C5.1895 41.7182 4.91923 43.2296 4.91923 44.738C4.91923 45.2314 4.76283 46.6516 4.48571 48.7021C4.21596 50.698 3.85002 53.168 3.46657 55.6676C2.69991 60.6653 1.86726 65.7557 1.60435 67.3538C1.53512 67.7746 1.5 68.2009 1.5 68.6285V76.2959C1.5 85.4466 8.33301 93.1563 17.4174 94.2557C24.2271 95.0797 30.9172 91.9816 34.6934 86.2553L40.2522 77.8258Z" fill="#D0D7DE" stroke="black" stroke-width="3"/>
<rect x="14.5" y="15.5" width="30" height="60" rx="5.5" fill="white" stroke="black" stroke-width="3"/>
<rect x="14.5" y="23.5" width="30" height="44" fill="black" stroke="black" stroke-width="3"/>
<path fill-rule="evenodd" clip-rule="evenodd" d="M21.3438 28.5312C20.3427 28.5312 19.5312 29.3427 19.5312 30.3438V33.9688C19.5312 34.9698 20.3427 35.7812 21.3438 35.7812H24.9688C25.9698 35.7812 26.7812 34.9698 26.7812 33.9688V30.3438C26.7812 29.3427 25.9698 28.5312 24.9688 28.5312H21.3438ZM21.3438 30.3438H24.9688V33.9688H21.3438V30.3438ZM34.0312 28.5312C33.0302 28.5312 32.2188 29.3427 32.2188 30.3438V33.9688C32.2188 34.9698 33.0302 35.7812 34.0312 35.7812H37.6562C38.6573 35.7812 39.4688 34.9698 39.4688 33.9688V30.3438C39.4688 29.3427 38.6573 28.5312 37.6562 28.5312H34.0312ZM34.0312 30.3438H37.6562V33.9688H34.0312V30.3438ZM19.5312 43.0312C19.5312 42.0302 20.3427 41.2188 21.3438 41.2188H24.9688C25.9698 41.2188 26.7812 42.0302 26.7812 43.0312V46.6562C26.7812 47.6573 25.9698 48.4688 24.9688 48.4688H21.3438C20.3427 48.4688 19.5312 47.6573 19.5312 46.6562V43.0312ZM24.9688 43.0312H21.3438V46.6562H24.9688V43.0312ZM28.5938 28.5312V35.7812H30.4062V28.5312H28.5938ZM26.7812 39.4062H19.5312V37.5938H26.7812V39.4062ZM28.5938 37.5938V39.4062H32.2188V37.5938H28.5938ZM39.4688 39.4062H34.0312V37.5938H39.4688V39.4062ZM32.2188 43.0312H34.0312V44.8438H35.8438V41.2188H32.2188V43.0312ZM37.6562 46.6562V41.2188H39.4688V46.6562C39.4688 47.6573 38.6573 48.4688 37.6562 48.4688H32.2188V46.6562H37.6562ZM28.5938 41.2188V48.4688H30.4062V41.2188H28.5938Z" fill="white"/>
<path d="M39.7695 47.3667C38.612 46.0341 38.754 44.0155 40.0866 42.858L44.9003 38.6772C46.2329 37.5197 48.2515 37.6617 49.4089 38.9944C50.5663 40.327 50.4243 42.3456 49.0917 43.503L44.2781 47.6839C42.9455 48.8413 40.9269 48.6993 39.7695 47.3667Z" fill="#D0D7DE" stroke="black" stroke-width="3"/>
<path d="M41.7127 56.8286C40.5089 55.7985 40.368 53.9875 41.3982 52.7837L44.6423 48.9925C45.6725 47.7887 47.4834 47.6478 48.6872 48.678C49.8911 49.7081 50.0319 51.519 49.0018 52.7229L45.7576 56.5141C44.7275 57.7179 42.9165 57.8587 41.7127 56.8286Z" fill="#D0D7DE" stroke="black" stroke-width="3"/>
<path d="M40.9071 64.8061C40.1122 63.4302 40.5833 61.6705 41.9592 60.8756L46.212 58.4188C47.5879 57.6239 49.3477 58.095 50.1425 59.4709C50.9374 60.8468 50.4664 62.6066 49.0904 63.4014L44.8376 65.8583C43.4617 66.6531 41.7019 66.1821 40.9071 64.8061Z" fill="#D0D7DE" stroke="black" stroke-width="3"/>
<path d="M20.2092 81.989C19.7441 76.4076 16.9534 71.2914 10.9069 68.5007L9.04639 73.5347L16.9534 83.3022L20.2092 81.989Z" fill="#D0D7DE"/>
<path d="M10.907 68.5005C16.9535 71.2912 19.7442 76.4075 20.2093 81.9889" stroke="black" stroke-width="3" stroke-linecap="round"/>
</svg>
