<svg width="84" height="98" viewBox="0 0 84 98" fill="none" xmlns="http://www.w3.org/2000/svg">
<rect x="38.5" y="1" width="44" height="56" fill="white"/>
<path fill-rule="evenodd" clip-rule="evenodd" d="M52.9375 19.4375C51.8329 19.4375 50.9375 20.3329 50.9375 21.4375V24.875C50.9375 25.9796 51.8329 26.875 52.9375 26.875H56.375C57.4796 26.875 58.375 25.9796 58.375 24.875V21.4375C58.375 20.3329 57.4796 19.4375 56.375 19.4375H52.9375ZM52.9375 21.4375H56.375V24.875H52.9375V21.4375ZM65.625 19.4375C64.5204 19.4375 63.625 20.3329 63.625 21.4375V24.875C63.625 25.9796 64.5204 26.875 65.625 26.875H69.0625C70.1671 26.875 71.0625 25.9796 71.0625 24.875V21.4375C71.0625 20.3329 70.1671 19.4375 69.0625 19.4375H65.625ZM65.625 21.4375H69.0625V24.875H65.625V21.4375ZM50.9375 34.125C50.9375 33.0204 51.8329 32.125 52.9375 32.125H56.375C57.4796 32.125 58.375 33.0204 58.375 34.125V37.5625C58.375 38.6671 57.4796 39.5625 56.375 39.5625H52.9375C51.8329 39.5625 50.9375 38.6671 50.9375 37.5625V34.125ZM56.375 34.125H52.9375V37.5625H56.375V34.125ZM60 19.5312V26.7812H62V19.5312H60ZM58.2812 30.5H51.0312V28.5H58.2812V30.5ZM60.0938 30.5H63.7188V28.5H60.0938V30.5ZM70.9688 30.5H65.5312V28.5H70.9688V30.5ZM63.7188 34.125H65.4375V35.8438H67.4375V33.125V32.125H66.4375H63.7188V34.125ZM69.0625 37.5625V32.2188H71.0625V37.5625C71.0625 38.6671 70.1671 39.5625 69.0625 39.5625H63.7188V37.5625H69.0625ZM60 32.2188V39.4688H62V32.2188H60Z" fill="black"/>
<rect x="38.5" y="1" width="44" height="56" stroke="black" stroke-width="2"/>
<path d="M39.0894 40.4106C37.6369 38.9581 37.6369 36.6031 39.0894 35.1506L45.6506 28.5894C47.1031 27.1369 49.4581 27.1369 50.9106 28.5894C52.3631 30.0419 52.3631 32.3969 50.9106 33.8494L44.3494 40.4106C42.8969 41.8631 40.5419 41.8631 39.0894 40.4106Z" fill="#D0D7DE" stroke="black" stroke-width="3"/>
<rect x="16.5" y="27" width="27" height="48" fill="black"/>
<path fill-rule="evenodd" clip-rule="evenodd" d="M21.9375 30.4375C20.8329 30.4375 19.9375 31.3329 19.9375 32.4375V35.875C19.9375 36.9796 20.8329 37.875 21.9375 37.875H25.375C26.4796 37.875 27.375 36.9796 27.375 35.875V32.4375C27.375 31.3329 26.4796 30.4375 25.375 30.4375H21.9375ZM21.9375 32.4375H25.375V35.875H21.9375V32.4375ZM34.625 30.4375C33.5204 30.4375 32.625 31.3329 32.625 32.4375V35.875C32.625 36.9796 33.5204 37.875 34.625 37.875H38.0625C39.1671 37.875 40.0625 36.9796 40.0625 35.875V32.4375C40.0625 31.3329 39.1671 30.4375 38.0625 30.4375H34.625ZM34.625 32.4375H38.0625V35.875H34.625V32.4375ZM19.9375 45.125C19.9375 44.0204 20.8329 43.125 21.9375 43.125H25.375C26.4796 43.125 27.375 44.0204 27.375 45.125V48.5625C27.375 49.6671 26.4796 50.5625 25.375 50.5625H21.9375C20.8329 50.5625 19.9375 49.6671 19.9375 48.5625V45.125ZM25.375 45.125H21.9375V48.5625H25.375V45.125ZM29 30.5312V37.7812H31V30.5312H29ZM27.2812 41.5H20.0312V39.5H27.2812V41.5ZM29.0938 41.5H32.7188V39.5H29.0938V41.5ZM39.9688 41.5H34.5312V39.5H39.9688V41.5ZM32.7188 45.125H34.4375V46.8438H36.4375V44.125V43.125H35.4375H32.7188V45.125ZM38.0625 48.5625V43.2188H40.0625V48.5625C40.0625 49.6671 39.1671 50.5625 38.0625 50.5625H32.7188V48.5625H38.0625ZM29 43.2188V50.4688H31V43.2188H29Z" fill="white"/>
<path d="M40.7522 79.8258L42.286 77.5H39.5H20.5C17.4624 77.5 15 75.0376 15 72V68.5V68.4452L14.996 68.3905L14.4062 60.3342C14.8274 53.3562 14.8377 48.6676 14.3859 45.6918C14.1608 44.2094 13.7973 42.9695 13.1735 42.0708C12.4779 41.0686 11.492 40.5464 10.3385 40.5464C8.65186 40.5464 7.31671 41.2686 6.47274 42.5391C5.6895 43.7182 5.41923 45.2296 5.41923 46.738C5.41923 47.2314 5.26283 48.6516 4.98571 50.7021C4.71596 52.698 4.35002 55.168 3.96657 57.6676C3.19991 62.6653 2.36726 67.7557 2.10435 69.3538C2.03512 69.7746 2 70.2009 2 70.6285V78.2959C2 87.4466 8.83301 95.1563 17.9174 96.2557C24.7271 97.0797 31.4172 93.9816 35.1934 88.2553L40.7522 79.8258Z" fill="#D0D7DE" stroke="black" stroke-width="3"/>
<mask id="path-7-inside-1" fill="white">
<path fill-rule="evenodd" clip-rule="evenodd" d="M20.5 16C16.634 16 13.5 19.134 13.5 23V72C13.5 75.866 16.634 79 20.5 79H39.5C43.366 79 46.5 75.866 46.5 72V23C46.5 19.134 43.366 16 39.5 16H20.5ZM43.5 27H16.5V69H43.5V27Z"/>
</mask>
<path fill-rule="evenodd" clip-rule="evenodd" d="M20.5 16C16.634 16 13.5 19.134 13.5 23V72C13.5 75.866 16.634 79 20.5 79H39.5C43.366 79 46.5 75.866 46.5 72V23C46.5 19.134 43.366 16 39.5 16H20.5ZM43.5 27H16.5V69H43.5V27Z" fill="white"/>
<path d="M16.5 27V24H13.5V27H16.5ZM43.5 27H46.5V24H43.5V27ZM16.5 69H13.5V72H16.5V69ZM43.5 69V72H46.5V69H43.5ZM16.5 23C16.5 20.7909 18.2909 19 20.5 19V13C14.9772 13 10.5 17.4772 10.5 23H16.5ZM16.5 72V23H10.5V72H16.5ZM20.5 76C18.2909 76 16.5 74.2091 16.5 72H10.5C10.5 77.5228 14.9772 82 20.5 82V76ZM39.5 76H20.5V82H39.5V76ZM43.5 72C43.5 74.2091 41.7091 76 39.5 76V82C45.0228 82 49.5 77.5228 49.5 72H43.5ZM43.5 23V72H49.5V23H43.5ZM39.5 19C41.7091 19 43.5 20.7909 43.5 23H49.5C49.5 17.4772 45.0228 13 39.5 13V19ZM20.5 19H39.5V13H20.5V19ZM16.5 30H43.5V24H16.5V30ZM19.5 69V27H13.5V69H19.5ZM43.5 66H16.5V72H43.5V66ZM40.5 27V69H46.5V27H40.5Z" fill="black" mask="url(#path-7-inside-1)"/>
<path d="M40.2699 49.3667C39.1125 48.0341 39.2545 46.0155 40.5871 44.858L45.4008 40.6772C46.7334 39.5197 48.752 39.6617 49.9094 40.9944C51.0668 42.327 50.9248 44.3456 49.5922 45.503L44.7786 49.6839C43.446 50.8413 41.4274 50.6993 40.2699 49.3667Z" fill="#D0D7DE" stroke="black" stroke-width="3"/>
<path d="M42.2132 58.8286C41.0094 57.7985 40.8685 55.9875 41.8987 54.7837L45.1428 50.9925C46.1729 49.7887 47.9839 49.6478 49.1877 50.678C50.3915 51.7081 50.5324 53.519 49.5022 54.7229L46.2581 58.5141C45.228 59.7179 43.417 59.8587 42.2132 58.8286Z" fill="#D0D7DE" stroke="black" stroke-width="3"/>
<path d="M41.4071 66.8061C40.6122 65.4302 41.0833 63.6705 42.4592 62.8756L46.712 60.4188C48.0879 59.6239 49.8477 60.095 50.6425 61.4709C51.4374 62.8468 50.9664 64.6066 49.5904 65.4014L45.3376 67.8583C43.9617 68.6531 42.2019 68.1821 41.4071 66.8061Z" fill="#D0D7DE" stroke="black" stroke-width="3"/>
<path d="M20.7092 83.989C20.2441 78.4076 17.4534 73.2913 11.4069 70.5006L9.54639 75.5347L17.4534 85.3022L20.7092 83.989Z" fill="#D0D7DE"/>
<path d="M11.4067 70.5005C17.4532 73.2912 20.2439 78.4075 20.7091 83.9889" stroke="black" stroke-width="3" stroke-linecap="round"/>
</svg>
