<svg width="56" height="56" viewBox="0 0 56 56" fill="none" xmlns="http://www.w3.org/2000/svg">
<rect width="56" height="56" rx="8" fill="#89CDFB"/>
<path fill-rule="evenodd" clip-rule="evenodd" d="M17.3972 33V30.232L15 31.616L14 29.884L16.3971 28.5L14 27.116L15 25.384L17.3972 26.768V24H19.3972V26.7679L21.7942 25.384L22.7942 27.116L20.3971 28.5L22.7942 29.884L21.7942 31.616L19.3972 30.2321V33H17.3972ZM27.0001 24H29.0001V26.7679L31.3971 25.384L32.3971 27.116L30 28.5L32.3971 29.884L31.3971 31.616L29.0001 30.2321V33H27.0001V30.232L24.6029 31.616L23.6029 29.884L26 28.5L23.6029 27.116L24.6029 25.384L27.0001 26.768V24ZM38.603 24H36.603V26.768L34.2057 25.384L33.2057 27.116L35.6029 28.5L33.2057 29.884L34.2057 31.616L36.603 30.232V33H38.603V30.2321L41 31.616L42 29.884L39.6029 28.5L42 27.116L41 25.384L38.603 26.7679V24Z" fill="black"/>
</svg>

