<svg width="42" height="75" viewBox="0 0 42 75" fill="none" xmlns="http://www.w3.org/2000/svg">
<path fill-rule="evenodd" clip-rule="evenodd" d="M13.5982 13.503C15.21 12.5469 17.0817 12 19.0912 12C25.0684 12 30.0003 16.9089 30.0003 23.0714C30.0003 26.44 28.31 29.5756 25.5636 31.6826C23.1205 33.5567 20.1835 35.9496 17.8514 38.8257C15.5014 41.7238 13.4549 45.4943 13.4549 50.0714V52C13.4549 54.7614 15.6935 57 18.4549 57C21.2163 57 23.4549 54.7614 23.4549 52V50.0714C23.4549 48.6128 24.0899 47.0094 25.6188 45.124C27.1655 43.2165 29.3045 41.4164 31.6503 39.6168C36.5802 35.8347 40.0003 29.89 40.0003 23.0714C40.0003 11.482 30.6868 2 19.0912 2C15.1062 2 11.3698 3.12833 8.19555 5.08427L8.02344 5.19032L4.04227 8.11175C1.81595 9.74545 1.33553 12.8746 2.96923 15.1009C4.60292 17.3272 7.73209 17.8077 9.95841 16.174L13.5982 13.503Z" fill="white" stroke="black" stroke-width="3.75" stroke-linecap="round"/>
<circle cx="18.4502" cy="68" r="5" fill="white" stroke="black" stroke-width="3.75"/>
</svg>
