<svg width="24" height="24" viewBox="0 0 24 24" fill="none" xmlns="http://www.w3.org/2000/svg">
<path fill-rule="evenodd" clip-rule="evenodd" d="M3 3H9H10.5V4.5H9V9V10.5H7.5V9H3V3ZM12 12V13.5H10.5H9V12V10.5H10.5V12H12ZM12 12V10.5H13.5V12H12ZM4.5 4.5H7.5V7.5H4.5V4.5ZM16.5 15H15V13.5H16.5V15ZM18 19.5V18H16.5V19.5H15V18V16.5H13.5V15H12H10.5V16.5H12H13.5V18V19.5H12V18H10.5V19.5V21H12H13.5V19.5H15V21H16.5H18V19.5ZM19.5 21H21V19.5V18H19.5V19.5V21ZM9 15H3V21H9V15ZM7.5 16.5H4.5V19.5H7.5V16.5ZM15 3H21V9H15V3ZM16.5 4.5H19.5V7.5H16.5V4.5ZM15 12H16.5H18V13.5H19.5V15H21V13.5H19.5V12V10.5H18H16.5H15V12ZM12 9H13.5V7.5H12V6H10.5V7.5L12 7.5V9ZM3 13.5H4.5H6V12H4.5H3V13.5Z" fill="black"/>
</svg>
