<svg width="24" height="24" viewBox="0 0 24 24" fill="none" xmlns="http://www.w3.org/2000/svg">
<path fill-rule="evenodd" clip-rule="evenodd" d="M5.5 3.75C4.5335 3.75 3.75 4.5335 3.75 5.5V8C3.75 8.9665 4.5335 9.75 5.5 9.75H8C8.9665 9.75 9.75 8.9665 9.75 8V5.5C9.75 4.5335 8.9665 3.75 8 3.75H5.5ZM5.25 5.5C5.25 5.36193 5.36193 5.25 5.5 5.25H8C8.13807 5.25 8.25 5.36193 8.25 5.5V8C8.25 8.13807 8.13807 8.25 8 8.25H5.5C5.36193 8.25 5.25 8.13807 5.25 8V5.5ZM16 3.75C15.0335 3.75 14.25 4.5335 14.25 5.5V8C14.25 8.9665 15.0335 9.75 16 9.75H18.5C19.4665 9.75 20.25 8.9665 20.25 8V5.5C20.25 4.5335 19.4665 3.75 18.5 3.75H16ZM15.75 5.5C15.75 5.36193 15.8619 5.25 16 5.25H18.5C18.6381 5.25 18.75 5.36193 18.75 5.5V8C18.75 8.13807 18.6381 8.25 18.5 8.25H16C15.8619 8.25 15.75 8.13807 15.75 8V5.5ZM3.75 16C3.75 15.0335 4.5335 14.25 5.5 14.25H8C8.9665 14.25 9.75 15.0335 9.75 16V18.5C9.75 19.4665 8.9665 20.25 8 20.25H5.5C4.5335 20.25 3.75 19.4665 3.75 18.5V16ZM5.5 15.75C5.36193 15.75 5.25 15.8619 5.25 16V18.5C5.25 18.6381 5.36193 18.75 5.5 18.75H8C8.13807 18.75 8.25 18.6381 8.25 18.5V16C8.25 15.8619 8.13807 15.75 8 15.75H5.5ZM11.25 3.75V9.75H12.75V3.75H11.25ZM9.75 12.75H3.75V11.25H9.75V12.75ZM11.25 11.25V12.75H14.25V11.25H11.25ZM20.25 12.75H15.75V11.25H20.25V12.75ZM14.25 15.75H15.75V17.25H17.25V15V14.25H16.5H14.25V15.75ZM18.75 18.5V14.25H20.25V18.5C20.25 19.4665 19.4665 20.25 18.5 20.25H14.25V18.75H18.5C18.6381 18.75 18.75 18.6381 18.75 18.5ZM11.25 14.25V20.25H12.75V14.25H11.25Z" fill="black"/>
</svg>
