<svg width="24" height="24" viewBox="0 0 24 24" fill="none" xmlns="http://www.w3.org/2000/svg">
<path d="M21 15H19.5V19.5H15V21H19C20.1046 21 21 20.1046 21 19V15Z" fill="black"/>
<path d="M3 9L4.5 9L4.5 4.5L9 4.5L9 3L5 3C3.89543 3 3 3.89543 3 5L3 9Z" fill="black"/>
<path d="M9 21L9 19.5L4.5 19.5L4.5 15L3 15L3 19C3 20.1046 3.89543 21 5 21L9 21Z" fill="black"/>
<path d="M15 3L15 4.5L19.5 4.5L19.5 9L21 9L21 5C21 3.89543 20.1046 3 19 3L15 3Z" fill="black"/>
<path fill-rule="evenodd" clip-rule="evenodd" d="M6 6H10.5H12V7.5H10.5V10.5V12H9V10.5H6V6ZM9 13.5V12H7.5H6V13.5V18H10.5V16.5H12V18H13.5H15V16.5V15H13.5V16.5H12V15H10.5V13.5H12H13.5V12V10.5H15V12H16.5V13.5H18V12H16.5V10.5H18V6H13.5V7.5H12V9H13.5V10.5H12V12H10.5V13.5H9ZM7.5 9H9V7.5H7.5V9ZM16.5 18H18V16.5V15H16.5V16.5V18ZM16.5 9H15V7.5H16.5V9ZM7.5 16.5H9V15H7.5V16.5Z" fill="black"/>
</svg>
