<svg width="80" height="80" viewBox="0 0 80 80" fill="none" xmlns="http://www.w3.org/2000/svg">
<path d="M0 40C0 17.9086 17.9086 0 40 0C62.0914 0 80 17.9086 80 40C80 62.0914 62.0914 80 40 80C17.9086 80 0 62.0914 0 40Z" fill="#B1081E"/>
<path fill-rule="evenodd" clip-rule="evenodd" d="M42.5 15H37.5L37.5 50H42.5L42.5 15Z" fill="white"/>
<path d="M40 57.5C37.9289 57.5 36.25 59.1789 36.25 61.25C36.25 63.3211 37.9289 65 40 65C42.0711 65 43.75 63.3211 43.75 61.25C43.75 59.1789 42.0711 57.5 40 57.5Z" fill="white"/>
</svg>
