<svg width="178" height="94" viewBox="0 0 178 94" fill="none" xmlns="http://www.w3.org/2000/svg">
<g clip-path="url(#clip0)">
<path d="M35.1955 31.8248C36.9213 33.5451 39.6335 33.5451 41.3594 31.8248L53.9954 19.2301C55.7213 17.5098 55.7213 14.8065 53.9954 13.0863C52.2695 11.366 49.5573 11.366 47.8315 13.0863L35.1955 25.681C33.5312 27.3399 33.5312 30.1046 35.1955 31.8248Z" fill="#D1D4D4"/>
<path d="M48.8176 14.1307L36.1816 26.6641C35.6269 27.217 35.3187 27.9542 35.3187 28.7529C35.3187 29.5516 35.6269 30.2889 36.1816 30.8418C37.3528 32.0092 39.2019 32.0092 40.3114 30.8418L52.9474 18.2471C54.1186 17.0797 54.1186 15.2366 52.9474 14.1307C52.3927 13.5778 51.653 13.2706 50.8517 13.2706C50.112 13.2706 49.3724 13.5163 48.8176 14.1307ZM34.2092 32.8078C33.0997 31.702 32.5449 30.2889 32.5449 28.7529C32.5449 27.217 33.1613 25.7425 34.2092 24.698L46.8452 12.1033C49.0642 9.83007 52.7625 9.83007 54.9815 12.1033C56.091 13.2092 56.6458 14.6222 56.6458 16.1582C56.6458 17.6941 56.0294 19.1686 54.9815 20.2131L42.3455 32.8078C41.236 33.9137 39.7567 34.4667 38.2774 34.4667C36.798 34.4667 35.3187 33.9137 34.2092 32.8078Z" fill="black"/>
<path d="M31.1892 92.4026L32.237 80.668L40.6816 67.7046L14.6083 58.9189L13.9919 47.7987C13.9919 47.7987 14.6699 38.5216 14.1768 35.4497C13.8686 33.115 12.5125 27.5242 8.50599 27.8928C4.49945 28.3229 4.99256 33.3608 4.93093 34.8353C4.93093 35.5725 3.69814 41.3477 2.8352 47.3686C2.21881 51.7921 1.78733 52.5908 1.60242 56.4C1.4175 60.1477 4.62273 65.4928 5.23912 68.8719C5.79387 72.3124 6.4719 92.4026 6.4719 92.4026" fill="#D1D4D4"/>
<path d="M31.189 94C31.9903 94 32.6683 93.3856 32.73 92.5869L33.7162 81.2209L41.9142 68.5647C42.1607 68.1346 42.2224 67.6431 42.0991 67.2131C41.9142 66.783 41.606 66.4144 41.1129 66.2301L16.1491 57.7516L15.5943 47.7987C15.6559 46.6928 16.2107 38.2758 15.7792 35.2039C15.1012 30.5961 12.8205 25.8654 8.38254 26.3569C3.32814 26.9098 3.38978 32.5006 3.38978 34.3438C3.38978 34.5281 3.38978 34.651 3.38978 34.7739C3.38978 35.081 3.14322 36.4327 2.89667 37.7229C2.46519 40.1804 1.8488 43.5595 1.29405 47.1229C1.0475 48.7203 0.862579 49.8261 0.677661 50.8091C0.369466 52.5294 0.12291 53.8196 -0.0003679 56.2771C-0.123646 58.8575 0.985857 61.8065 2.157 64.6327C2.83503 66.3529 3.45142 67.9503 3.69797 69.1176C4.12945 71.7595 4.6842 85.5216 4.93075 92.4026C4.93075 93.2627 5.67042 93.9386 6.53337 93.9386C7.39632 93.9386 8.07434 93.2013 8.07434 92.3412C8.07434 91.5425 7.39632 72.1281 6.77993 68.6261C6.53337 67.0902 5.85534 65.3085 5.11567 63.4654C4.12945 61.1307 3.08158 58.366 3.14322 56.4614C3.2665 54.1882 3.45142 53.0823 3.75961 51.3621C3.94453 50.3791 4.12945 49.2118 4.376 47.5529C4.93075 44.1124 5.54714 40.7948 5.97862 38.3373C6.41009 36.064 6.53337 35.3268 6.53337 34.8967C6.53337 34.7739 6.53337 34.5895 6.53337 34.3438C6.53337 31.0261 7.08812 29.6745 8.69074 29.4902C9.12221 29.4288 10.2317 29.3059 11.3412 31.3948C12.2042 32.9922 12.5124 34.8967 12.6356 35.6954C13.0055 38.0301 12.574 45.1569 12.3891 47.7372C12.3891 47.7987 12.3891 47.8601 12.3891 47.9216L13.0055 59.0418C13.0671 59.6562 13.4369 60.2091 14.0533 60.4549L38.2158 68.5647L30.8808 79.8693C30.7575 80.0536 30.6342 80.2993 30.6342 80.6065L29.5864 92.3412C29.5247 93.2013 30.1411 93.9386 31.0041 94.0614C31.1273 94 31.1273 94 31.189 94Z" fill="black"/>
<path d="M17.9982 8.23269L17.9365 9.33857H45.4892L45.4275 8.23269C45.3042 5.59086 43.1469 3.50197 40.4964 3.50197H22.9293C20.2788 3.50197 18.1214 5.59086 17.9982 8.23269Z" fill="white"/>
<path d="M17.9365 59.9634L17.9982 61.0693C18.1214 63.7111 20.2788 65.8 22.9293 65.8H40.558C43.2085 65.8 45.3659 63.7111 45.4892 61.0693L45.5508 59.9634H17.9365Z" fill="white"/>
<path d="M45.4891 12.1033H17.998V57.1373H45.4891V12.1033Z" fill="black"/>
<rect width="29.5867" height="29.4902" transform="translate(16.6421 11.0588)" fill="black"/>
<rect x="20.967" y="24.5875" width="6.14335" height="2.43294" fill="white" stroke="white" stroke-width="1.25333"/>
<rect x="30.2131" y="15.3718" width="2.44501" height="2.43294" fill="white" stroke="white" stroke-width="1.25333"/>
<rect x="39.4587" y="24.5875" width="2.44501" height="2.43294" fill="white" stroke="white" stroke-width="1.25333"/>
<rect x="30.2131" y="20.9012" width="2.44501" height="2.43294" fill="white" stroke="white" stroke-width="1.25333"/>
<rect x="39.4587" y="33.8031" width="2.44501" height="2.43294" fill="white" stroke="white" stroke-width="1.25333"/>
<rect x="33.9113" y="33.8031" width="2.44501" height="2.43294" fill="white" stroke="white" stroke-width="1.25333"/>
<rect x="30.2131" y="28.2737" width="2.44501" height="7.96235" fill="white" stroke="white" stroke-width="1.25333"/>
<rect x="33.9113" y="24.5875" width="2.44501" height="2.43294" fill="white" stroke="white" stroke-width="1.25333"/>
<rect x="39.4587" y="28.2737" width="2.44501" height="2.43294" fill="white" stroke="white" stroke-width="1.25333"/>
<path fill-rule="evenodd" clip-rule="evenodd" d="M25.2715 17.2026H22.8059V19.6601H25.2715V17.2026ZM20.3403 14.7451V22.1177H27.737V14.7451H20.3403Z" fill="white"/>
<path fill-rule="evenodd" clip-rule="evenodd" d="M25.2715 31.9477H22.8059V34.4052H25.2715V31.9477ZM20.3403 29.4902V36.8628H27.737V29.4902H20.3403Z" fill="white"/>
<path fill-rule="evenodd" clip-rule="evenodd" d="M40.0649 17.2026H37.5994V19.6601H40.0649V17.2026ZM35.1338 14.7451V22.1177H42.5305V14.7451H35.1338Z" fill="white"/>
<path d="M17.9366 9.33856L17.9983 8.23268C18.1216 5.59085 20.2789 3.50196 22.9294 3.50196H40.5582C43.2087 3.50196 45.366 5.59085 45.4893 8.23268L45.5509 9.33856H17.9366ZM17.9983 12.1033H45.4893V57.1373H17.9983V12.1033ZM17.9366 59.9634H45.4893L45.4277 61.0693C45.3044 63.7111 43.147 65.8 40.4965 65.8H22.9294C20.2789 65.8 18.1216 63.7111 17.9983 61.0693L17.9366 59.9634ZM14.4849 8.41699V60.885C14.4849 61.868 14.6698 62.851 14.978 63.7725C15.2245 64.4484 15.5327 65.0627 15.9642 65.6157C17.5668 67.9503 20.1557 69.302 22.9294 69.302H40.5582C45.2427 69.302 49.0027 65.5542 49.0027 60.885V26.9098L49.4958 26.6026C49.804 26.4183 49.9889 26.0497 49.9889 25.7425V24.1451C49.9889 23.7765 49.804 23.4693 49.4958 23.285L49.0027 22.9778V8.41699C49.0027 3.74771 45.2427 0 40.5582 0H22.9294C18.2448 0 14.4849 3.74771 14.4849 8.41699Z" fill="black"/>
<path d="M15.2245 74.4013L21.1419 71.268L17.3202 62.4824C17.3202 62.4824 13.1288 57.8745 12.5124 57.8745C11.896 57.8745 8.50586 57.2601 8.50586 57.2601L11.6494 67.336L15.2245 74.4013Z" fill="#D1D4D4"/>
<path d="M21.8199 70.8993C21.8199 70.8993 21.45 67.8274 20.2173 65.0013C18.9845 62.2366 14.2383 57.9974 14.2383 57.9974" fill="white"/>
<path d="M21.8199 72.4967C21.8816 72.4967 21.9432 72.4967 22.0048 72.4967C22.8678 72.3739 23.4842 71.6366 23.4225 70.7765C23.4225 70.6536 23.0527 67.3974 21.6966 64.4484C20.3406 61.4379 15.8409 57.383 15.3478 56.9529C14.6698 56.4 13.6836 56.4614 13.1288 57.0758C12.5741 57.7516 12.6357 58.7346 13.2521 59.2876C14.4849 60.3935 17.9367 63.7111 18.7996 65.7386C19.9091 68.2575 20.2789 71.1451 20.2789 71.1451C20.3406 71.8824 21.0186 72.4967 21.8199 72.4967Z" fill="black"/>
<path d="M46.4757 47.1229C47.9551 48.4745 50.2357 48.3516 51.5301 46.8771L54.9819 42.7608C56.338 41.2863 56.2147 39.0131 54.7354 37.7229C53.256 36.3712 50.9754 36.4941 49.681 37.9686L46.2292 42.085C44.8731 43.5595 44.9964 45.8327 46.4757 47.1229Z" fill="#D1D4D4"/>
<path d="M53.8723 41.7778C53.8723 41.7163 53.8723 41.7163 53.8723 41.7778C54.2421 41.3477 54.427 40.7948 54.427 40.3033C54.427 39.7503 54.1805 39.2588 53.749 38.8902C53.3175 38.5216 52.8244 38.3372 52.2697 38.3987C51.7149 38.3987 51.2218 38.6444 50.9136 39.0745L47.4618 43.1294C47.4618 43.1294 47.4618 43.1294 47.4002 43.1908C46.6605 43.9895 46.7221 45.2797 47.5235 46.017C48.3248 46.7542 49.6192 46.6928 50.3588 45.8941L53.8723 41.7778ZM45.4277 48.2902C43.332 46.3856 43.1471 43.1294 44.9963 41.0405L48.448 36.9856C48.448 36.9856 48.448 36.9856 48.5097 36.9242C49.4343 35.8797 50.7287 35.3268 52.0847 35.2039C53.4408 35.1425 54.7969 35.5725 55.8447 36.4941C56.8926 37.4157 57.4473 38.7059 57.5706 40.0575C57.6323 41.4091 57.2008 42.7608 56.2762 43.7438L52.8244 47.7987C52.8244 47.7987 52.8244 47.7987 52.7628 47.8601C51.7149 48.966 50.3589 49.5804 48.9412 49.5804C47.6467 49.6418 46.414 49.2118 45.4277 48.2902Z" fill="black"/>
<path d="M46.3522 56.1542C47.4001 57.8131 49.6191 58.3046 51.345 57.2601L54.92 54.9255C56.5843 53.881 57.0774 51.6693 56.0295 49.949C54.9817 48.2902 52.7627 47.7987 51.0368 48.8431L47.4617 51.2392C45.7358 52.2837 45.2427 54.4954 46.3522 56.1542Z" fill="#D1D4D4"/>
<path d="M51.9 50.1948L48.3249 52.5294C47.4003 53.1438 47.0921 54.3726 47.7085 55.2941C48.3249 56.2157 49.5577 56.5229 50.4823 55.9085L54.0573 53.5739C54.4888 53.2667 54.8586 52.8366 54.9203 52.2837C55.0436 51.7307 54.9203 51.2392 54.6737 50.7477C54.3655 50.3177 53.9341 49.949 53.3793 49.8876C53.256 49.8261 53.0711 49.8261 52.9478 49.8261C52.578 49.8876 52.2082 50.0105 51.9 50.1948ZM44.9964 57.0144C43.4554 54.6183 44.1951 51.4235 46.599 49.8876L50.1741 47.5529C51.3452 46.8157 52.7013 46.5699 54.0573 46.8771C55.4134 47.1843 56.5845 47.983 57.3242 49.1503C58.0639 50.3177 58.3104 51.6693 58.0022 53.0209C57.694 54.3726 56.8927 55.5399 55.7216 56.2157L52.1465 58.5503C51.2836 59.1033 50.359 59.349 49.3728 59.349C47.6469 59.4105 45.9826 58.5503 44.9964 57.0144Z" fill="black"/>
<path d="M44.1333 36.0641C45.6742 37.6 48.1398 37.6 49.6191 36.0641L54.6119 32.132C56.1529 30.5961 56.1529 28.1386 54.6119 26.6641C53.0709 25.1281 50.6054 25.1281 49.126 26.6641L44.1333 30.5961C42.5923 32.0706 42.5923 34.5281 44.1333 36.0641Z" fill="#D1D4D4"/>
<path d="M53.5024 27.7699C52.5778 26.8484 51.1601 26.8484 50.2356 27.7699C50.1739 27.8314 50.1739 27.8314 50.1123 27.8928L45.2428 31.7634C44.8113 32.1935 44.6264 32.7464 44.6264 33.3608C44.6264 33.9752 44.873 34.5281 45.3044 35.0196C46.229 35.9412 47.6467 35.9412 48.5713 35.0196C48.6329 34.9582 48.6329 34.9582 48.6946 34.8967L53.5641 31.0261C54.3654 30.1046 54.3654 28.6915 53.5024 27.7699ZM43.0238 37.1699C40.8664 35.0196 40.8664 31.5791 43.0238 29.4902C43.0854 29.4288 43.0854 29.4288 43.1471 29.3673L48.0782 25.4967C50.2356 23.4693 53.6257 23.4693 55.7214 25.5582C57.8788 27.7085 57.8788 31.149 55.7214 33.2379C55.6598 33.2993 55.6598 33.2993 55.5981 33.3608L50.667 37.2314C49.6192 38.2758 48.2631 38.7673 46.8454 38.7673C45.4893 38.7673 44.0717 38.2144 43.0238 37.1699Z" fill="black"/>
</g>
<path d="M83.1921 30.2889L80.2467 33.2342L91.9027 44.9111H66.481V49.0889H91.9027L80.2467 60.7658L83.1921 63.7111L99.9032 47L83.1921 30.2889Z" fill="white"/>
<g clip-path="url(#clip1)">
<rect x="110.759" y="6" width="64" height="82" fill="white"/>
<rect x="108.259" y="19.3182" width="69" height="55.3636" fill="white"/>
<rect width="47.7692" height="47.4545" transform="translate(118.874 23.2727)" fill="white"/>
<rect x="125.845" y="45.0341" width="9.94231" height="3.93182" fill="black" stroke="black" stroke-width="2"/>
<rect x="140.773" y="30.2045" width="3.97115" height="3.93182" fill="black" stroke="black" stroke-width="2"/>
<rect x="155.701" y="45.0341" width="3.97115" height="3.93182" fill="black" stroke="black" stroke-width="2"/>
<rect x="140.773" y="39.1023" width="3.97115" height="3.93182" fill="black" stroke="black" stroke-width="2"/>
<rect x="155.701" y="59.8636" width="3.97115" height="3.93182" fill="black" stroke="black" stroke-width="2"/>
<rect x="146.744" y="59.8636" width="3.97115" height="3.93182" fill="black" stroke="black" stroke-width="2"/>
<rect x="140.773" y="50.9659" width="3.97115" height="12.8295" fill="black" stroke="black" stroke-width="2"/>
<rect x="146.744" y="45.0341" width="3.97115" height="3.93182" fill="black" stroke="black" stroke-width="2"/>
<rect x="155.701" y="50.9659" width="3.97115" height="3.93182" fill="black" stroke="black" stroke-width="2"/>
<path fill-rule="evenodd" clip-rule="evenodd" d="M132.807 33.1591H128.826V37.1136H132.807V33.1591ZM124.845 29.2045V41.0682H136.788V29.2045H124.845Z" fill="black"/>
<path fill-rule="evenodd" clip-rule="evenodd" d="M132.807 56.8864H128.826V60.8409H132.807V56.8864ZM124.845 52.9318V64.7954H136.788V52.9318H124.845Z" fill="black"/>
<path fill-rule="evenodd" clip-rule="evenodd" d="M156.692 33.1591H152.711V37.1136H156.692V33.1591ZM148.73 29.2045V41.0682H160.672V29.2045H148.73Z" fill="black"/>
</g>
<rect x="110.759" y="6" width="64" height="82" stroke="black" stroke-width="5"/>
<defs>
<clipPath id="clip0">
<rect width="58.1256" height="94" fill="white"/>
</clipPath>
<clipPath id="clip1">
</clipPath>
</defs>
</svg>
