<svg width="100" height="100" viewBox="0 0 100 100" fill="none" xmlns="http://www.w3.org/2000/svg">
<path d="M0 0H100V100H0V0Z" fill="white"/>
<path d="M89.9657 55.977C97.4445 43.5492 104.505 27.5537 96.3813 16.4761C92.2284 10.8289 85.1675 8.7494 78.5247 8.19749C63.5396 6.94584 48.9635 11.7948 35.4415 18.4669C25.8271 23.1385 6.7255 30.2936 1.94556 41.312C-7.77791 63.6939 21.2198 87.8005 38.613 90.698C57.5692 93.8616 72.1544 82.9713 82.8684 66.9659C84.904 63.9206 87.4666 60.1459 89.9657 55.977Z" fill="#E6F2FF"/>
<path style="mix-blend-mode:multiply" opacity="0.14" d="M63.0615 11.8742C51.6114 7.26182 39.7161 6.158 27.0756 11.9432C15.3347 17.3144 4.90244 31.9499 6.09288 47.5413C6.87439 57.6531 12.2268 65.9219 18.0791 72.4856C26.2577 81.6808 36.0811 88.8556 46.9496 91.4181C52.5402 92.7773 58.3421 92.7457 63.9199 91.3255C69.4976 89.9054 74.7063 87.1336 79.1552 83.2183C88.5061 74.9002 94.7855 60.3239 93.8404 46.1517C92.9316 32.5117 86.0707 24.8441 77.265 19.3151C72.7323 16.4052 67.9809 13.916 63.0615 11.8742Z" fill="#15A3A6"/>
<path d="M36.6667 50V63.3333C36.6667 64.2174 37.0178 65.0652 37.643 65.6904C38.2681 66.3155 39.1159 66.6667 40 66.6667H60C60.884 66.6667 61.7319 66.3155 62.357 65.6904C62.9821 65.0652 63.3333 64.2174 63.3333 63.3333V50" stroke="#0B5769" stroke-width="3.33333" stroke-linecap="round" stroke-linejoin="round"/>
<path d="M56.6667 39.9997L50 33.333L43.3333 39.9997" stroke="#0B5769" stroke-width="3.33333" stroke-linecap="round" stroke-linejoin="round"/>
<path d="M50 33.333V54.9997" stroke="#0B5769" stroke-width="3.33333" stroke-linecap="round" stroke-linejoin="round"/>
</svg>
