<svg width="20" height="20" viewBox="0 0 20 20" fill="none" xmlns="http://www.w3.org/2000/svg">
<path d="M10 1L2 3V9C2 15 10 19 10 19C10 19 18 15 18 9V3L10 1Z" fill="#15A3A6"/>
<path fill-rule="evenodd" clip-rule="evenodd" d="M7 9C7 7.34315 8.34315 6 10 6C11.0923 6 12.0482 6.58374 12.5729 7.45628L14.2881 6.42713C13.4137 4.97291 11.8205 4 10 4C7.23858 4 5 6.23858 5 9C5 11.7614 7.23858 14 10 14C11.8205 14 13.4137 13.0271 14.2881 11.5729L12.5729 10.5437C12.0482 11.4163 11.0923 12 10 12C8.34315 12 7 10.6569 7 9Z" fill="white"/>
</svg>
