<svg width="129" height="25" viewBox="0 0 129 25" fill="none" xmlns="http://www.w3.org/2000/svg">
<path d="M11.7867 14.05C11.7867 15.6333 11.2117 16.9 10.0617 17.85C8.92839 18.7833 7.31172 19.25 5.21172 19.25C3.32839 19.25 1.64505 18.8917 0.161719 18.175V14.65C1.01172 15.0167 1.88672 15.3583 2.78672 15.675C3.70339 15.975 4.61172 16.125 5.51172 16.125C6.44505 16.125 7.10339 15.95 7.48672 15.6C7.88672 15.2333 8.08672 14.775 8.08672 14.225C8.08672 13.775 7.92839 13.3917 7.61172 13.075C7.31172 12.7583 6.90339 12.4667 6.38672 12.2C5.87005 11.9167 5.27839 11.6167 4.61172 11.3C4.19505 11.1 3.74505 10.8667 3.26172 10.6C2.77839 10.3167 2.31172 9.975 1.86172 9.575C1.42839 9.15833 1.07005 8.65833 0.786719 8.075C0.503385 7.49167 0.361719 6.79167 0.361719 5.975C0.361719 4.375 0.903385 3.13333 1.98672 2.25C3.07005 1.35 4.54505 0.899999 6.41172 0.899999C7.34505 0.899999 8.22839 1.00833 9.06172 1.225C9.91172 1.44167 10.7951 1.75 11.7117 2.15L10.4867 5.1C9.67005 4.76667 8.93672 4.50833 8.28672 4.325C7.63672 4.14167 6.97005 4.05 6.28672 4.05C5.57005 4.05 5.02005 4.21667 4.63672 4.55C4.25339 4.88333 4.06172 5.31667 4.06172 5.85C4.06172 6.48333 4.34505 6.98333 4.91172 7.35C5.47839 7.71667 6.32005 8.16667 7.43672 8.7C8.35339 9.13333 9.12839 9.58333 9.76172 10.05C10.4117 10.5167 10.9117 11.0667 11.2617 11.7C11.6117 12.3333 11.7867 13.1167 11.7867 14.05ZM20.4813 16.275C20.8979 16.275 21.2979 16.2333 21.6813 16.15C22.0646 16.0667 22.4479 15.9667 22.8313 15.85V18.625C22.4313 18.7917 21.9313 18.9333 21.3313 19.05C20.7479 19.1833 20.1063 19.25 19.4063 19.25C18.5896 19.25 17.8563 19.1167 17.2063 18.85C16.5729 18.5833 16.0646 18.125 15.6813 17.475C15.3146 16.8083 15.1313 15.8917 15.1313 14.725V8.15H13.3563V6.575L15.4063 5.325L16.4813 2.45H18.8563V5.35H22.6813V8.15H18.8563V14.725C18.8563 15.2417 19.0063 15.6333 19.3063 15.9C19.6063 16.15 19.9979 16.275 20.4813 16.275ZM37.9711 12.15C37.9711 14.4167 37.3711 16.1667 36.1711 17.4C34.9878 18.6333 33.3711 19.25 31.3211 19.25C30.0544 19.25 28.9211 18.975 27.9211 18.425C26.9378 17.875 26.1628 17.075 25.5961 16.025C25.0294 14.9583 24.7461 13.6667 24.7461 12.15C24.7461 9.88333 25.3378 8.14167 26.5211 6.925C27.7044 5.70833 29.3294 5.1 31.3961 5.1C32.6794 5.1 33.8128 5.375 34.7961 5.925C35.7794 6.475 36.5544 7.275 37.1211 8.325C37.6878 9.35833 37.9711 10.6333 37.9711 12.15ZM28.5461 12.15C28.5461 13.5 28.7628 14.525 29.1961 15.225C29.6461 15.9083 30.3711 16.25 31.3711 16.25C32.3544 16.25 33.0628 15.9083 33.4961 15.225C33.9461 14.525 34.1711 13.5 34.1711 12.15C34.1711 10.8 33.9461 9.79167 33.4961 9.125C33.0628 8.44167 32.3461 8.1 31.3461 8.1C30.3628 8.1 29.6461 8.44167 29.1961 9.125C28.7628 9.79167 28.5461 10.8 28.5461 12.15ZM48.6496 5.1C50.1829 5.1 51.4246 5.7 52.3746 6.9C53.3246 8.08333 53.7996 9.83333 53.7996 12.15C53.7996 14.4667 53.3079 16.2333 52.3246 17.45C51.3413 18.65 50.0829 19.25 48.5496 19.25C47.5663 19.25 46.7829 19.075 46.1996 18.725C45.6163 18.3583 45.1413 17.95 44.7746 17.5H44.5746C44.7079 18.2 44.7746 18.8667 44.7746 19.5V25H41.0496V5.35H44.0746L44.5996 7.125H44.7746C45.1413 6.575 45.6329 6.1 46.2496 5.7C46.8663 5.3 47.6663 5.1 48.6496 5.1ZM47.4496 8.075C46.4829 8.075 45.7996 8.375 45.3996 8.975C45.0163 9.575 44.8079 10.4917 44.7746 11.725V12.125C44.7746 13.4417 44.9663 14.4583 45.3496 15.175C45.7496 15.875 46.4663 16.225 47.4996 16.225C48.3496 16.225 48.9746 15.875 49.3746 15.175C49.7913 14.4583 49.9996 13.4333 49.9996 12.1C49.9996 9.41667 49.1496 8.075 47.4496 8.075ZM64.9949 2.875C63.0783 2.875 61.5699 3.51667 60.4699 4.8C59.3699 6.08333 58.8199 7.84167 58.8199 10.075C58.8199 12.2917 59.3283 14.05 60.3449 15.35C61.3783 16.6333 62.9199 17.275 64.9699 17.275C65.7533 17.275 66.4949 17.2083 67.1949 17.075C67.8949 16.9417 68.5783 16.775 69.2449 16.575V18.525C68.5783 18.775 67.8866 18.9583 67.1699 19.075C66.4699 19.1917 65.6283 19.25 64.6449 19.25C62.8283 19.25 61.3116 18.875 60.0949 18.125C58.8783 17.375 57.9616 16.3083 57.3449 14.925C56.7449 13.5417 56.4449 11.9167 56.4449 10.05C56.4449 8.25 56.7699 6.66667 57.4199 5.3C58.0866 3.91667 59.0616 2.84167 60.3449 2.075C61.6283 1.29167 63.1866 0.899999 65.0199 0.899999C66.9033 0.899999 68.5449 1.25 69.9449 1.95L69.0449 3.85C68.4949 3.6 67.8783 3.375 67.1949 3.175C66.5283 2.975 65.7949 2.875 64.9949 2.875ZM88.2275 10.05C88.2275 11.9 87.9109 13.5167 87.2775 14.9C86.6609 16.2667 85.7442 17.3333 84.5275 18.1C83.3109 18.8667 81.8025 19.25 80.0025 19.25C78.1525 19.25 76.6109 18.8667 75.3775 18.1C74.1609 17.3333 73.2525 16.2583 72.6525 14.875C72.0525 13.4917 71.7525 11.875 71.7525 10.025C71.7525 8.19167 72.0525 6.59167 72.6525 5.225C73.2525 3.85833 74.1609 2.79167 75.3775 2.025C76.6109 1.25833 78.1609 0.874999 80.0275 0.874999C81.8109 0.874999 83.3109 1.25833 84.5275 2.025C85.7442 2.775 86.6609 3.84167 87.2775 5.225C87.9109 6.59167 88.2275 8.2 88.2275 10.05ZM74.1275 10.05C74.1275 12.3 74.6025 14.075 75.5525 15.375C76.5025 16.6583 77.9859 17.3 80.0025 17.3C82.0359 17.3 83.5192 16.6583 84.4525 15.375C85.3859 14.075 85.8525 12.3 85.8525 10.05C85.8525 7.8 85.3859 6.04167 84.4525 4.775C83.5192 3.49167 82.0442 2.85 80.0275 2.85C78.0109 2.85 76.5192 3.49167 75.5525 4.775C74.6025 6.04167 74.1275 7.8 74.1275 10.05ZM104.515 1.15L98.1396 19H95.8896L89.5146 1.15H91.8646L95.8896 12.6C96.1563 13.3333 96.3813 14.025 96.5646 14.675C96.748 15.3083 96.898 15.9167 97.0146 16.5C97.1313 15.9167 97.2813 15.3 97.4646 14.65C97.648 14 97.873 13.3 98.1396 12.55L102.14 1.15H104.515ZM111.955 19H105.505V17.7L107.605 17.225V2.95L105.505 2.45V1.15H111.955V2.45L109.855 2.95V17.225L111.955 17.7V19ZM128.452 9.9C128.452 12.9167 127.627 15.1917 125.977 16.725C124.343 18.2417 122.06 19 119.127 19H114.152V1.15H119.652C121.452 1.15 123.01 1.48333 124.327 2.15C125.643 2.81667 126.66 3.8 127.377 5.1C128.093 6.38333 128.452 7.98333 128.452 9.9ZM126.077 9.975C126.077 7.59167 125.485 5.85 124.302 4.75C123.135 3.63333 121.477 3.075 119.327 3.075H116.402V17.075H118.827C123.66 17.075 126.077 14.7083 126.077 9.975Z" fill="black"/>
</svg>
