<svg width="158" height="25" viewBox="0 0 158 25" fill="none" xmlns="http://www.w3.org/2000/svg">
<path d="M40.5133 17.05C40.5133 18.6333 39.9383 19.9 38.7883 20.85C37.6549 21.7833 36.0383 22.25 33.9383 22.25C32.0549 22.25 30.3716 21.8917 28.8883 21.175V17.65C29.7383 18.0167 30.6133 18.3583 31.5133 18.675C32.4299 18.975 33.3383 19.125 34.2383 19.125C35.1716 19.125 35.8299 18.95 36.2133 18.6C36.6133 18.2333 36.8133 17.775 36.8133 17.225C36.8133 16.775 36.6549 16.3917 36.3383 16.075C36.0383 15.7583 35.6299 15.4667 35.1133 15.2C34.5966 14.9167 34.0049 14.6167 33.3383 14.3C32.9216 14.1 32.4716 13.8667 31.9883 13.6C31.5049 13.3167 31.0383 12.975 30.5883 12.575C30.1549 12.1583 29.7966 11.6583 29.5133 11.075C29.2299 10.4917 29.0883 9.79167 29.0883 8.975C29.0883 7.375 29.6299 6.13333 30.7133 5.25C31.7966 4.35 33.2716 3.9 35.1383 3.9C36.0716 3.9 36.9549 4.00833 37.7883 4.225C38.6383 4.44167 39.5216 4.75 40.4383 5.15L39.2133 8.1C38.3966 7.76667 37.6633 7.50833 37.0133 7.325C36.3633 7.14167 35.6966 7.05 35.0133 7.05C34.2966 7.05 33.7466 7.21667 33.3633 7.55C32.9799 7.88333 32.7883 8.31667 32.7883 8.85C32.7883 9.48333 33.0716 9.98333 33.6383 10.35C34.2049 10.7167 35.0466 11.1667 36.1633 11.7C37.0799 12.1333 37.8549 12.5833 38.4883 13.05C39.1383 13.5167 39.6383 14.0667 39.9883 14.7C40.3383 15.3333 40.5133 16.1167 40.5133 17.05ZM49.2078 19.275C49.6245 19.275 50.0245 19.2333 50.4078 19.15C50.7911 19.0667 51.1745 18.9667 51.5578 18.85V21.625C51.1578 21.7917 50.6578 21.9333 50.0578 22.05C49.4745 22.1833 48.8328 22.25 48.1328 22.25C47.3161 22.25 46.5828 22.1167 45.9328 21.85C45.2995 21.5833 44.7911 21.125 44.4078 20.475C44.0411 19.8083 43.8578 18.8917 43.8578 17.725V11.15H42.0828V9.575L44.1328 8.325L45.2078 5.45H47.5828V8.35H51.4078V11.15H47.5828V17.725C47.5828 18.2417 47.7328 18.6333 48.0328 18.9C48.3328 19.15 48.7245 19.275 49.2078 19.275ZM66.6977 15.15C66.6977 17.4167 66.0977 19.1667 64.8977 20.4C63.7143 21.6333 62.0977 22.25 60.0477 22.25C58.781 22.25 57.6477 21.975 56.6477 21.425C55.6643 20.875 54.8893 20.075 54.3227 19.025C53.756 17.9583 53.4727 16.6667 53.4727 15.15C53.4727 12.8833 54.0643 11.1417 55.2477 9.925C56.431 8.70833 58.056 8.1 60.1227 8.1C61.406 8.1 62.5393 8.375 63.5227 8.925C64.506 9.475 65.281 10.275 65.8477 11.325C66.4143 12.3583 66.6977 13.6333 66.6977 15.15ZM57.2727 15.15C57.2727 16.5 57.4893 17.525 57.9227 18.225C58.3727 18.9083 59.0977 19.25 60.0977 19.25C61.081 19.25 61.7893 18.9083 62.2227 18.225C62.6727 17.525 62.8977 16.5 62.8977 15.15C62.8977 13.8 62.6727 12.7917 62.2227 12.125C61.7893 11.4417 61.0727 11.1 60.0727 11.1C59.0893 11.1 58.3727 11.4417 57.9227 12.125C57.4893 12.7917 57.2727 13.8 57.2727 15.15ZM77.3762 8.1C78.9095 8.1 80.1512 8.7 81.1012 9.9C82.0512 11.0833 82.5262 12.8333 82.5262 15.15C82.5262 17.4667 82.0345 19.2333 81.0512 20.45C80.0678 21.65 78.8095 22.25 77.2762 22.25C76.2928 22.25 75.5095 22.075 74.9262 21.725C74.3428 21.3583 73.8678 20.95 73.5012 20.5H73.3012C73.4345 21.2 73.5012 21.8667 73.5012 22.5V28H69.7762V8.35H72.8012L73.3262 10.125H73.5012C73.8678 9.575 74.3595 9.1 74.9762 8.7C75.5928 8.3 76.3928 8.1 77.3762 8.1ZM76.1762 11.075C75.2095 11.075 74.5262 11.375 74.1262 11.975C73.7428 12.575 73.5345 13.4917 73.5012 14.725V15.125C73.5012 16.4417 73.6928 17.4583 74.0762 18.175C74.4762 18.875 75.1928 19.225 76.2262 19.225C77.0762 19.225 77.7012 18.875 78.1012 18.175C78.5178 17.4583 78.7262 16.4333 78.7262 15.1C78.7262 12.4167 77.8762 11.075 76.1762 11.075ZM93.7215 5.875C91.8048 5.875 90.2965 6.51667 89.1965 7.8C88.0965 9.08333 87.5465 10.8417 87.5465 13.075C87.5465 15.2917 88.0548 17.05 89.0715 18.35C90.1048 19.6333 91.6465 20.275 93.6965 20.275C94.4798 20.275 95.2215 20.2083 95.9215 20.075C96.6215 19.9417 97.3048 19.775 97.9715 19.575V21.525C97.3048 21.775 96.6132 21.9583 95.8965 22.075C95.1965 22.1917 94.3548 22.25 93.3715 22.25C91.5548 22.25 90.0382 21.875 88.8215 21.125C87.6048 20.375 86.6882 19.3083 86.0715 17.925C85.4715 16.5417 85.1715 14.9167 85.1715 13.05C85.1715 11.25 85.4965 9.66667 86.1465 8.3C86.8132 6.91667 87.7882 5.84167 89.0715 5.075C90.3548 4.29167 91.9132 3.9 93.7465 3.9C95.6298 3.9 97.2715 4.25 98.6715 4.95L97.7715 6.85C97.2215 6.6 96.6048 6.375 95.9215 6.175C95.2548 5.975 94.5215 5.875 93.7215 5.875ZM116.954 13.05C116.954 14.9 116.637 16.5167 116.004 17.9C115.387 19.2667 114.471 20.3333 113.254 21.1C112.037 21.8667 110.529 22.25 108.729 22.25C106.879 22.25 105.337 21.8667 104.104 21.1C102.887 20.3333 101.979 19.2583 101.379 17.875C100.779 16.4917 100.479 14.875 100.479 13.025C100.479 11.1917 100.779 9.59167 101.379 8.225C101.979 6.85833 102.887 5.79167 104.104 5.025C105.337 4.25833 106.887 3.875 108.754 3.875C110.537 3.875 112.037 4.25833 113.254 5.025C114.471 5.775 115.387 6.84167 116.004 8.225C116.637 9.59167 116.954 11.2 116.954 13.05ZM102.854 13.05C102.854 15.3 103.329 17.075 104.279 18.375C105.229 19.6583 106.712 20.3 108.729 20.3C110.762 20.3 112.246 19.6583 113.179 18.375C114.112 17.075 114.579 15.3 114.579 13.05C114.579 10.8 114.112 9.04167 113.179 7.775C112.246 6.49167 110.771 5.85 108.754 5.85C106.737 5.85 105.246 6.49167 104.279 7.775C103.329 9.04167 102.854 10.8 102.854 13.05ZM133.241 4.15L126.866 22H124.616L118.241 4.15H120.591L124.616 15.6C124.883 16.3333 125.108 17.025 125.291 17.675C125.475 18.3083 125.625 18.9167 125.741 19.5C125.858 18.9167 126.008 18.3 126.191 17.65C126.375 17 126.6 16.3 126.866 15.55L130.866 4.15H133.241ZM140.681 22H134.231V20.7L136.331 20.225V5.95L134.231 5.45V4.15H140.681V5.45L138.581 5.95V20.225L140.681 20.7V22ZM157.178 12.9C157.178 15.9167 156.353 18.1917 154.703 19.725C153.07 21.2417 150.786 22 147.853 22H142.878V4.15H148.378C150.178 4.15 151.736 4.48333 153.053 5.15C154.37 5.81667 155.386 6.8 156.103 8.1C156.82 9.38333 157.178 10.9833 157.178 12.9ZM154.803 12.975C154.803 10.5917 154.211 8.85 153.028 7.75C151.861 6.63333 150.203 6.075 148.053 6.075H145.128V20.075H147.553C152.386 20.075 154.803 17.7083 154.803 12.975Z" fill="black"/>
<path d="M0 12.6437L0.863026 12.3563C1.4384 12.069 1.43844 11.4943 1.43844 11.2069C1.15075 10.9195 0.28766 8.04598 0.28766 8.04598C0.28766 8.04598 2.58916 8.62069 3.16453 8.62069C3.45222 8.90805 3.7399 8.62069 3.7399 8.33333C4.02759 8.04598 4.31531 7.18391 4.31531 7.18391L7.19218 10.3448C7.76755 10.6322 8.05521 10.3448 8.05521 9.77012C8.05521 9.1954 6.61677 3.16092 6.61677 3.16092C6.61677 3.16092 8.05524 4.02299 8.63062 4.31034C8.9183 4.5977 9.20596 4.5977 9.49364 4.02299L11.5075 0C11.5075 0.287356 13.2336 3.44828 13.5213 4.02299C13.5213 4.5977 13.809 4.5977 14.3844 4.31034C14.9597 4.02299 16.3982 3.16092 16.3982 3.16092C16.3982 3.16092 14.9597 9.1954 14.9597 9.77012C14.672 10.3448 15.2474 10.9195 15.8228 10.3448C16.1105 10.0575 18.6997 7.18391 18.6997 7.18391C18.6997 7.18391 19.275 8.33333 19.275 8.62069C19.275 8.90805 19.5627 8.90804 19.8504 8.90804C20.1381 8.90804 22.4396 8.33333 22.4396 8.33333C22.4396 8.33333 21.5765 11.2069 21.5765 11.4943C21.5765 11.7816 21.2888 12.069 21.8642 12.3563L22.7273 12.6437C22.7273 12.6437 17.8366 16.954 17.5489 17.2414C17.2612 17.5287 16.9735 17.5287 17.2612 18.3908C17.5489 18.9655 17.8366 20.1149 17.8366 20.1149C17.8366 20.1149 13.2336 18.9655 12.6582 18.9655C12.0828 18.9655 11.7951 18.9655 11.7951 19.5402C11.7951 19.8276 12.0829 25 12.0829 25H10.6444C10.6444 25 10.9321 20.1149 10.9321 19.5402C10.9321 18.9655 10.6444 18.9655 10.0691 18.9655C9.49368 19.2529 4.89067 20.1149 4.89067 20.1149L5.46604 18.3908C5.75373 17.5287 5.46602 17.5287 5.17833 17.2414C5.17833 16.954 0 12.6437 0 12.6437Z" fill="#FF0000"/>
</svg>

