<svg width="80" height="76" viewBox="0 0 80 76" fill="none" xmlns="http://www.w3.org/2000/svg">
<g clip-path="url(#clip0)">
<circle cx="40" cy="18" r="16.5" fill="white" stroke="black" stroke-width="3"/>
<path d="M33 19.5L36.8333 23.3333L47.1667 13" stroke="black" stroke-width="3" stroke-linecap="round"/>
<path d="M12.5008 72.8343L6.58 65.5978C4.09075 62.5554 4.66249 58.0475 7.83247 55.7229L20.1513 46.6891C22.951 44.6359 26.4113 43.6911 29.8659 44.0366L50.0223 46.0522C52.5643 46.3064 54.5 48.4454 54.5 51L54.91 50.795C59.2575 48.6213 63.115 45.5822 66.2459 41.8642L67.351 40.5519C68.619 39.0462 70.7394 38.5784 72.5232 39.4108C74.8991 40.5196 75.7636 43.4612 74.3654 45.6791L63.351 63.1501C62.8115 64.0059 61.9214 64.5796 60.9191 64.7174L27.2713 69.3439C24.166 69.7709 21.2677 71.1443 18.9707 73.2772C17.0901 75.0235 14.1259 74.8206 12.5008 72.8343Z" fill="#D0D7DE"/>
<path d="M31 54.5L33.5008 55.1669C36.8118 56.0498 40.2438 56.391 43.6638 56.1773L50.0088 55.7807C52.5333 55.6229 54.5 53.5294 54.5 51V51M54.5 51V51C54.5 48.4454 52.5642 46.3064 50.0223 46.0522L29.8659 44.0366C26.4113 43.6911 22.951 44.6359 20.1513 46.6891L7.83247 55.7229C4.66249 58.0475 4.09075 62.5554 6.58 65.5978L12.5008 72.8343C14.1259 74.8206 17.0901 75.0235 18.9707 73.2772V73.2772C21.2677 71.1443 24.166 69.7709 27.2713 69.3439L60.9191 64.7174C61.9214 64.5796 62.8115 64.0059 63.351 63.1501L74.3654 45.6791C75.7636 43.4612 74.8991 40.5196 72.5232 39.4108V39.4108C70.7394 38.5784 68.619 39.0462 67.351 40.5519L66.2459 41.8642C63.115 45.5822 59.2575 48.6213 54.91 50.795L54.5 51Z" stroke="black" stroke-width="3.5" stroke-linecap="round"/>
</g>
<defs>
<clipPath id="clip0">
<rect width="80" height="76" fill="white"/>
</clipPath>
</defs>
</svg>
