<svg width="117" height="138" viewBox="0 0 117 138" fill="none" xmlns="http://www.w3.org/2000/svg">
<path d="M110.434 28.01C99.3773 -22.8192 53.3863 4.82425 -11.0906 37.8012C-22.1987 43.4824 -30.234 53.8511 -32.7362 66.0743C-38.272 93.1169 -15.3762 121.172 11.8123 125.94C24.2082 128.113 38.5504 131.117 54.8235 135.208C124.957 152.839 122.478 83.372 110.434 28.01Z" fill="#33D1A1"/>
<path d="M81.8501 114.648H67.3501H49.1075C28.7486 114.648 14.32 94.7758 20.6228 75.4171C21.4375 72.915 22.5782 70.5311 24.0157 68.327L49.0256 29.9785C50.6741 27.4507 53.8618 26.4139 56.682 27.4883C59.8624 28.6998 61.5429 32.1844 60.511 35.4275L55.0337 52.6418C53.4582 57.5936 57.1537 62.6476 62.3501 62.6476H85.8501C89.44 62.6476 92.3501 65.5577 92.3501 69.1476C92.3501 72.7374 89.44 75.6476 85.8501 75.6476H87.8501C91.44 75.6476 94.3501 78.5577 94.3501 82.1476C94.3501 85.7374 91.44 88.6476 87.8501 88.6476H85.8501C89.44 88.6476 92.3501 91.5577 92.3501 95.1476C92.3501 98.7374 89.44 101.648 85.8501 101.648H81.8501C85.44 101.648 88.3501 104.558 88.3501 108.148C88.3501 111.737 85.44 114.648 81.8501 114.648Z" fill="white"/>
<path d="M67.3501 101.648C63.7603 101.648 60.8501 104.558 60.8501 108.148C60.8501 111.737 63.7603 114.648 67.3501 114.648M67.3501 101.648H62.3501C58.7603 101.648 55.8501 98.7374 55.8501 95.1476C55.8501 91.5577 58.7603 88.6476 62.3501 88.6476M67.3501 101.648H81.8501M81.8501 101.648H85.8501C89.44 101.648 92.3501 98.7374 92.3501 95.1476C92.3501 91.5577 89.44 88.6476 85.8501 88.6476M81.8501 101.648C85.44 101.648 88.3501 104.558 88.3501 108.148C88.3501 111.737 85.44 114.648 81.8501 114.648H67.3501M67.3501 114.648H49.1075C28.7486 114.648 14.32 94.7758 20.6228 75.4171C21.4375 72.915 22.5782 70.5311 24.0157 68.327L49.0256 29.9785C50.6741 27.4507 53.8618 26.4139 56.682 27.4883C59.8624 28.6998 61.5429 32.1844 60.511 35.4275L55.0337 52.6418C53.4582 57.5936 57.1537 62.6476 62.3501 62.6476M62.3501 62.6476C58.7603 62.6476 55.8501 65.5577 55.8501 69.1476C55.8501 72.7374 58.7603 75.6476 62.3501 75.6476M62.3501 62.6476H85.8501C89.44 62.6476 92.3501 65.5577 92.3501 69.1476C92.3501 72.7374 89.44 75.6476 85.8501 75.6476M85.8501 75.6476H87.8501C91.44 75.6476 94.3501 78.5577 94.3501 82.1476C94.3501 85.7374 91.44 88.6476 87.8501 88.6476H85.8501M85.8501 75.6476H62.3501M62.3501 75.6476C58.7603 75.6476 55.8501 78.5577 55.8501 82.1476C55.8501 85.7374 58.7603 88.6476 62.3501 88.6476M85.8501 88.6476H62.3501" stroke="black" stroke-width="5"/>
</svg>
