<svg width="117" height="138" viewBox="0 0 117 138" fill="none" xmlns="http://www.w3.org/2000/svg">
<path d="M110.434 28.01C99.3773 -22.8192 53.3863 4.82425 -11.0906 37.8012C-22.1987 43.4824 -30.234 53.8511 -32.7362 66.0743C-38.272 93.1169 -15.3762 121.172 11.8123 125.94C24.2082 128.113 38.5504 131.117 54.8235 135.208C124.957 152.839 122.478 83.372 110.434 28.01Z" fill="#33D1A1"/>
<path d="M83.3204 115H68.2594H44.9973C25.9812 115 12.5058 96.4365 18.3972 78.356C20.4144 72.1653 24.5277 66.872 30.0284 63.3883L30.3083 63.211C34.7508 60.3974 38.3413 56.4249 40.693 51.7215L52.5138 28.08C53.7886 25.5304 56.7826 24.3547 59.4516 25.3556C61.6256 26.1709 63.0659 28.2492 63.0659 30.5711V40.4463C63.0659 42.3397 62.5998 44.204 61.7088 45.8746L58.7871 51.3529C56.7397 55.1918 58.8451 59.9327 63.0659 60.9879H87.4752C91.204 60.9879 94.2267 64.0107 94.2267 67.7394C94.2267 71.4682 91.204 74.4909 87.4752 74.4909H89.5526C93.2813 74.4909 96.3041 77.5137 96.3041 81.2424C96.3041 84.9712 93.2813 87.9939 89.5526 87.9939H87.4752C91.204 87.9939 94.2267 91.0167 94.2267 94.7455C94.2267 98.4742 91.204 101.497 87.4752 101.497H83.3204C87.0492 101.497 90.0719 104.52 90.0719 108.248C90.0719 111.977 87.0492 115 83.3204 115Z" fill="white"/>
<path d="M68.2594 101.497C64.5306 101.497 61.5079 104.52 61.5079 108.248C61.5079 111.977 64.5306 115 68.2594 115M68.2594 101.497H63.0659C59.3371 101.497 56.3144 98.4742 56.3144 94.7455C56.3144 91.0167 59.3371 87.9939 63.0659 87.9939M68.2594 101.497H83.3204M83.3204 101.497H87.4752C91.204 101.497 94.2267 98.4742 94.2267 94.7455C94.2267 91.0167 91.204 87.9939 87.4752 87.9939M83.3204 101.497C87.0492 101.497 90.0719 104.52 90.0719 108.248C90.0719 111.977 87.0492 115 83.3204 115H68.2594M68.2594 115H44.9973C25.9812 115 12.5058 96.4365 18.3972 78.356C20.4144 72.1653 24.5277 66.872 30.0284 63.3883L30.3083 63.211C34.7508 60.3974 38.3413 56.4249 40.693 51.7215L52.5138 28.08C53.7886 25.5304 56.7826 24.3547 59.4516 25.3556C61.6256 26.1709 63.0659 28.2492 63.0659 30.5711V40.4463C63.0659 42.3397 62.5998 44.204 61.7088 45.8746L58.7871 51.3529C56.7397 55.1918 58.8451 59.9327 63.0659 60.9879M63.0659 60.9879C59.3371 60.9879 56.3144 64.0107 56.3144 67.7394C56.3144 71.4682 59.3371 74.4909 63.0659 74.4909M63.0659 60.9879H87.4752C91.204 60.9879 94.2267 64.0107 94.2267 67.7394C94.2267 71.4682 91.204 74.4909 87.4752 74.4909M87.4752 74.4909H89.5526C93.2814 74.4909 96.3041 77.5137 96.3041 81.2424C96.3041 84.9712 93.2814 87.9939 89.5526 87.9939H87.4752M87.4752 74.4909H63.0659M63.0659 74.4909C59.3371 74.4909 56.3144 77.5137 56.3144 81.2424C56.3144 84.9712 59.3371 87.9939 63.0659 87.9939M87.4752 87.9939H63.0659" stroke="black" stroke-width="5"/>
</svg>
