<svg width="200" height="160" viewBox="0 0 200 160" fill="none" xmlns="http://www.w3.org/2000/svg">
<path d="M181.96 32.4753C169.14 -26.457 115.817 5.59333 41.0612 43.8274C28.1822 50.4144 18.8659 62.4361 15.9648 76.6079C9.54649 107.962 36.0923 140.489 67.6153 146.017C81.9873 148.537 98.616 152.019 117.483 156.763C198.798 177.205 195.923 96.6632 181.96 32.4753Z" fill="#33D1A1"/>
<path d="M142.85 124.648H128.35H110.107C89.7481 124.648 75.3195 104.776 81.6223 85.4171C82.437 82.915 83.5777 80.5311 85.0152 78.327L110.025 39.9785C111.674 37.4507 114.861 36.4139 117.682 37.4883C120.862 38.6998 122.542 42.1844 121.511 45.4275L116.033 62.6418C114.458 67.5936 118.153 72.6476 123.35 72.6476H146.85C150.439 72.6476 153.35 75.5577 153.35 79.1476C153.35 82.7374 150.439 85.6476 146.85 85.6476H148.85C152.439 85.6476 155.35 88.5577 155.35 92.1476C155.35 95.7374 152.439 98.6476 148.85 98.6476H146.85C150.439 98.6476 153.35 101.558 153.35 105.148C153.35 108.737 150.439 111.648 146.85 111.648H142.85C146.439 111.648 149.35 114.558 149.35 118.148C149.35 121.737 146.439 124.648 142.85 124.648Z" fill="white"/>
<path d="M128.35 111.648C124.76 111.648 121.85 114.558 121.85 118.148C121.85 121.737 124.76 124.648 128.35 124.648M128.35 111.648H123.35C119.76 111.648 116.85 108.737 116.85 105.148C116.85 101.558 119.76 98.6476 123.35 98.6476M128.35 111.648H142.85M142.85 111.648H146.85C150.439 111.648 153.35 108.737 153.35 105.148C153.35 101.558 150.439 98.6476 146.85 98.6476M142.85 111.648C146.439 111.648 149.35 114.558 149.35 118.148C149.35 121.737 146.439 124.648 142.85 124.648H128.35M128.35 124.648H110.107C89.7481 124.648 75.3195 104.776 81.6223 85.4171C82.437 82.915 83.5777 80.5311 85.0152 78.327L110.025 39.9785C111.674 37.4507 114.861 36.4139 117.682 37.4883C120.862 38.6998 122.542 42.1844 121.511 45.4275L116.033 62.6418C114.458 67.5936 118.153 72.6476 123.35 72.6476M123.35 72.6476C119.76 72.6476 116.85 75.5577 116.85 79.1476C116.85 82.7374 119.76 85.6476 123.35 85.6476M123.35 72.6476H146.85C150.439 72.6476 153.35 75.5577 153.35 79.1476C153.35 82.7374 150.439 85.6476 146.85 85.6476M146.85 85.6476H148.85C152.439 85.6476 155.35 88.5577 155.35 92.1476C155.35 95.7374 152.439 98.6476 148.85 98.6476H146.85M146.85 85.6476H123.35M123.35 85.6476C119.76 85.6476 116.85 88.5577 116.85 92.1476C116.85 95.7374 119.76 98.6476 123.35 98.6476M146.85 98.6476H123.35" stroke="black" stroke-width="5"/>
</svg>
