<svg width="56" height="56" viewBox="0 0 56 56" fill="none" xmlns="http://www.w3.org/2000/svg">
<rect width="56" height="56" rx="8" fill="#FEA88E"/>
<path fill-rule="evenodd" clip-rule="evenodd" d="M25.2041 17.25C24.0106 17.25 22.866 17.7241 22.0221 18.568L18.068 22.5221C17.2241 23.366 16.75 24.5106 16.75 25.7041L16.75 31.2959C16.75 32.4894 17.2241 33.634 18.068 34.4779L22.0221 38.432C22.866 39.2759 24.0106 39.75 25.2041 39.75H30.7959C31.9894 39.75 33.134 39.2759 33.9779 38.432L37.932 34.4779C38.7759 33.634 39.25 32.4894 39.25 31.2959L39.25 25.7041C39.25 24.5106 38.7759 23.366 37.932 22.5221L33.9779 18.568C33.134 17.7241 31.9894 17.25 30.7959 17.25H25.2041ZM26.875 21.5901L29.125 21.5901V29.4651L26.875 29.4651L26.875 21.5901ZM26.3125 33.9651C26.3125 33.0331 27.068 32.2776 28 32.2776C28.932 32.2776 29.6875 33.0331 29.6875 33.9651C29.6875 34.8971 28.932 35.6526 28 35.6526C27.068 35.6526 26.3125 34.8971 26.3125 33.9651Z" fill="black"/>
</svg>
